<ttFont>
    <TTGlyph name="A" xMin="10" yMin="0" xMax="612" yMax="690">
      <contour>
        <pt x="453" y="216" on="1"/>
        <pt x="169" y="216" on="1"/>
        <pt x="101" y="0" on="1"/>
        <pt x="10" y="0" on="1"/>
        <pt x="232" y="666" on="1"/>
        <pt x="238" y="690" on="0"/>
        <pt x="265" y="690" on="1"/>
        <pt x="357" y="690" on="1"/>
        <pt x="384" y="690" on="0"/>
        <pt x="390" y="666" on="1"/>
        <pt x="612" y="0" on="1"/>
        <pt x="521" y="0" on="1"/>
      </contour>
      <contour>
        <pt x="429" y="292" on="1"/>
        <pt x="342" y="566" on="1"/>
        <pt x="333" y="592" on="0"/>
        <pt x="325" y="622" on="1"/>
        <pt x="297" y="622" on="1"/>
        <pt x="280" y="566" on="1"/>
        <pt x="193" y="292" on="1"/>
      </contour>
    </TTGlyph>
    <TTGlyph name="AE" xMin="-1" yMin="-1" xMax="862" yMax="691">
      <contour>
        <pt x="859" y="74" on="1"/>
        <pt x="862" y="5" on="1"/>
        <pt x="767" y="-1" on="0"/>
        <pt x="569" y="-1" on="1"/>
        <pt x="517" y="-1" on="0"/>
        <pt x="453" y="66" on="0"/>
        <pt x="453" y="119" on="1"/>
        <pt x="453" y="225" on="1"/>
        <pt x="222" y="225" on="1"/>
        <pt x="91" y="0" on="1"/>
        <pt x="-1" y="0" on="1"/>
        <pt x="342" y="582" on="1"/>
        <pt x="377" y="645" on="0"/>
        <pt x="474" y="691" on="0"/>
        <pt x="567" y="691" on="1"/>
        <pt x="756" y="691" on="0"/>
        <pt x="862" y="685" on="1"/>
        <pt x="859" y="615" on="1"/>
        <pt x="604" y="615" on="1"/>
        <pt x="573" y="615" on="0"/>
        <pt x="536" y="578" on="0"/>
        <pt x="536" y="546" on="1"/>
        <pt x="536" y="400" on="1"/>
        <pt x="819" y="400" on="1"/>
        <pt x="819" y="328" on="1"/>
        <pt x="536" y="328" on="1"/>
        <pt x="536" y="141" on="1"/>
        <pt x="536" y="74" on="0"/>
        <pt x="604" y="74" on="1"/>
      </contour>
      <contour>
        <pt x="453" y="298" on="1"/>
        <pt x="453" y="558" on="1"/>
        <pt x="453" y="579" on="0"/>
        <pt x="472" y="621" on="0"/>
        <pt x="485" y="630" on="1"/>
        <pt x="477" y="630" on="1"/>
        <pt x="448" y="614" on="0"/>
        <pt x="419" y="567" on="1"/>
        <pt x="264" y="298" on="1"/>
      </contour>
    </TTGlyph>
    <TTGlyph name="Aacute" xMin="10" yMin="0" xMax="612" yMax="914">
      <contour>
        <pt x="275" y="728" on="1"/>
        <pt x="246" y="767" on="1"/>
        <pt x="418" y="914" on="1"/>
        <pt x="467" y="848" on="1"/>
      </contour>
      <contour>
        <pt x="453" y="216" on="1"/>
        <pt x="169" y="216" on="1"/>
        <pt x="101" y="0" on="1"/>
        <pt x="10" y="0" on="1"/>
        <pt x="232" y="666" on="1"/>
        <pt x="238" y="690" on="0"/>
        <pt x="265" y="690" on="1"/>
        <pt x="357" y="690" on="1"/>
        <pt x="384" y="690" on="0"/>
        <pt x="390" y="666" on="1"/>
        <pt x="612" y="0" on="1"/>
        <pt x="521" y="0" on="1"/>
      </contour>
      <contour>
        <pt x="429" y="292" on="1"/>
        <pt x="342" y="566" on="1"/>
        <pt x="333" y="592" on="0"/>
        <pt x="325" y="622" on="1"/>
        <pt x="297" y="622" on="1"/>
        <pt x="280" y="566" on="1"/>
        <pt x="193" y="292" on="1"/>
      </contour>
    </TTGlyph>
    <TTGlyph name="Abreve" xMin="10" yMin="0" xMax="612" yMax="884">
      <contour>
        <pt x="417" y="884" on="1"/>
        <pt x="461" y="877" on="1"/>
        <pt x="465" y="818" on="0"/>
        <pt x="383" y="746" on="0"/>
        <pt x="239" y="746" on="0"/>
        <pt x="157" y="818" on="0"/>
        <pt x="161" y="877" on="1"/>
        <pt x="205" y="884" on="1"/>
        <pt x="204" y="848" on="0"/>
        <pt x="260" y="809" on="0"/>
        <pt x="312" y="809" on="1"/>
        <pt x="362" y="809" on="0"/>
        <pt x="417" y="848" on="0"/>
      </contour>
      <contour>
        <pt x="453" y="216" on="1"/>
        <pt x="169" y="216" on="1"/>
        <pt x="101" y="0" on="1"/>
        <pt x="10" y="0" on="1"/>
        <pt x="232" y="666" on="1"/>
        <pt x="238" y="690" on="0"/>
        <pt x="265" y="690" on="1"/>
        <pt x="357" y="690" on="1"/>
        <pt x="384" y="690" on="0"/>
        <pt x="390" y="666" on="1"/>
        <pt x="612" y="0" on="1"/>
        <pt x="521" y="0" on="1"/>
      </contour>
      <contour>
        <pt x="429" y="292" on="1"/>
        <pt x="342" y="566" on="1"/>
        <pt x="333" y="592" on="0"/>
        <pt x="325" y="622" on="1"/>
        <pt x="297" y="622" on="1"/>
        <pt x="280" y="566" on="1"/>
        <pt x="193" y="292" on="1"/>
      </contour>
    </TTGlyph>
    <TTGlyph name="Acircumflex" xMin="10" yMin="0" xMax="612" yMax="896">
      <contour>
        <pt x="177" y="732" on="1"/>
        <pt x="149" y="769" on="1"/>
        <pt x="280" y="896" on="1"/>
        <pt x="342" y="896" on="1"/>
        <pt x="474" y="769" on="1"/>
        <pt x="444" y="732" on="1"/>
        <pt x="315" y="830" on="1"/>
        <pt x="307" y="830" on="1"/>
      </contour>
      <contour>
        <pt x="453" y="216" on="1"/>
        <pt x="169" y="216" on="1"/>
        <pt x="101" y="0" on="1"/>
        <pt x="10" y="0" on="1"/>
        <pt x="232" y="666" on="1"/>
        <pt x="238" y="690" on="0"/>
        <pt x="265" y="690" on="1"/>
        <pt x="357" y="690" on="1"/>
        <pt x="384" y="690" on="0"/>
        <pt x="390" y="666" on="1"/>
        <pt x="612" y="0" on="1"/>
        <pt x="521" y="0" on="1"/>
      </contour>
      <contour>
        <pt x="429" y="292" on="1"/>
        <pt x="342" y="566" on="1"/>
        <pt x="333" y="592" on="0"/>
        <pt x="325" y="622" on="1"/>
        <pt x="297" y="622" on="1"/>
        <pt x="280" y="566" on="1"/>
        <pt x="193" y="292" on="1"/>
      </contour>
    </TTGlyph>
    <TTGlyph name="Adieresis" xMin="10" yMin="0" xMax="612" yMax="870">
      <contour>
        <pt x="237" y="767" on="1"/>
        <pt x="208" y="767" on="1"/>
        <pt x="185" y="767" on="0"/>
        <pt x="185" y="791" on="1"/>
        <pt x="185" y="846" on="1"/>
        <pt x="185" y="870" on="0"/>
        <pt x="208" y="870" on="1"/>
        <pt x="237" y="870" on="1"/>
        <pt x="260" y="870" on="0"/>
        <pt x="260" y="846" on="1"/>
        <pt x="260" y="791" on="1"/>
        <pt x="260" y="767" on="0"/>
      </contour>
      <contour>
        <pt x="414" y="767" on="1"/>
        <pt x="386" y="767" on="1"/>
        <pt x="362" y="767" on="0"/>
        <pt x="362" y="791" on="1"/>
        <pt x="362" y="846" on="1"/>
        <pt x="362" y="870" on="0"/>
        <pt x="386" y="870" on="1"/>
        <pt x="414" y="870" on="1"/>
        <pt x="438" y="870" on="0"/>
        <pt x="438" y="846" on="1"/>
        <pt x="438" y="791" on="1"/>
        <pt x="438" y="767" on="0"/>
      </contour>
      <contour>
        <pt x="453" y="216" on="1"/>
        <pt x="169" y="216" on="1"/>
        <pt x="101" y="0" on="1"/>
        <pt x="10" y="0" on="1"/>
        <pt x="232" y="666" on="1"/>
        <pt x="238" y="690" on="0"/>
        <pt x="265" y="690" on="1"/>
        <pt x="357" y="690" on="1"/>
        <pt x="384" y="690" on="0"/>
        <pt x="390" y="666" on="1"/>
        <pt x="612" y="0" on="1"/>
        <pt x="521" y="0" on="1"/>
      </contour>
      <contour>
        <pt x="429" y="292" on="1"/>
        <pt x="342" y="566" on="1"/>
        <pt x="333" y="592" on="0"/>
        <pt x="325" y="622" on="1"/>
        <pt x="297" y="622" on="1"/>
        <pt x="280" y="566" on="1"/>
        <pt x="193" y="292" on="1"/>
      </contour>
    </TTGlyph>
    <TTGlyph name="Agrave" xMin="10" yMin="0" xMax="612" yMax="914">
      <contour>
        <pt x="332" y="728" on="1"/>
        <pt x="140" y="848" on="1"/>
        <pt x="189" y="914" on="1"/>
        <pt x="361" y="767" on="1"/>
      </contour>
      <contour>
        <pt x="453" y="216" on="1"/>
        <pt x="169" y="216" on="1"/>
        <pt x="101" y="0" on="1"/>
        <pt x="10" y="0" on="1"/>
        <pt x="232" y="666" on="1"/>
        <pt x="238" y="690" on="0"/>
        <pt x="265" y="690" on="1"/>
        <pt x="357" y="690" on="1"/>
        <pt x="384" y="690" on="0"/>
        <pt x="390" y="666" on="1"/>
        <pt x="612" y="0" on="1"/>
        <pt x="521" y="0" on="1"/>
      </contour>
      <contour>
        <pt x="429" y="292" on="1"/>
        <pt x="342" y="566" on="1"/>
        <pt x="333" y="592" on="0"/>
        <pt x="325" y="622" on="1"/>
        <pt x="297" y="622" on="1"/>
        <pt x="280" y="566" on="1"/>
        <pt x="193" y="292" on="1"/>
      </contour>
    </TTGlyph>
    <TTGlyph name="Amacron" xMin="10" yMin="0" xMax="612" yMax="849">
      <contour>
        <pt x="451" y="786" on="1"/>
        <pt x="172" y="786" on="1"/>
        <pt x="172" y="849" on="1"/>
        <pt x="451" y="849" on="1"/>
      </contour>
      <contour>
        <pt x="453" y="216" on="1"/>
        <pt x="169" y="216" on="1"/>
        <pt x="101" y="0" on="1"/>
        <pt x="10" y="0" on="1"/>
        <pt x="232" y="666" on="1"/>
        <pt x="238" y="690" on="0"/>
        <pt x="265" y="690" on="1"/>
        <pt x="357" y="690" on="1"/>
        <pt x="384" y="690" on="0"/>
        <pt x="390" y="666" on="1"/>
        <pt x="612" y="0" on="1"/>
        <pt x="521" y="0" on="1"/>
      </contour>
      <contour>
        <pt x="429" y="292" on="1"/>
        <pt x="342" y="566" on="1"/>
        <pt x="333" y="592" on="0"/>
        <pt x="325" y="622" on="1"/>
        <pt x="297" y="622" on="1"/>
        <pt x="280" y="566" on="1"/>
        <pt x="193" y="292" on="1"/>
      </contour>
    </TTGlyph>
    <TTGlyph name="Aogonek" xMin="10" yMin="-202" xMax="626" yMax="690">
      <contour>
        <pt x="616" y="-158" on="1"/>
        <pt x="626" y="-193" on="1"/>
        <pt x="534" y="-228" on="0"/>
        <pt x="457" y="-175" on="0"/>
        <pt x="478" y="-117" on="1"/>
        <pt x="497" y="-59" on="0"/>
        <pt x="571" y="0" on="1"/>
        <pt x="521" y="0" on="1"/>
        <pt x="453" y="216" on="1"/>
        <pt x="169" y="216" on="1"/>
        <pt x="101" y="0" on="1"/>
        <pt x="10" y="0" on="1"/>
        <pt x="232" y="666" on="1"/>
        <pt x="238" y="690" on="0"/>
        <pt x="265" y="690" on="1"/>
        <pt x="357" y="690" on="1"/>
        <pt x="384" y="690" on="0"/>
        <pt x="390" y="666" on="1"/>
        <pt x="612" y="0" on="1"/>
        <pt x="558" y="-61" on="0"/>
        <pt x="538" y="-114" on="1"/>
        <pt x="523" y="-150" on="0"/>
        <pt x="568" y="-174" on="0"/>
      </contour>
      <contour>
        <pt x="429" y="292" on="1"/>
        <pt x="342" y="566" on="1"/>
        <pt x="333" y="592" on="0"/>
        <pt x="325" y="622" on="1"/>
        <pt x="297" y="622" on="1"/>
        <pt x="280" y="566" on="1"/>
        <pt x="193" y="292" on="1"/>
      </contour>
    </TTGlyph>
    <TTGlyph name="Aring" xMin="10" yMin="0" xMax="612" yMax="924">
      <contour>
        <pt x="312" y="715" on="1"/>
        <pt x="267" y="715" on="0"/>
        <pt x="205" y="775" on="0"/>
        <pt x="205" y="863" on="0"/>
        <pt x="268" y="924" on="0"/>
        <pt x="356" y="924" on="0"/>
        <pt x="419" y="863" on="0"/>
        <pt x="419" y="775" on="0"/>
        <pt x="356" y="715" on="0"/>
      </contour>
      <contour>
        <pt x="312" y="881" on="1"/>
        <pt x="286" y="881" on="0"/>
        <pt x="252" y="847" on="0"/>
        <pt x="252" y="819" on="1"/>
        <pt x="252" y="792" on="0"/>
        <pt x="286" y="758" on="0"/>
        <pt x="312" y="758" on="1"/>
        <pt x="337" y="758" on="0"/>
        <pt x="371" y="792" on="0"/>
        <pt x="371" y="846" on="0"/>
        <pt x="337" y="881" on="0"/>
      </contour>
      <contour>
        <pt x="453" y="216" on="1"/>
        <pt x="169" y="216" on="1"/>
        <pt x="101" y="0" on="1"/>
        <pt x="10" y="0" on="1"/>
        <pt x="232" y="666" on="1"/>
        <pt x="238" y="690" on="0"/>
        <pt x="265" y="690" on="1"/>
        <pt x="357" y="690" on="1"/>
        <pt x="384" y="690" on="0"/>
        <pt x="390" y="666" on="1"/>
        <pt x="612" y="0" on="1"/>
        <pt x="521" y="0" on="1"/>
      </contour>
      <contour>
        <pt x="429" y="292" on="1"/>
        <pt x="342" y="566" on="1"/>
        <pt x="333" y="592" on="0"/>
        <pt x="325" y="622" on="1"/>
        <pt x="297" y="622" on="1"/>
        <pt x="280" y="566" on="1"/>
        <pt x="193" y="292" on="1"/>
      </contour>
    </TTGlyph>
    <TTGlyph name="Atilde" xMin="10" yMin="0" xMax="612" yMax="880">
      <contour>
        <pt x="193" y="765" on="1"/>
        <pt x="153" y="765" on="1"/>
        <pt x="147" y="823" on="0"/>
        <pt x="192" y="883" on="0"/>
        <pt x="231" y="880" on="1"/>
        <pt x="263" y="877" on="0"/>
        <pt x="354" y="827" on="0"/>
        <pt x="408" y="821" on="0"/>
        <pt x="429" y="845" on="0"/>
        <pt x="429" y="875" on="1"/>
        <pt x="469" y="875" on="1"/>
        <pt x="475" y="819" on="0"/>
        <pt x="431" y="760" on="0"/>
        <pt x="391" y="763" on="1"/>
        <pt x="354" y="766" on="0"/>
        <pt x="261" y="817" on="0"/>
        <pt x="241" y="820" on="1"/>
        <pt x="213" y="823" on="0"/>
        <pt x="193" y="797" on="0"/>
      </contour>
      <contour>
        <pt x="453" y="216" on="1"/>
        <pt x="169" y="216" on="1"/>
        <pt x="101" y="0" on="1"/>
        <pt x="10" y="0" on="1"/>
        <pt x="232" y="666" on="1"/>
        <pt x="238" y="690" on="0"/>
        <pt x="265" y="690" on="1"/>
        <pt x="357" y="690" on="1"/>
        <pt x="384" y="690" on="0"/>
        <pt x="390" y="666" on="1"/>
        <pt x="612" y="0" on="1"/>
        <pt x="521" y="0" on="1"/>
      </contour>
      <contour>
        <pt x="429" y="292" on="1"/>
        <pt x="342" y="566" on="1"/>
        <pt x="333" y="592" on="0"/>
        <pt x="325" y="622" on="1"/>
        <pt x="297" y="622" on="1"/>
        <pt x="280" y="566" on="1"/>
        <pt x="193" y="292" on="1"/>
      </contour>
    </TTGlyph>
    <TTGlyph name="B" xMin="87" yMin="-8" xMax="562" yMax="698">
      <contour>
        <pt x="424" y="360" on="1"/>
        <pt x="424" y="356" on="1"/>
        <pt x="499" y="349" on="0"/>
        <pt x="562" y="258" on="0"/>
        <pt x="562" y="172" on="1"/>
        <pt x="562" y="68" on="0"/>
        <pt x="464" y="-8" on="0"/>
        <pt x="342" y="-8" on="1"/>
        <pt x="176" y="-8" on="0"/>
        <pt x="87" y="0" on="1"/>
        <pt x="87" y="690" on="1"/>
        <pt x="166" y="698" on="0"/>
        <pt x="311" y="698" on="1"/>
        <pt x="440" y="698" on="0"/>
        <pt x="541" y="623" on="0"/>
        <pt x="541" y="518" on="1"/>
        <pt x="541" y="443" on="0"/>
        <pt x="485" y="366" on="0"/>
      </contour>
      <contour>
        <pt x="173" y="391" on="1"/>
        <pt x="321" y="391" on="1"/>
        <pt x="398" y="392" on="0"/>
        <pt x="456" y="440" on="0"/>
        <pt x="456" y="508" on="1"/>
        <pt x="456" y="577" on="0"/>
        <pt x="393" y="623" on="0"/>
        <pt x="307" y="623" on="1"/>
        <pt x="173" y="623" on="1"/>
      </contour>
      <contour>
        <pt x="173" y="324" on="1"/>
        <pt x="173" y="68" on="1"/>
        <pt x="214" y="67" on="0"/>
        <pt x="328" y="67" on="1"/>
        <pt x="412" y="67" on="0"/>
        <pt x="473" y="115" on="0"/>
        <pt x="473" y="187" on="1"/>
        <pt x="473" y="266" on="0"/>
        <pt x="408" y="322" on="0"/>
        <pt x="322" y="324" on="1"/>
      </contour>
    </TTGlyph>
    <TTGlyph name="C" xMin="61" yMin="-12" xMax="534" yMax="702">
      <contour>
        <pt x="525" y="77" on="1"/>
        <pt x="534" y="11" on="1"/>
        <pt x="451" y="-12" on="0"/>
        <pt x="332" y="-12" on="1"/>
        <pt x="183" y="-12" on="0"/>
        <pt x="61" y="148" on="0"/>
        <pt x="61" y="542" on="0"/>
        <pt x="183" y="702" on="0"/>
        <pt x="332" y="702" on="1"/>
        <pt x="439" y="702" on="0"/>
        <pt x="520" y="682" on="1"/>
        <pt x="511" y="615" on="1"/>
        <pt x="421" y="624" on="0"/>
        <pt x="332" y="624" on="1"/>
        <pt x="231" y="624" on="0"/>
        <pt x="154" y="503" on="0"/>
        <pt x="154" y="187" on="0"/>
        <pt x="231" y="66" on="0"/>
        <pt x="332" y="66" on="1"/>
        <pt x="448" y="66" on="0"/>
      </contour>
    </TTGlyph>
    <TTGlyph name="Cacute" xMin="61" yMin="-12" xMax="534" yMax="914">
      <contour>
        <pt x="476" y="848" on="1"/>
        <pt x="284" y="728" on="1"/>
        <pt x="255" y="767" on="1"/>
        <pt x="427" y="914" on="1"/>
      </contour>
      <contour>
        <pt x="525" y="77" on="1"/>
        <pt x="534" y="11" on="1"/>
        <pt x="451" y="-12" on="0"/>
        <pt x="332" y="-12" on="1"/>
        <pt x="183" y="-12" on="0"/>
        <pt x="61" y="148" on="0"/>
        <pt x="61" y="542" on="0"/>
        <pt x="183" y="702" on="0"/>
        <pt x="332" y="702" on="1"/>
        <pt x="439" y="702" on="0"/>
        <pt x="520" y="682" on="1"/>
        <pt x="511" y="615" on="1"/>
        <pt x="421" y="624" on="0"/>
        <pt x="332" y="624" on="1"/>
        <pt x="231" y="624" on="0"/>
        <pt x="154" y="503" on="0"/>
        <pt x="154" y="187" on="0"/>
        <pt x="231" y="66" on="0"/>
        <pt x="332" y="66" on="1"/>
        <pt x="448" y="66" on="0"/>
      </contour>
    </TTGlyph>
    <TTGlyph name="Ccaron" xMin="61" yMin="-12" xMax="534" yMax="908">
      <contour>
        <pt x="485" y="871" on="1"/>
        <pt x="341" y="744" on="1"/>
        <pt x="302" y="744" on="1"/>
        <pt x="159" y="871" on="1"/>
        <pt x="188" y="908" on="1"/>
        <pt x="317" y="821" on="1"/>
        <pt x="325" y="821" on="1"/>
        <pt x="455" y="908" on="1"/>
      </contour>
      <contour>
        <pt x="525" y="77" on="1"/>
        <pt x="534" y="11" on="1"/>
        <pt x="451" y="-12" on="0"/>
        <pt x="332" y="-12" on="1"/>
        <pt x="183" y="-12" on="0"/>
        <pt x="61" y="148" on="0"/>
        <pt x="61" y="542" on="0"/>
        <pt x="183" y="702" on="0"/>
        <pt x="332" y="702" on="1"/>
        <pt x="439" y="702" on="0"/>
        <pt x="520" y="682" on="1"/>
        <pt x="511" y="615" on="1"/>
        <pt x="421" y="624" on="0"/>
        <pt x="332" y="624" on="1"/>
        <pt x="231" y="624" on="0"/>
        <pt x="154" y="503" on="0"/>
        <pt x="154" y="187" on="0"/>
        <pt x="231" y="66" on="0"/>
        <pt x="332" y="66" on="1"/>
        <pt x="448" y="66" on="0"/>
      </contour>
    </TTGlyph>
    <TTGlyph name="Ccedilla" xMin="61" yMin="-241" xMax="534" yMax="702">
      <contour>
        <pt x="525" y="77" on="1"/>
        <pt x="534" y="11" on="1"/>
        <pt x="451" y="-12" on="0"/>
        <pt x="332" y="-12" on="1"/>
        <pt x="183" y="-12" on="0"/>
        <pt x="61" y="148" on="0"/>
        <pt x="61" y="542" on="0"/>
        <pt x="183" y="702" on="0"/>
        <pt x="332" y="702" on="1"/>
        <pt x="439" y="702" on="0"/>
        <pt x="520" y="682" on="1"/>
        <pt x="511" y="615" on="1"/>
        <pt x="421" y="624" on="0"/>
        <pt x="332" y="624" on="1"/>
        <pt x="231" y="624" on="0"/>
        <pt x="154" y="503" on="0"/>
        <pt x="154" y="187" on="0"/>
        <pt x="231" y="66" on="0"/>
        <pt x="332" y="66" on="1"/>
        <pt x="448" y="66" on="0"/>
      </contour>
      <contour>
        <pt x="273" y="-95" on="1"/>
        <pt x="282" y="-55" on="1"/>
        <pt x="343" y="-49" on="0"/>
        <pt x="394" y="-77" on="0"/>
        <pt x="393" y="-120" on="1"/>
        <pt x="392" y="-183" on="0"/>
        <pt x="298" y="-251" on="0"/>
        <pt x="226" y="-241" on="1"/>
        <pt x="239" y="-196" on="1"/>
        <pt x="279" y="-197" on="0"/>
        <pt x="330" y="-158" on="0"/>
        <pt x="332" y="-127" on="1"/>
        <pt x="332" y="-109" on="0"/>
        <pt x="308" y="-96" on="0"/>
      </contour>
    </TTGlyph>
    <TTGlyph name="Cdotaccent" xMin="61" yMin="-12" xMax="534" yMax="867">
      <contour>
        <pt x="307" y="867" on="1"/>
        <pt x="334" y="867" on="1"/>
        <pt x="360" y="867" on="0"/>
        <pt x="360" y="841" on="1"/>
        <pt x="360" y="785" on="1"/>
        <pt x="360" y="759" on="0"/>
        <pt x="334" y="759" on="1"/>
        <pt x="307" y="759" on="1"/>
        <pt x="281" y="759" on="0"/>
        <pt x="281" y="785" on="1"/>
        <pt x="281" y="841" on="1"/>
        <pt x="281" y="867" on="0"/>
      </contour>
      <contour>
        <pt x="525" y="77" on="1"/>
        <pt x="534" y="11" on="1"/>
        <pt x="451" y="-12" on="0"/>
        <pt x="332" y="-12" on="1"/>
        <pt x="183" y="-12" on="0"/>
        <pt x="61" y="148" on="0"/>
        <pt x="61" y="542" on="0"/>
        <pt x="183" y="702" on="0"/>
        <pt x="332" y="702" on="1"/>
        <pt x="439" y="702" on="0"/>
        <pt x="520" y="682" on="1"/>
        <pt x="511" y="615" on="1"/>
        <pt x="421" y="624" on="0"/>
        <pt x="332" y="624" on="1"/>
        <pt x="231" y="624" on="0"/>
        <pt x="154" y="503" on="0"/>
        <pt x="154" y="187" on="0"/>
        <pt x="231" y="66" on="0"/>
        <pt x="332" y="66" on="1"/>
        <pt x="448" y="66" on="0"/>
      </contour>
    </TTGlyph>
    <TTGlyph name="D" xMin="87" yMin="-9" xMax="602" yMax="699">
      <contour>
        <pt x="87" y="0" on="1"/>
        <pt x="87" y="690" on="1"/>
        <pt x="217" y="699" on="0"/>
        <pt x="333" y="699" on="1"/>
        <pt x="482" y="699" on="0"/>
        <pt x="602" y="544" on="0"/>
        <pt x="602" y="146" on="0"/>
        <pt x="482" y="-9" on="0"/>
        <pt x="333" y="-9" on="1"/>
        <pt x="217" y="-9" on="0"/>
      </contour>
      <contour>
        <pt x="175" y="621" on="1"/>
        <pt x="175" y="70" on="1"/>
        <pt x="265" y="68" on="0"/>
        <pt x="333" y="68" on="1"/>
        <pt x="432" y="68" on="0"/>
        <pt x="510" y="189" on="0"/>
        <pt x="510" y="501" on="0"/>
        <pt x="432" y="623" on="0"/>
        <pt x="333" y="623" on="1"/>
        <pt x="269" y="623" on="0"/>
      </contour>
    </TTGlyph>
    <TTGlyph name="Dcaron" xMin="87" yMin="-9" xMax="602" yMax="908">
      <contour>
        <pt x="299" y="744" on="1"/>
        <pt x="156" y="871" on="1"/>
        <pt x="185" y="908" on="1"/>
        <pt x="315" y="821" on="1"/>
        <pt x="323" y="821" on="1"/>
        <pt x="452" y="908" on="1"/>
        <pt x="483" y="871" on="1"/>
        <pt x="339" y="744" on="1"/>
      </contour>
      <contour>
        <pt x="87" y="0" on="1"/>
        <pt x="87" y="690" on="1"/>
        <pt x="217" y="699" on="0"/>
        <pt x="333" y="699" on="1"/>
        <pt x="482" y="699" on="0"/>
        <pt x="602" y="544" on="0"/>
        <pt x="602" y="146" on="0"/>
        <pt x="482" y="-9" on="0"/>
        <pt x="333" y="-9" on="1"/>
        <pt x="217" y="-9" on="0"/>
      </contour>
      <contour>
        <pt x="175" y="621" on="1"/>
        <pt x="175" y="70" on="1"/>
        <pt x="265" y="68" on="0"/>
        <pt x="333" y="68" on="1"/>
        <pt x="432" y="68" on="0"/>
        <pt x="510" y="189" on="0"/>
        <pt x="510" y="501" on="0"/>
        <pt x="432" y="623" on="0"/>
        <pt x="333" y="623" on="1"/>
        <pt x="269" y="623" on="0"/>
      </contour>
    </TTGlyph>
    <TTGlyph name="Dcroat" xMin="22" yMin="-9" xMax="606" yMax="699">
      <contour>
        <pt x="91" y="391" on="1"/>
        <pt x="91" y="690" on="1"/>
        <pt x="221" y="699" on="0"/>
        <pt x="337" y="699" on="1"/>
        <pt x="486" y="699" on="0"/>
        <pt x="606" y="544" on="0"/>
        <pt x="606" y="146" on="0"/>
        <pt x="486" y="-9" on="0"/>
        <pt x="337" y="-9" on="1"/>
        <pt x="222" y="-9" on="0"/>
        <pt x="91" y="0" on="1"/>
        <pt x="91" y="342" on="1"/>
        <pt x="22" y="342" on="1"/>
        <pt x="22" y="391" on="1"/>
      </contour>
      <contour>
        <pt x="179" y="342" on="1"/>
        <pt x="179" y="70" on="1"/>
        <pt x="271" y="68" on="0"/>
        <pt x="337" y="68" on="1"/>
        <pt x="437" y="68" on="0"/>
        <pt x="514" y="188" on="0"/>
        <pt x="514" y="502" on="0"/>
        <pt x="437" y="623" on="0"/>
        <pt x="337" y="623" on="1"/>
        <pt x="273" y="623" on="0"/>
        <pt x="179" y="621" on="1"/>
        <pt x="179" y="391" on="1"/>
        <pt x="331" y="391" on="1"/>
        <pt x="331" y="342" on="1"/>
      </contour>
    </TTGlyph>
    <TTGlyph name="Delta" xMin="25" yMin="0" xMax="601" yMax="690">
      <contour>
        <pt x="601" y="37" on="1"/>
        <pt x="601" y="0" on="1"/>
        <pt x="25" y="0" on="1"/>
        <pt x="25" y="37" on="1"/>
        <pt x="269" y="690" on="1"/>
        <pt x="357" y="690" on="1"/>
      </contour>
      <contour>
        <pt x="498" y="72" on="1"/>
        <pt x="336" y="527" on="1"/>
        <pt x="332" y="538" on="0"/>
        <pt x="314" y="605" on="1"/>
        <pt x="294" y="538" on="0"/>
        <pt x="290" y="526" on="1"/>
        <pt x="126" y="72" on="1"/>
      </contour>
    </TTGlyph>
    <TTGlyph name="E" xMin="81" yMin="-1" xMax="510" yMax="691">
      <contour>
        <pt x="506" y="73" on="1"/>
        <pt x="510" y="5" on="1"/>
        <pt x="418" y="-1" on="0"/>
        <pt x="214" y="-1" on="1"/>
        <pt x="153" y="-1" on="0"/>
        <pt x="82" y="64" on="0"/>
        <pt x="81" y="119" on="1"/>
        <pt x="81" y="571" on="1"/>
        <pt x="82" y="626" on="0"/>
        <pt x="153" y="691" on="0"/>
        <pt x="214" y="691" on="1"/>
        <pt x="418" y="691" on="0"/>
        <pt x="510" y="685" on="1"/>
        <pt x="506" y="616" on="1"/>
        <pt x="229" y="616" on="1"/>
        <pt x="169" y="616" on="0"/>
        <pt x="169" y="550" on="1"/>
        <pt x="169" y="400" on="1"/>
        <pt x="467" y="400" on="1"/>
        <pt x="467" y="329" on="1"/>
        <pt x="169" y="329" on="1"/>
        <pt x="169" y="140" on="1"/>
        <pt x="169" y="73" on="0"/>
        <pt x="229" y="73" on="1"/>
      </contour>
    </TTGlyph>
    <TTGlyph name="Eacute" xMin="81" yMin="-1" xMax="510" yMax="934">
      <contour>
        <pt x="274" y="749" on="1"/>
        <pt x="244" y="788" on="1"/>
        <pt x="417" y="934" on="1"/>
        <pt x="465" y="869" on="1"/>
      </contour>
      <contour>
        <pt x="506" y="73" on="1"/>
        <pt x="510" y="5" on="1"/>
        <pt x="418" y="-1" on="0"/>
        <pt x="214" y="-1" on="1"/>
        <pt x="153" y="-1" on="0"/>
        <pt x="82" y="64" on="0"/>
        <pt x="81" y="119" on="1"/>
        <pt x="81" y="571" on="1"/>
        <pt x="82" y="626" on="0"/>
        <pt x="153" y="691" on="0"/>
        <pt x="214" y="691" on="1"/>
        <pt x="418" y="691" on="0"/>
        <pt x="510" y="685" on="1"/>
        <pt x="506" y="616" on="1"/>
        <pt x="229" y="616" on="1"/>
        <pt x="169" y="616" on="0"/>
        <pt x="169" y="550" on="1"/>
        <pt x="169" y="400" on="1"/>
        <pt x="467" y="400" on="1"/>
        <pt x="467" y="329" on="1"/>
        <pt x="169" y="329" on="1"/>
        <pt x="169" y="140" on="1"/>
        <pt x="169" y="73" on="0"/>
        <pt x="229" y="73" on="1"/>
      </contour>
    </TTGlyph>
    <TTGlyph name="Ecaron" xMin="81" yMin="-1" xMax="510" yMax="929">
      <contour>
        <pt x="291" y="765" on="1"/>
        <pt x="148" y="892" on="1"/>
        <pt x="177" y="929" on="1"/>
        <pt x="307" y="841" on="1"/>
        <pt x="315" y="841" on="1"/>
        <pt x="444" y="929" on="1"/>
        <pt x="474" y="892" on="1"/>
        <pt x="331" y="765" on="1"/>
      </contour>
      <contour>
        <pt x="506" y="73" on="1"/>
        <pt x="510" y="5" on="1"/>
        <pt x="418" y="-1" on="0"/>
        <pt x="214" y="-1" on="1"/>
        <pt x="153" y="-1" on="0"/>
        <pt x="82" y="64" on="0"/>
        <pt x="81" y="119" on="1"/>
        <pt x="81" y="571" on="1"/>
        <pt x="82" y="626" on="0"/>
        <pt x="153" y="691" on="0"/>
        <pt x="214" y="691" on="1"/>
        <pt x="418" y="691" on="0"/>
        <pt x="510" y="685" on="1"/>
        <pt x="506" y="616" on="1"/>
        <pt x="229" y="616" on="1"/>
        <pt x="169" y="616" on="0"/>
        <pt x="169" y="550" on="1"/>
        <pt x="169" y="400" on="1"/>
        <pt x="467" y="400" on="1"/>
        <pt x="467" y="329" on="1"/>
        <pt x="169" y="329" on="1"/>
        <pt x="169" y="140" on="1"/>
        <pt x="169" y="73" on="0"/>
        <pt x="229" y="73" on="1"/>
      </contour>
    </TTGlyph>
    <TTGlyph name="Ecircumflex" xMin="81" yMin="-1" xMax="510" yMax="917">
      <contour>
        <pt x="176" y="753" on="1"/>
        <pt x="147" y="790" on="1"/>
        <pt x="279" y="917" on="1"/>
        <pt x="340" y="917" on="1"/>
        <pt x="473" y="790" on="1"/>
        <pt x="443" y="753" on="1"/>
        <pt x="314" y="851" on="1"/>
        <pt x="306" y="851" on="1"/>
      </contour>
      <contour>
        <pt x="506" y="73" on="1"/>
        <pt x="510" y="5" on="1"/>
        <pt x="418" y="-1" on="0"/>
        <pt x="214" y="-1" on="1"/>
        <pt x="153" y="-1" on="0"/>
        <pt x="82" y="64" on="0"/>
        <pt x="81" y="119" on="1"/>
        <pt x="81" y="571" on="1"/>
        <pt x="82" y="626" on="0"/>
        <pt x="153" y="691" on="0"/>
        <pt x="214" y="691" on="1"/>
        <pt x="418" y="691" on="0"/>
        <pt x="510" y="685" on="1"/>
        <pt x="506" y="616" on="1"/>
        <pt x="229" y="616" on="1"/>
        <pt x="169" y="616" on="0"/>
        <pt x="169" y="550" on="1"/>
        <pt x="169" y="400" on="1"/>
        <pt x="467" y="400" on="1"/>
        <pt x="467" y="329" on="1"/>
        <pt x="169" y="329" on="1"/>
        <pt x="169" y="140" on="1"/>
        <pt x="169" y="73" on="0"/>
        <pt x="229" y="73" on="1"/>
      </contour>
    </TTGlyph>
    <TTGlyph name="Edieresis" xMin="81" yMin="-1" xMax="510" yMax="890">
      <contour>
        <pt x="236" y="788" on="1"/>
        <pt x="207" y="788" on="1"/>
        <pt x="183" y="788" on="0"/>
        <pt x="183" y="812" on="1"/>
        <pt x="183" y="866" on="1"/>
        <pt x="183" y="890" on="0"/>
        <pt x="207" y="890" on="1"/>
        <pt x="236" y="890" on="1"/>
        <pt x="259" y="890" on="0"/>
        <pt x="259" y="866" on="1"/>
        <pt x="259" y="812" on="1"/>
        <pt x="259" y="788" on="0"/>
      </contour>
      <contour>
        <pt x="413" y="788" on="1"/>
        <pt x="384" y="788" on="1"/>
        <pt x="360" y="788" on="0"/>
        <pt x="360" y="812" on="1"/>
        <pt x="360" y="866" on="1"/>
        <pt x="360" y="890" on="0"/>
        <pt x="384" y="890" on="1"/>
        <pt x="413" y="890" on="1"/>
        <pt x="436" y="890" on="0"/>
        <pt x="436" y="866" on="1"/>
        <pt x="436" y="812" on="1"/>
        <pt x="436" y="788" on="0"/>
      </contour>
      <contour>
        <pt x="506" y="73" on="1"/>
        <pt x="510" y="5" on="1"/>
        <pt x="418" y="-1" on="0"/>
        <pt x="214" y="-1" on="1"/>
        <pt x="153" y="-1" on="0"/>
        <pt x="82" y="64" on="0"/>
        <pt x="81" y="119" on="1"/>
        <pt x="81" y="571" on="1"/>
        <pt x="82" y="626" on="0"/>
        <pt x="153" y="691" on="0"/>
        <pt x="214" y="691" on="1"/>
        <pt x="418" y="691" on="0"/>
        <pt x="510" y="685" on="1"/>
        <pt x="506" y="616" on="1"/>
        <pt x="229" y="616" on="1"/>
        <pt x="169" y="616" on="0"/>
        <pt x="169" y="550" on="1"/>
        <pt x="169" y="400" on="1"/>
        <pt x="467" y="400" on="1"/>
        <pt x="467" y="329" on="1"/>
        <pt x="169" y="329" on="1"/>
        <pt x="169" y="140" on="1"/>
        <pt x="169" y="73" on="0"/>
        <pt x="229" y="73" on="1"/>
      </contour>
    </TTGlyph>
    <TTGlyph name="Edotaccent" xMin="81" yMin="-1" xMax="510" yMax="888">
      <contour>
        <pt x="324" y="779" on="1"/>
        <pt x="296" y="779" on="1"/>
        <pt x="270" y="779" on="0"/>
        <pt x="270" y="805" on="1"/>
        <pt x="270" y="862" on="1"/>
        <pt x="270" y="888" on="0"/>
        <pt x="296" y="888" on="1"/>
        <pt x="324" y="888" on="1"/>
        <pt x="350" y="888" on="0"/>
        <pt x="350" y="862" on="1"/>
        <pt x="350" y="805" on="1"/>
        <pt x="350" y="779" on="0"/>
      </contour>
      <contour>
        <pt x="506" y="73" on="1"/>
        <pt x="510" y="5" on="1"/>
        <pt x="418" y="-1" on="0"/>
        <pt x="214" y="-1" on="1"/>
        <pt x="153" y="-1" on="0"/>
        <pt x="82" y="64" on="0"/>
        <pt x="81" y="119" on="1"/>
        <pt x="81" y="571" on="1"/>
        <pt x="82" y="626" on="0"/>
        <pt x="153" y="691" on="0"/>
        <pt x="214" y="691" on="1"/>
        <pt x="418" y="691" on="0"/>
        <pt x="510" y="685" on="1"/>
        <pt x="506" y="616" on="1"/>
        <pt x="229" y="616" on="1"/>
        <pt x="169" y="616" on="0"/>
        <pt x="169" y="550" on="1"/>
        <pt x="169" y="400" on="1"/>
        <pt x="467" y="400" on="1"/>
        <pt x="467" y="329" on="1"/>
        <pt x="169" y="329" on="1"/>
        <pt x="169" y="140" on="1"/>
        <pt x="169" y="73" on="0"/>
        <pt x="229" y="73" on="1"/>
      </contour>
    </TTGlyph>
    <TTGlyph name="Egrave" xMin="81" yMin="-1" xMax="510" yMax="934">
      <contour>
        <pt x="330" y="749" on="1"/>
        <pt x="139" y="869" on="1"/>
        <pt x="187" y="934" on="1"/>
        <pt x="360" y="788" on="1"/>
      </contour>
      <contour>
        <pt x="506" y="73" on="1"/>
        <pt x="510" y="5" on="1"/>
        <pt x="418" y="-1" on="0"/>
        <pt x="214" y="-1" on="1"/>
        <pt x="153" y="-1" on="0"/>
        <pt x="82" y="64" on="0"/>
        <pt x="81" y="119" on="1"/>
        <pt x="81" y="571" on="1"/>
        <pt x="82" y="626" on="0"/>
        <pt x="153" y="691" on="0"/>
        <pt x="214" y="691" on="1"/>
        <pt x="418" y="691" on="0"/>
        <pt x="510" y="685" on="1"/>
        <pt x="506" y="616" on="1"/>
        <pt x="229" y="616" on="1"/>
        <pt x="169" y="616" on="0"/>
        <pt x="169" y="550" on="1"/>
        <pt x="169" y="400" on="1"/>
        <pt x="467" y="400" on="1"/>
        <pt x="467" y="329" on="1"/>
        <pt x="169" y="329" on="1"/>
        <pt x="169" y="140" on="1"/>
        <pt x="169" y="73" on="0"/>
        <pt x="229" y="73" on="1"/>
      </contour>
    </TTGlyph>
    <TTGlyph name="Emacron" xMin="81" yMin="-1" xMax="510" yMax="870">
      <contour>
        <pt x="449" y="806" on="1"/>
        <pt x="171" y="806" on="1"/>
        <pt x="171" y="870" on="1"/>
        <pt x="449" y="870" on="1"/>
      </contour>
      <contour>
        <pt x="506" y="73" on="1"/>
        <pt x="510" y="5" on="1"/>
        <pt x="418" y="-1" on="0"/>
        <pt x="214" y="-1" on="1"/>
        <pt x="153" y="-1" on="0"/>
        <pt x="82" y="64" on="0"/>
        <pt x="81" y="119" on="1"/>
        <pt x="81" y="571" on="1"/>
        <pt x="82" y="626" on="0"/>
        <pt x="153" y="691" on="0"/>
        <pt x="214" y="691" on="1"/>
        <pt x="418" y="691" on="0"/>
        <pt x="510" y="685" on="1"/>
        <pt x="506" y="616" on="1"/>
        <pt x="229" y="616" on="1"/>
        <pt x="169" y="616" on="0"/>
        <pt x="169" y="550" on="1"/>
        <pt x="169" y="400" on="1"/>
        <pt x="467" y="400" on="1"/>
        <pt x="467" y="329" on="1"/>
        <pt x="169" y="329" on="1"/>
        <pt x="169" y="140" on="1"/>
        <pt x="169" y="73" on="0"/>
        <pt x="229" y="73" on="1"/>
      </contour>
    </TTGlyph>
    <TTGlyph name="Eng" xMin="87" yMin="-216" xMax="618" yMax="690">
      <contour>
        <pt x="618" y="690" on="1"/>
        <pt x="618" y="-79" on="1"/>
        <pt x="618" y="-145" on="0"/>
        <pt x="546" y="-217" on="0"/>
        <pt x="483" y="-216" on="1"/>
        <pt x="431" y="-216" on="0"/>
        <pt x="395" y="-204" on="1"/>
        <pt x="404" y="-148" on="1"/>
        <pt x="453" y="-148" on="1"/>
        <pt x="535" y="-148" on="0"/>
        <pt x="535" y="-72" on="1"/>
        <pt x="535" y="0" on="1"/>
        <pt x="500" y="0" on="1"/>
        <pt x="486" y="0" on="0"/>
        <pt x="474" y="25" on="1"/>
        <pt x="226" y="502" on="1"/>
        <pt x="208" y="537" on="0"/>
        <pt x="185" y="594" on="1"/>
        <pt x="171" y="594" on="1"/>
        <pt x="175" y="563" on="0"/>
        <pt x="175" y="501" on="1"/>
        <pt x="175" y="0" on="1"/>
        <pt x="87" y="0" on="1"/>
        <pt x="87" y="655" on="1"/>
        <pt x="87" y="690" on="0"/>
        <pt x="122" y="690" on="1"/>
        <pt x="189" y="690" on="1"/>
        <pt x="214" y="690" on="0"/>
        <pt x="229" y="662" on="1"/>
        <pt x="470" y="200" on="1"/>
        <pt x="489" y="163" on="0"/>
        <pt x="517" y="100" on="1"/>
        <pt x="534" y="100" on="1"/>
        <pt x="530" y="168" on="0"/>
        <pt x="530" y="202" on="1"/>
        <pt x="530" y="690" on="1"/>
      </contour>
    </TTGlyph>
    <TTGlyph name="Eogonek" xMin="81" yMin="-196" xMax="524" yMax="691">
      <contour>
        <pt x="514" y="-152" on="1"/>
        <pt x="524" y="-188" on="1"/>
        <pt x="432" y="-222" on="0"/>
        <pt x="355" y="-169" on="0"/>
        <pt x="376" y="-112" on="1"/>
        <pt x="396" y="-54" on="0"/>
        <pt x="466" y="3" on="1"/>
        <pt x="385" y="-1" on="0"/>
        <pt x="214" y="-1" on="1"/>
        <pt x="153" y="-1" on="0"/>
        <pt x="82" y="64" on="0"/>
        <pt x="81" y="119" on="1"/>
        <pt x="81" y="571" on="1"/>
        <pt x="82" y="626" on="0"/>
        <pt x="153" y="691" on="0"/>
        <pt x="214" y="691" on="1"/>
        <pt x="418" y="691" on="0"/>
        <pt x="510" y="685" on="1"/>
        <pt x="506" y="616" on="1"/>
        <pt x="229" y="616" on="1"/>
        <pt x="169" y="616" on="0"/>
        <pt x="169" y="550" on="1"/>
        <pt x="169" y="400" on="1"/>
        <pt x="467" y="400" on="1"/>
        <pt x="467" y="329" on="1"/>
        <pt x="169" y="329" on="1"/>
        <pt x="169" y="140" on="1"/>
        <pt x="169" y="73" on="0"/>
        <pt x="229" y="73" on="1"/>
        <pt x="506" y="73" on="1"/>
        <pt x="510" y="5" on="1"/>
        <pt x="456" y="-54" on="0"/>
        <pt x="436" y="-108" on="1"/>
        <pt x="421" y="-145" on="0"/>
        <pt x="466" y="-168" on="0"/>
      </contour>
    </TTGlyph>
    <TTGlyph name="Eth" xMin="22" yMin="-9" xMax="606" yMax="699">
      <contour>
        <pt x="91" y="391" on="1"/>
        <pt x="91" y="690" on="1"/>
        <pt x="221" y="699" on="0"/>
        <pt x="337" y="699" on="1"/>
        <pt x="486" y="699" on="0"/>
        <pt x="606" y="544" on="0"/>
        <pt x="606" y="146" on="0"/>
        <pt x="486" y="-9" on="0"/>
        <pt x="337" y="-9" on="1"/>
        <pt x="222" y="-9" on="0"/>
        <pt x="91" y="0" on="1"/>
        <pt x="91" y="342" on="1"/>
        <pt x="22" y="342" on="1"/>
        <pt x="22" y="391" on="1"/>
      </contour>
      <contour>
        <pt x="179" y="342" on="1"/>
        <pt x="179" y="70" on="1"/>
        <pt x="271" y="68" on="0"/>
        <pt x="337" y="68" on="1"/>
        <pt x="437" y="68" on="0"/>
        <pt x="514" y="188" on="0"/>
        <pt x="514" y="502" on="0"/>
        <pt x="437" y="623" on="0"/>
        <pt x="337" y="623" on="1"/>
        <pt x="273" y="623" on="0"/>
        <pt x="179" y="621" on="1"/>
        <pt x="179" y="391" on="1"/>
        <pt x="331" y="391" on="1"/>
        <pt x="331" y="342" on="1"/>
      </contour>
    </TTGlyph>
    <TTGlyph name="Euro" xMin="53" yMin="-12" xMax="587" yMax="702">
      <contour>
        <pt x="578" y="79" on="1"/>
        <pt x="587" y="11" on="1"/>
        <pt x="510" y="-12" on="0"/>
        <pt x="410" y="-12" on="1"/>
        <pt x="279" y="-12" on="0"/>
        <pt x="151" y="122" on="0"/>
        <pt x="138" y="261" on="1"/>
        <pt x="53" y="261" on="1"/>
        <pt x="53" y="314" on="1"/>
        <pt x="135" y="314" on="1"/>
        <pt x="135" y="345" on="1"/>
        <pt x="135" y="377" on="0"/>
        <pt x="136" y="392" on="1"/>
        <pt x="53" y="392" on="1"/>
        <pt x="53" y="445" on="1"/>
        <pt x="140" y="445" on="1"/>
        <pt x="155" y="575" on="0"/>
        <pt x="282" y="702" on="0"/>
        <pt x="410" y="702" on="1"/>
        <pt x="504" y="702" on="0"/>
        <pt x="576" y="682" on="1"/>
        <pt x="566" y="614" on="1"/>
        <pt x="490" y="627" on="0"/>
        <pt x="405" y="623" on="1"/>
        <pt x="327" y="620" on="0"/>
        <pt x="245" y="534" on="0"/>
        <pt x="232" y="445" on="1"/>
        <pt x="487" y="445" on="1"/>
        <pt x="480" y="392" on="1"/>
        <pt x="227" y="392" on="1"/>
        <pt x="227" y="384" on="0"/>
        <pt x="226" y="352" on="0"/>
        <pt x="226" y="344" on="1"/>
        <pt x="227" y="314" on="1"/>
        <pt x="447" y="314" on="1"/>
        <pt x="440" y="261" on="1"/>
        <pt x="230" y="261" on="1"/>
        <pt x="241" y="163" on="0"/>
        <pt x="323" y="69" on="0"/>
        <pt x="405" y="67" on="1"/>
        <pt x="501" y="64" on="0"/>
      </contour>
    </TTGlyph>
    <TTGlyph name="F" xMin="85" yMin="0" xMax="504" yMax="691">
      <contour>
        <pt x="499" y="616" on="1"/>
        <pt x="240" y="616" on="1"/>
        <pt x="205" y="616" on="0"/>
        <pt x="173" y="585" on="0"/>
        <pt x="173" y="550" on="1"/>
        <pt x="173" y="390" on="1"/>
        <pt x="461" y="390" on="1"/>
        <pt x="461" y="319" on="1"/>
        <pt x="173" y="319" on="1"/>
        <pt x="173" y="0" on="1"/>
        <pt x="85" y="0" on="1"/>
        <pt x="85" y="567" on="1"/>
        <pt x="85" y="626" on="0"/>
        <pt x="157" y="691" on="0"/>
        <pt x="218" y="691" on="1"/>
        <pt x="415" y="691" on="0"/>
        <pt x="504" y="684" on="1"/>
      </contour>
    </TTGlyph>
    <TTGlyph name="G" xMin="62" yMin="-13" xMax="560" yMax="703">
      <contour>
        <pt x="496" y="0" on="1"/>
        <pt x="486" y="73" on="1"/>
        <pt x="398" y="-13" on="0"/>
        <pt x="280" y="-13" on="1"/>
        <pt x="165" y="-13" on="0"/>
        <pt x="62" y="159" on="0"/>
        <pt x="62" y="347" on="1"/>
        <pt x="62" y="550" on="0"/>
        <pt x="188" y="703" on="0"/>
        <pt x="350" y="703" on="1"/>
        <pt x="459" y="703" on="0"/>
        <pt x="542" y="682" on="1"/>
        <pt x="533" y="616" on="1"/>
        <pt x="449" y="624" on="0"/>
        <pt x="355" y="624" on="1"/>
        <pt x="276" y="624" on="0"/>
        <pt x="195" y="583" on="0"/>
        <pt x="155" y="461" on="0"/>
        <pt x="155" y="341" on="1"/>
        <pt x="155" y="188" on="0"/>
        <pt x="221" y="64" on="0"/>
        <pt x="304" y="64" on="1"/>
        <pt x="382" y="64" on="0"/>
        <pt x="474" y="131" on="1"/>
        <pt x="474" y="399" on="1"/>
        <pt x="560" y="399" on="1"/>
        <pt x="560" y="0" on="1"/>
      </contour>
    </TTGlyph>
    <TTGlyph name="Gbreve" xMin="62" yMin="-13" xMax="560" yMax="884">
      <contour>
        <pt x="433" y="884" on="1"/>
        <pt x="477" y="877" on="1"/>
        <pt x="481" y="818" on="0"/>
        <pt x="400" y="746" on="0"/>
        <pt x="256" y="746" on="0"/>
        <pt x="173" y="818" on="0"/>
        <pt x="177" y="877" on="1"/>
        <pt x="221" y="884" on="1"/>
        <pt x="221" y="848" on="0"/>
        <pt x="276" y="809" on="0"/>
        <pt x="328" y="809" on="1"/>
        <pt x="378" y="809" on="0"/>
        <pt x="433" y="848" on="0"/>
      </contour>
      <contour>
        <pt x="496" y="0" on="1"/>
        <pt x="486" y="73" on="1"/>
        <pt x="398" y="-13" on="0"/>
        <pt x="280" y="-13" on="1"/>
        <pt x="165" y="-13" on="0"/>
        <pt x="62" y="159" on="0"/>
        <pt x="62" y="347" on="1"/>
        <pt x="62" y="550" on="0"/>
        <pt x="188" y="703" on="0"/>
        <pt x="350" y="703" on="1"/>
        <pt x="459" y="703" on="0"/>
        <pt x="542" y="682" on="1"/>
        <pt x="533" y="616" on="1"/>
        <pt x="449" y="624" on="0"/>
        <pt x="355" y="624" on="1"/>
        <pt x="276" y="624" on="0"/>
        <pt x="195" y="583" on="0"/>
        <pt x="155" y="461" on="0"/>
        <pt x="155" y="341" on="1"/>
        <pt x="155" y="188" on="0"/>
        <pt x="221" y="64" on="0"/>
        <pt x="304" y="64" on="1"/>
        <pt x="382" y="64" on="0"/>
        <pt x="474" y="131" on="1"/>
        <pt x="474" y="399" on="1"/>
        <pt x="560" y="399" on="1"/>
        <pt x="560" y="0" on="1"/>
      </contour>
    </TTGlyph>
    <TTGlyph name="Gcommaaccent" xMin="62" yMin="-273" xMax="560" yMax="703">
      <contour>
        <pt x="496" y="0" on="1"/>
        <pt x="486" y="73" on="1"/>
        <pt x="398" y="-13" on="0"/>
        <pt x="280" y="-13" on="1"/>
        <pt x="165" y="-13" on="0"/>
        <pt x="62" y="159" on="0"/>
        <pt x="62" y="347" on="1"/>
        <pt x="62" y="550" on="0"/>
        <pt x="188" y="703" on="0"/>
        <pt x="350" y="703" on="1"/>
        <pt x="459" y="703" on="0"/>
        <pt x="542" y="682" on="1"/>
        <pt x="533" y="616" on="1"/>
        <pt x="449" y="624" on="0"/>
        <pt x="355" y="624" on="1"/>
        <pt x="276" y="624" on="0"/>
        <pt x="195" y="583" on="0"/>
        <pt x="155" y="461" on="0"/>
        <pt x="155" y="341" on="1"/>
        <pt x="155" y="188" on="0"/>
        <pt x="221" y="64" on="0"/>
        <pt x="304" y="64" on="1"/>
        <pt x="382" y="64" on="0"/>
        <pt x="474" y="131" on="1"/>
        <pt x="474" y="399" on="1"/>
        <pt x="560" y="399" on="1"/>
        <pt x="560" y="0" on="1"/>
      </contour>
      <contour>
        <pt x="314" y="-58" on="1"/>
        <pt x="337" y="-58" on="1"/>
        <pt x="353" y="-58" on="0"/>
        <pt x="365" y="-71" on="0"/>
        <pt x="365" y="-86" on="1"/>
        <pt x="365" y="-141" on="1"/>
        <pt x="364" y="-213" on="0"/>
        <pt x="333" y="-273" on="1"/>
        <pt x="297" y="-263" on="1"/>
        <pt x="306" y="-211" on="0"/>
        <pt x="306" y="-160" on="1"/>
        <pt x="284" y="-160" on="0"/>
        <pt x="284" y="-136" on="1"/>
        <pt x="284" y="-86" on="1"/>
        <pt x="285" y="-58" on="0"/>
      </contour>
    </TTGlyph>
    <TTGlyph name="Gdotaccent" xMin="62" yMin="-13" xMax="560" yMax="867">
      <contour>
        <pt x="341" y="759" on="1"/>
        <pt x="314" y="759" on="1"/>
        <pt x="288" y="759" on="0"/>
        <pt x="288" y="785" on="1"/>
        <pt x="288" y="841" on="1"/>
        <pt x="288" y="867" on="0"/>
        <pt x="314" y="867" on="1"/>
        <pt x="341" y="867" on="1"/>
        <pt x="367" y="867" on="0"/>
        <pt x="367" y="841" on="1"/>
        <pt x="367" y="785" on="1"/>
        <pt x="367" y="759" on="0"/>
      </contour>
      <contour>
        <pt x="496" y="0" on="1"/>
        <pt x="486" y="73" on="1"/>
        <pt x="398" y="-13" on="0"/>
        <pt x="280" y="-13" on="1"/>
        <pt x="165" y="-13" on="0"/>
        <pt x="62" y="159" on="0"/>
        <pt x="62" y="347" on="1"/>
        <pt x="62" y="550" on="0"/>
        <pt x="188" y="703" on="0"/>
        <pt x="350" y="703" on="1"/>
        <pt x="459" y="703" on="0"/>
        <pt x="542" y="682" on="1"/>
        <pt x="533" y="616" on="1"/>
        <pt x="449" y="624" on="0"/>
        <pt x="355" y="624" on="1"/>
        <pt x="276" y="624" on="0"/>
        <pt x="195" y="583" on="0"/>
        <pt x="155" y="461" on="0"/>
        <pt x="155" y="341" on="1"/>
        <pt x="155" y="188" on="0"/>
        <pt x="221" y="64" on="0"/>
        <pt x="304" y="64" on="1"/>
        <pt x="382" y="64" on="0"/>
        <pt x="474" y="131" on="1"/>
        <pt x="474" y="399" on="1"/>
        <pt x="560" y="399" on="1"/>
        <pt x="560" y="0" on="1"/>
      </contour>
    </TTGlyph>
    <TTGlyph name="H" xMin="87" yMin="0" xMax="581" yMax="690">
      <contour>
        <pt x="581" y="690" on="1"/>
        <pt x="581" y="0" on="1"/>
        <pt x="493" y="0" on="1"/>
        <pt x="493" y="331" on="1"/>
        <pt x="175" y="331" on="1"/>
        <pt x="175" y="0" on="1"/>
        <pt x="87" y="0" on="1"/>
        <pt x="87" y="690" on="1"/>
        <pt x="175" y="690" on="1"/>
        <pt x="175" y="407" on="1"/>
        <pt x="493" y="407" on="1"/>
        <pt x="493" y="690" on="1"/>
      </contour>
    </TTGlyph>
    <TTGlyph name="Hbar" xMin="20" yMin="0" xMax="655" yMax="690">
      <contour>
        <pt x="655" y="519" on="1"/>
        <pt x="585" y="519" on="1"/>
        <pt x="585" y="0" on="1"/>
        <pt x="497" y="0" on="1"/>
        <pt x="497" y="331" on="1"/>
        <pt x="179" y="331" on="1"/>
        <pt x="179" y="0" on="1"/>
        <pt x="91" y="0" on="1"/>
        <pt x="91" y="519" on="1"/>
        <pt x="20" y="519" on="1"/>
        <pt x="20" y="566" on="1"/>
        <pt x="91" y="566" on="1"/>
        <pt x="91" y="690" on="1"/>
        <pt x="179" y="690" on="1"/>
        <pt x="179" y="566" on="1"/>
        <pt x="497" y="566" on="1"/>
        <pt x="497" y="690" on="1"/>
        <pt x="585" y="690" on="1"/>
        <pt x="585" y="566" on="1"/>
        <pt x="655" y="566" on="1"/>
      </contour>
      <contour>
        <pt x="497" y="519" on="1"/>
        <pt x="179" y="519" on="1"/>
        <pt x="179" y="407" on="1"/>
        <pt x="497" y="407" on="1"/>
      </contour>
    </TTGlyph>
    <TTGlyph name="I" xMin="87" yMin="0" xMax="175" yMax="690">
      <contour>
        <pt x="175" y="0" on="1"/>
        <pt x="87" y="0" on="1"/>
        <pt x="87" y="690" on="1"/>
        <pt x="175" y="690" on="1"/>
      </contour>
    </TTGlyph>
    <TTGlyph name="IJ" xMin="87" yMin="-9" xMax="518" yMax="690">
      <contour>
        <pt x="175" y="0" on="1"/>
        <pt x="87" y="0" on="1"/>
        <pt x="87" y="690" on="1"/>
        <pt x="175" y="690" on="1"/>
      </contour>
      <contour>
        <pt x="518" y="690" on="1"/>
        <pt x="518" y="145" on="1"/>
        <pt x="518" y="70" on="0"/>
        <pt x="449" y="-9" on="0"/>
        <pt x="384" y="-9" on="1"/>
        <pt x="328" y="-9" on="0"/>
        <pt x="292" y="4" on="1"/>
        <pt x="301" y="66" on="1"/>
        <pt x="351" y="66" on="1"/>
        <pt x="430" y="66" on="0"/>
        <pt x="430" y="142" on="1"/>
        <pt x="430" y="690" on="1"/>
      </contour>
    </TTGlyph>
    <TTGlyph name="Iacute" xMin="66" yMin="0" xMax="287" yMax="914">
      <contour>
        <pt x="287" y="848" on="1"/>
        <pt x="95" y="728" on="1"/>
        <pt x="66" y="767" on="1"/>
        <pt x="238" y="914" on="1"/>
      </contour>
      <contour>
        <pt x="175" y="0" on="1"/>
        <pt x="87" y="0" on="1"/>
        <pt x="87" y="690" on="1"/>
        <pt x="175" y="690" on="1"/>
      </contour>
    </TTGlyph>
    <TTGlyph name="Icircumflex" xMin="-32" yMin="0" xMax="294" yMax="896">
      <contour>
        <pt x="294" y="769" on="1"/>
        <pt x="264" y="732" on="1"/>
        <pt x="135" y="830" on="1"/>
        <pt x="127" y="830" on="1"/>
        <pt x="-3" y="732" on="1"/>
        <pt x="-32" y="769" on="1"/>
        <pt x="100" y="896" on="1"/>
        <pt x="161" y="896" on="1"/>
      </contour>
      <contour>
        <pt x="175" y="0" on="1"/>
        <pt x="87" y="0" on="1"/>
        <pt x="87" y="690" on="1"/>
        <pt x="175" y="690" on="1"/>
      </contour>
    </TTGlyph>
    <TTGlyph name="Idieresis" xMin="4" yMin="0" xMax="257" yMax="870">
      <contour>
        <pt x="28" y="870" on="1"/>
        <pt x="57" y="870" on="1"/>
        <pt x="80" y="870" on="0"/>
        <pt x="80" y="846" on="1"/>
        <pt x="80" y="791" on="1"/>
        <pt x="80" y="767" on="0"/>
        <pt x="57" y="767" on="1"/>
        <pt x="28" y="767" on="1"/>
        <pt x="4" y="767" on="0"/>
        <pt x="4" y="791" on="1"/>
        <pt x="4" y="846" on="1"/>
        <pt x="4" y="870" on="0"/>
      </contour>
      <contour>
        <pt x="205" y="870" on="1"/>
        <pt x="234" y="870" on="1"/>
        <pt x="257" y="870" on="0"/>
        <pt x="257" y="846" on="1"/>
        <pt x="257" y="791" on="1"/>
        <pt x="257" y="767" on="0"/>
        <pt x="234" y="767" on="1"/>
        <pt x="205" y="767" on="1"/>
        <pt x="181" y="767" on="0"/>
        <pt x="181" y="791" on="1"/>
        <pt x="181" y="846" on="1"/>
        <pt x="181" y="870" on="0"/>
      </contour>
      <contour>
        <pt x="175" y="0" on="1"/>
        <pt x="87" y="0" on="1"/>
        <pt x="87" y="690" on="1"/>
        <pt x="175" y="690" on="1"/>
      </contour>
    </TTGlyph>
    <TTGlyph name="Idotaccent" xMin="87" yMin="0" xMax="175" yMax="867">
      <contour>
        <pt x="117" y="867" on="1"/>
        <pt x="145" y="867" on="1"/>
        <pt x="171" y="867" on="0"/>
        <pt x="171" y="841" on="1"/>
        <pt x="171" y="785" on="1"/>
        <pt x="171" y="759" on="0"/>
        <pt x="145" y="759" on="1"/>
        <pt x="117" y="759" on="1"/>
        <pt x="91" y="759" on="0"/>
        <pt x="91" y="785" on="1"/>
        <pt x="91" y="841" on="1"/>
        <pt x="91" y="867" on="0"/>
      </contour>
      <contour>
        <pt x="175" y="0" on="1"/>
        <pt x="87" y="0" on="1"/>
        <pt x="87" y="690" on="1"/>
        <pt x="175" y="690" on="1"/>
      </contour>
    </TTGlyph>
    <TTGlyph name="Igrave" xMin="-40" yMin="0" xMax="181" yMax="914">
      <contour>
        <pt x="181" y="767" on="1"/>
        <pt x="151" y="728" on="1"/>
        <pt x="-40" y="848" on="1"/>
        <pt x="8" y="914" on="1"/>
      </contour>
      <contour>
        <pt x="175" y="0" on="1"/>
        <pt x="87" y="0" on="1"/>
        <pt x="87" y="690" on="1"/>
        <pt x="175" y="690" on="1"/>
      </contour>
    </TTGlyph>
    <TTGlyph name="Imacron" xMin="-8" yMin="0" xMax="271" yMax="849">
      <contour>
        <pt x="271" y="786" on="1"/>
        <pt x="-8" y="786" on="1"/>
        <pt x="-8" y="849" on="1"/>
        <pt x="271" y="849" on="1"/>
      </contour>
      <contour>
        <pt x="175" y="0" on="1"/>
        <pt x="87" y="0" on="1"/>
        <pt x="87" y="690" on="1"/>
        <pt x="175" y="690" on="1"/>
      </contour>
    </TTGlyph>
    <TTGlyph name="Iogonek" xMin="31" yMin="-202" xMax="180" yMax="690">
      <contour>
        <pt x="169" y="-158" on="1"/>
        <pt x="180" y="-193" on="1"/>
        <pt x="87" y="-228" on="0"/>
        <pt x="10" y="-175" on="0"/>
        <pt x="31" y="-117" on="1"/>
        <pt x="52" y="-58" on="0"/>
        <pt x="124" y="0" on="1"/>
        <pt x="87" y="0" on="1"/>
        <pt x="87" y="690" on="1"/>
        <pt x="175" y="690" on="1"/>
        <pt x="175" y="0" on="1"/>
        <pt x="165" y="0" on="1"/>
        <pt x="112" y="-63" on="0"/>
        <pt x="91" y="-114" on="1"/>
        <pt x="76" y="-150" on="0"/>
        <pt x="121" y="-174" on="0"/>
      </contour>
    </TTGlyph>
    <TTGlyph name="J" xMin="30" yMin="-9" xMax="256" yMax="690">
      <contour>
        <pt x="256" y="690" on="1"/>
        <pt x="256" y="145" on="1"/>
        <pt x="256" y="69" on="0"/>
        <pt x="187" y="-9" on="0"/>
        <pt x="122" y="-9" on="1"/>
        <pt x="66" y="-9" on="0"/>
        <pt x="30" y="4" on="1"/>
        <pt x="40" y="66" on="1"/>
        <pt x="90" y="66" on="1"/>
        <pt x="168" y="66" on="0"/>
        <pt x="168" y="142" on="1"/>
        <pt x="168" y="690" on="1"/>
      </contour>
    </TTGlyph>
    <TTGlyph name="K" xMin="87" yMin="0" xMax="572" yMax="690">
      <contour>
        <pt x="253" y="324" on="1"/>
        <pt x="168" y="324" on="1"/>
        <pt x="174" y="286" on="0"/>
        <pt x="174" y="251" on="1"/>
        <pt x="174" y="0" on="1"/>
        <pt x="87" y="0" on="1"/>
        <pt x="87" y="690" on="1"/>
        <pt x="174" y="690" on="1"/>
        <pt x="174" y="474" on="1"/>
        <pt x="174" y="434" on="0"/>
        <pt x="168" y="395" on="1"/>
        <pt x="252" y="395" on="1"/>
        <pt x="462" y="690" on="1"/>
        <pt x="558" y="690" on="1"/>
        <pt x="357" y="404" on="1"/>
        <pt x="345" y="386" on="0"/>
        <pt x="319" y="360" on="1"/>
        <pt x="319" y="358" on="1"/>
        <pt x="347" y="331" on="0"/>
        <pt x="362" y="310" on="1"/>
        <pt x="572" y="0" on="1"/>
        <pt x="473" y="0" on="1"/>
      </contour>
    </TTGlyph>
    <TTGlyph name="Kcommaaccent" xMin="87" yMin="-273" xMax="572" yMax="690">
      <contour>
        <pt x="572" y="0" on="1"/>
        <pt x="473" y="0" on="1"/>
        <pt x="253" y="324" on="1"/>
        <pt x="168" y="324" on="1"/>
        <pt x="174" y="286" on="0"/>
        <pt x="174" y="251" on="1"/>
        <pt x="174" y="0" on="1"/>
        <pt x="87" y="0" on="1"/>
        <pt x="87" y="690" on="1"/>
        <pt x="174" y="690" on="1"/>
        <pt x="174" y="474" on="1"/>
        <pt x="174" y="434" on="0"/>
        <pt x="168" y="395" on="1"/>
        <pt x="252" y="395" on="1"/>
        <pt x="462" y="690" on="1"/>
        <pt x="558" y="690" on="1"/>
        <pt x="357" y="404" on="1"/>
        <pt x="345" y="386" on="0"/>
        <pt x="319" y="360" on="1"/>
        <pt x="319" y="358" on="1"/>
        <pt x="347" y="331" on="0"/>
        <pt x="362" y="310" on="1"/>
      </contour>
      <contour>
        <pt x="304" y="-58" on="1"/>
        <pt x="326" y="-58" on="1"/>
        <pt x="342" y="-58" on="0"/>
        <pt x="355" y="-71" on="0"/>
        <pt x="355" y="-86" on="1"/>
        <pt x="355" y="-141" on="1"/>
        <pt x="354" y="-210" on="0"/>
        <pt x="323" y="-273" on="1"/>
        <pt x="286" y="-263" on="1"/>
        <pt x="295" y="-211" on="0"/>
        <pt x="295" y="-160" on="1"/>
        <pt x="285" y="-160" on="0"/>
        <pt x="273" y="-147" on="0"/>
        <pt x="274" y="-136" on="1"/>
        <pt x="274" y="-86" on="1"/>
        <pt x="275" y="-58" on="0"/>
      </contour>
    </TTGlyph>
    <TTGlyph name="L" xMin="85" yMin="-1" xMax="492" yMax="690">
      <contour>
        <pt x="172" y="690" on="1"/>
        <pt x="172" y="140" on="1"/>
        <pt x="172" y="74" on="0"/>
        <pt x="239" y="74" on="1"/>
        <pt x="488" y="74" on="1"/>
        <pt x="492" y="6" on="1"/>
        <pt x="405" y="-1" on="0"/>
        <pt x="225" y="-1" on="1"/>
        <pt x="85" y="-1" on="0"/>
        <pt x="85" y="129" on="1"/>
        <pt x="85" y="690" on="1"/>
      </contour>
    </TTGlyph>
    <TTGlyph name="Lacute" xMin="65" yMin="-1" xMax="492" yMax="914">
      <contour>
        <pt x="286" y="848" on="1"/>
        <pt x="94" y="728" on="1"/>
        <pt x="65" y="767" on="1"/>
        <pt x="237" y="914" on="1"/>
      </contour>
      <contour>
        <pt x="172" y="690" on="1"/>
        <pt x="172" y="140" on="1"/>
        <pt x="172" y="74" on="0"/>
        <pt x="239" y="74" on="1"/>
        <pt x="488" y="74" on="1"/>
        <pt x="492" y="6" on="1"/>
        <pt x="405" y="-1" on="0"/>
        <pt x="225" y="-1" on="1"/>
        <pt x="85" y="-1" on="0"/>
        <pt x="85" y="129" on="1"/>
        <pt x="85" y="690" on="1"/>
      </contour>
    </TTGlyph>
    <TTGlyph name="Lcaron" xMin="85" yMin="-1" xMax="492" yMax="691">
      <contour>
        <pt x="320" y="691" on="1"/>
        <pt x="342" y="691" on="1"/>
        <pt x="358" y="691" on="0"/>
        <pt x="371" y="679" on="0"/>
        <pt x="371" y="664" on="1"/>
        <pt x="371" y="609" on="1"/>
        <pt x="370" y="540" on="0"/>
        <pt x="339" y="477" on="1"/>
        <pt x="302" y="487" on="1"/>
        <pt x="311" y="540" on="0"/>
        <pt x="311" y="590" on="1"/>
        <pt x="301" y="590" on="0"/>
        <pt x="289" y="603" on="0"/>
        <pt x="290" y="614" on="1"/>
        <pt x="290" y="664" on="1"/>
        <pt x="291" y="691" on="0"/>
      </contour>
      <contour>
        <pt x="172" y="690" on="1"/>
        <pt x="172" y="140" on="1"/>
        <pt x="172" y="74" on="0"/>
        <pt x="239" y="74" on="1"/>
        <pt x="488" y="74" on="1"/>
        <pt x="492" y="6" on="1"/>
        <pt x="405" y="-1" on="0"/>
        <pt x="225" y="-1" on="1"/>
        <pt x="85" y="-1" on="0"/>
        <pt x="85" y="129" on="1"/>
        <pt x="85" y="690" on="1"/>
      </contour>
    </TTGlyph>
    <TTGlyph name="Lcommaaccent" xMin="85" yMin="-275" xMax="492" yMax="690">
      <contour>
        <pt x="172" y="690" on="1"/>
        <pt x="172" y="140" on="1"/>
        <pt x="172" y="74" on="0"/>
        <pt x="239" y="74" on="1"/>
        <pt x="488" y="74" on="1"/>
        <pt x="492" y="6" on="1"/>
        <pt x="405" y="-1" on="0"/>
        <pt x="225" y="-1" on="1"/>
        <pt x="85" y="-1" on="0"/>
        <pt x="85" y="129" on="1"/>
        <pt x="85" y="690" on="1"/>
      </contour>
      <contour>
        <pt x="285" y="-61" on="1"/>
        <pt x="308" y="-61" on="1"/>
        <pt x="324" y="-61" on="0"/>
        <pt x="336" y="-73" on="0"/>
        <pt x="336" y="-88" on="1"/>
        <pt x="336" y="-143" on="1"/>
        <pt x="334" y="-217" on="0"/>
        <pt x="304" y="-275" on="1"/>
        <pt x="268" y="-265" on="1"/>
        <pt x="277" y="-213" on="0"/>
        <pt x="277" y="-162" on="1"/>
        <pt x="255" y="-162" on="0"/>
        <pt x="255" y="-139" on="1"/>
        <pt x="255" y="-88" on="1"/>
        <pt x="256" y="-61" on="0"/>
      </contour>
    </TTGlyph>
    <TTGlyph name="Ldot" xMin="85" yMin="-1" xMax="492" yMax="690">
      <contour>
        <pt x="172" y="690" on="1"/>
        <pt x="172" y="140" on="1"/>
        <pt x="172" y="74" on="0"/>
        <pt x="239" y="74" on="1"/>
        <pt x="488" y="74" on="1"/>
        <pt x="492" y="6" on="1"/>
        <pt x="405" y="-1" on="0"/>
        <pt x="225" y="-1" on="1"/>
        <pt x="85" y="-1" on="0"/>
        <pt x="85" y="129" on="1"/>
        <pt x="85" y="690" on="1"/>
      </contour>
      <contour>
        <pt x="403" y="338" on="1"/>
        <pt x="375" y="338" on="1"/>
        <pt x="350" y="338" on="0"/>
        <pt x="350" y="364" on="1"/>
        <pt x="350" y="421" on="1"/>
        <pt x="350" y="447" on="0"/>
        <pt x="375" y="447" on="1"/>
        <pt x="403" y="447" on="1"/>
        <pt x="429" y="447" on="0"/>
        <pt x="429" y="421" on="1"/>
        <pt x="429" y="364" on="1"/>
        <pt x="429" y="338" on="0"/>
      </contour>
    </TTGlyph>
    <TTGlyph name="Lslash" xMin="20" yMin="-1" xMax="498" yMax="690">
      <contour>
        <pt x="495" y="74" on="1"/>
        <pt x="498" y="6" on="1"/>
        <pt x="411" y="-1" on="0"/>
        <pt x="231" y="-1" on="1"/>
        <pt x="91" y="-1" on="0"/>
        <pt x="91" y="129" on="1"/>
        <pt x="91" y="335" on="1"/>
        <pt x="20" y="305" on="1"/>
        <pt x="20" y="360" on="1"/>
        <pt x="91" y="389" on="1"/>
        <pt x="91" y="690" on="1"/>
        <pt x="179" y="690" on="1"/>
        <pt x="179" y="426" on="1"/>
        <pt x="294" y="474" on="1"/>
        <pt x="294" y="420" on="1"/>
        <pt x="179" y="372" on="1"/>
        <pt x="179" y="140" on="1"/>
        <pt x="179" y="106" on="0"/>
        <pt x="210" y="74" on="0"/>
        <pt x="245" y="74" on="1"/>
      </contour>
    </TTGlyph>
    <TTGlyph name="M" xMin="73" yMin="0" xMax="804" yMax="690">
      <contour>
        <pt x="640" y="690" on="1"/>
        <pt x="739" y="690" on="1"/>
        <pt x="775" y="690" on="0"/>
        <pt x="775" y="653" on="1"/>
        <pt x="804" y="0" on="1"/>
        <pt x="716" y="0" on="1"/>
        <pt x="691" y="617" on="1"/>
        <pt x="670" y="617" on="1"/>
        <pt x="516" y="108" on="1"/>
        <pt x="508" y="78" on="0"/>
        <pt x="478" y="78" on="1"/>
        <pt x="399" y="78" on="1"/>
        <pt x="368" y="78" on="0"/>
        <pt x="359" y="108" on="1"/>
        <pt x="205" y="617" on="1"/>
        <pt x="185" y="617" on="1"/>
        <pt x="161" y="0" on="1"/>
        <pt x="73" y="0" on="1"/>
        <pt x="100" y="653" on="1"/>
        <pt x="102" y="690" on="0"/>
        <pt x="137" y="690" on="1"/>
        <pt x="237" y="690" on="1"/>
        <pt x="265" y="690" on="0"/>
        <pt x="274" y="660" on="1"/>
        <pt x="403" y="239" on="1"/>
        <pt x="409" y="221" on="0"/>
        <pt x="428" y="150" on="0"/>
        <pt x="429" y="146" on="1"/>
        <pt x="447" y="146" on="1"/>
        <pt x="450" y="157" on="0"/>
        <pt x="467" y="222" on="0"/>
        <pt x="473" y="241" on="1"/>
        <pt x="602" y="660" on="1"/>
        <pt x="610" y="690" on="0"/>
      </contour>
    </TTGlyph>
    <TTGlyph name="N" xMin="87" yMin="0" xMax="618" yMax="690">
      <contour>
        <pt x="618" y="690" on="1"/>
        <pt x="618" y="35" on="1"/>
        <pt x="618" y="0" on="0"/>
        <pt x="584" y="0" on="1"/>
        <pt x="498" y="0" on="1"/>
        <pt x="471" y="0" on="0"/>
        <pt x="459" y="28" on="1"/>
        <pt x="226" y="517" on="1"/>
        <pt x="192" y="591" on="0"/>
        <pt x="187" y="608" on="1"/>
        <pt x="171" y="608" on="1"/>
        <pt x="175" y="568" on="0"/>
        <pt x="175" y="517" on="1"/>
        <pt x="175" y="0" on="1"/>
        <pt x="87" y="0" on="1"/>
        <pt x="87" y="655" on="1"/>
        <pt x="87" y="690" on="0"/>
        <pt x="122" y="690" on="1"/>
        <pt x="205" y="690" on="1"/>
        <pt x="232" y="690" on="0"/>
        <pt x="244" y="662" on="1"/>
        <pt x="470" y="185" on="1"/>
        <pt x="495" y="136" on="0"/>
        <pt x="517" y="85" on="1"/>
        <pt x="534" y="85" on="1"/>
        <pt x="531" y="139" on="0"/>
        <pt x="531" y="190" on="1"/>
        <pt x="531" y="690" on="1"/>
      </contour>
    </TTGlyph>
    <TTGlyph name="Nacute" xMin="87" yMin="0" xMax="618" yMax="914">
      <contour>
        <pt x="516" y="848" on="1"/>
        <pt x="325" y="728" on="1"/>
        <pt x="295" y="767" on="1"/>
        <pt x="468" y="914" on="1"/>
      </contour>
      <contour>
        <pt x="618" y="690" on="1"/>
        <pt x="618" y="35" on="1"/>
        <pt x="618" y="0" on="0"/>
        <pt x="584" y="0" on="1"/>
        <pt x="498" y="0" on="1"/>
        <pt x="471" y="0" on="0"/>
        <pt x="459" y="28" on="1"/>
        <pt x="226" y="517" on="1"/>
        <pt x="192" y="591" on="0"/>
        <pt x="187" y="608" on="1"/>
        <pt x="171" y="608" on="1"/>
        <pt x="175" y="568" on="0"/>
        <pt x="175" y="517" on="1"/>
        <pt x="175" y="0" on="1"/>
        <pt x="87" y="0" on="1"/>
        <pt x="87" y="655" on="1"/>
        <pt x="87" y="690" on="0"/>
        <pt x="122" y="690" on="1"/>
        <pt x="205" y="690" on="1"/>
        <pt x="232" y="690" on="0"/>
        <pt x="244" y="662" on="1"/>
        <pt x="470" y="185" on="1"/>
        <pt x="495" y="136" on="0"/>
        <pt x="517" y="85" on="1"/>
        <pt x="534" y="85" on="1"/>
        <pt x="531" y="139" on="0"/>
        <pt x="531" y="190" on="1"/>
        <pt x="531" y="690" on="1"/>
      </contour>
    </TTGlyph>
    <TTGlyph name="Ncaron" xMin="87" yMin="0" xMax="618" yMax="908">
      <contour>
        <pt x="525" y="871" on="1"/>
        <pt x="382" y="744" on="1"/>
        <pt x="342" y="744" on="1"/>
        <pt x="199" y="871" on="1"/>
        <pt x="228" y="908" on="1"/>
        <pt x="358" y="821" on="1"/>
        <pt x="366" y="821" on="1"/>
        <pt x="495" y="908" on="1"/>
      </contour>
      <contour>
        <pt x="618" y="690" on="1"/>
        <pt x="618" y="35" on="1"/>
        <pt x="618" y="0" on="0"/>
        <pt x="584" y="0" on="1"/>
        <pt x="498" y="0" on="1"/>
        <pt x="471" y="0" on="0"/>
        <pt x="459" y="28" on="1"/>
        <pt x="226" y="517" on="1"/>
        <pt x="192" y="591" on="0"/>
        <pt x="187" y="608" on="1"/>
        <pt x="171" y="608" on="1"/>
        <pt x="175" y="568" on="0"/>
        <pt x="175" y="517" on="1"/>
        <pt x="175" y="0" on="1"/>
        <pt x="87" y="0" on="1"/>
        <pt x="87" y="655" on="1"/>
        <pt x="87" y="690" on="0"/>
        <pt x="122" y="690" on="1"/>
        <pt x="205" y="690" on="1"/>
        <pt x="232" y="690" on="0"/>
        <pt x="244" y="662" on="1"/>
        <pt x="470" y="185" on="1"/>
        <pt x="495" y="136" on="0"/>
        <pt x="517" y="85" on="1"/>
        <pt x="534" y="85" on="1"/>
        <pt x="531" y="139" on="0"/>
        <pt x="531" y="190" on="1"/>
        <pt x="531" y="690" on="1"/>
      </contour>
    </TTGlyph>
    <TTGlyph name="Ncommaaccent" xMin="87" yMin="-273" xMax="618" yMax="690">
      <contour>
        <pt x="618" y="690" on="1"/>
        <pt x="618" y="35" on="1"/>
        <pt x="618" y="0" on="0"/>
        <pt x="584" y="0" on="1"/>
        <pt x="498" y="0" on="1"/>
        <pt x="471" y="0" on="0"/>
        <pt x="459" y="28" on="1"/>
        <pt x="226" y="517" on="1"/>
        <pt x="192" y="591" on="0"/>
        <pt x="187" y="608" on="1"/>
        <pt x="171" y="608" on="1"/>
        <pt x="175" y="568" on="0"/>
        <pt x="175" y="517" on="1"/>
        <pt x="175" y="0" on="1"/>
        <pt x="87" y="0" on="1"/>
        <pt x="87" y="655" on="1"/>
        <pt x="87" y="690" on="0"/>
        <pt x="122" y="690" on="1"/>
        <pt x="205" y="690" on="1"/>
        <pt x="232" y="690" on="0"/>
        <pt x="244" y="662" on="1"/>
        <pt x="470" y="185" on="1"/>
        <pt x="495" y="136" on="0"/>
        <pt x="517" y="85" on="1"/>
        <pt x="534" y="85" on="1"/>
        <pt x="531" y="139" on="0"/>
        <pt x="531" y="190" on="1"/>
        <pt x="531" y="690" on="1"/>
      </contour>
      <contour>
        <pt x="329" y="-58" on="1"/>
        <pt x="351" y="-58" on="1"/>
        <pt x="367" y="-58" on="0"/>
        <pt x="380" y="-71" on="0"/>
        <pt x="380" y="-86" on="1"/>
        <pt x="380" y="-141" on="1"/>
        <pt x="379" y="-210" on="0"/>
        <pt x="348" y="-273" on="1"/>
        <pt x="311" y="-263" on="1"/>
        <pt x="320" y="-211" on="0"/>
        <pt x="320" y="-160" on="1"/>
        <pt x="310" y="-160" on="0"/>
        <pt x="298" y="-147" on="0"/>
        <pt x="299" y="-136" on="1"/>
        <pt x="299" y="-86" on="1"/>
        <pt x="300" y="-58" on="0"/>
      </contour>
    </TTGlyph>
    <TTGlyph name="Ntilde" xMin="87" yMin="0" xMax="618" yMax="880">
      <contour>
        <pt x="242" y="765" on="1"/>
        <pt x="203" y="765" on="1"/>
        <pt x="197" y="823" on="0"/>
        <pt x="242" y="883" on="0"/>
        <pt x="281" y="880" on="1"/>
        <pt x="313" y="877" on="0"/>
        <pt x="403" y="827" on="0"/>
        <pt x="430" y="824" on="1"/>
        <pt x="458" y="821" on="0"/>
        <pt x="479" y="845" on="0"/>
        <pt x="479" y="875" on="1"/>
        <pt x="518" y="875" on="1"/>
        <pt x="525" y="819" on="0"/>
        <pt x="481" y="760" on="0"/>
        <pt x="440" y="763" on="1"/>
        <pt x="403" y="766" on="0"/>
        <pt x="311" y="817" on="0"/>
        <pt x="290" y="820" on="1"/>
        <pt x="263" y="823" on="0"/>
        <pt x="242" y="797" on="0"/>
      </contour>
      <contour>
        <pt x="618" y="690" on="1"/>
        <pt x="618" y="35" on="1"/>
        <pt x="618" y="0" on="0"/>
        <pt x="584" y="0" on="1"/>
        <pt x="498" y="0" on="1"/>
        <pt x="471" y="0" on="0"/>
        <pt x="459" y="28" on="1"/>
        <pt x="226" y="517" on="1"/>
        <pt x="192" y="591" on="0"/>
        <pt x="187" y="608" on="1"/>
        <pt x="171" y="608" on="1"/>
        <pt x="175" y="568" on="0"/>
        <pt x="175" y="517" on="1"/>
        <pt x="175" y="0" on="1"/>
        <pt x="87" y="0" on="1"/>
        <pt x="87" y="655" on="1"/>
        <pt x="87" y="690" on="0"/>
        <pt x="122" y="690" on="1"/>
        <pt x="205" y="690" on="1"/>
        <pt x="232" y="690" on="0"/>
        <pt x="244" y="662" on="1"/>
        <pt x="470" y="185" on="1"/>
        <pt x="495" y="136" on="0"/>
        <pt x="517" y="85" on="1"/>
        <pt x="534" y="85" on="1"/>
        <pt x="531" y="139" on="0"/>
        <pt x="531" y="190" on="1"/>
        <pt x="531" y="690" on="1"/>
      </contour>
    </TTGlyph>
    <TTGlyph name="O" xMin="61" yMin="-13" xMax="606" yMax="703">
      <contour>
        <pt x="182" y="703" on="0"/>
        <pt x="486" y="703" on="0"/>
        <pt x="606" y="546" on="0"/>
        <pt x="606" y="144" on="0"/>
        <pt x="486" y="-13" on="0"/>
        <pt x="182" y="-13" on="0"/>
        <pt x="61" y="144" on="0"/>
        <pt x="61" y="546" on="0"/>
      </contour>
      <contour>
        <pt x="436" y="624" on="0"/>
        <pt x="232" y="624" on="0"/>
        <pt x="154" y="503" on="0"/>
        <pt x="154" y="187" on="0"/>
        <pt x="232" y="66" on="0"/>
        <pt x="436" y="66" on="0"/>
        <pt x="514" y="187" on="0"/>
        <pt x="514" y="503" on="0"/>
      </contour>
    </TTGlyph>
    <TTGlyph name="OE" xMin="61" yMin="-13" xMax="862" yMax="703">
      <contour>
        <pt x="859" y="73" on="1"/>
        <pt x="862" y="5" on="1"/>
        <pt x="770" y="-1" on="0"/>
        <pt x="566" y="-1" on="1"/>
        <pt x="526" y="-1" on="0"/>
        <pt x="497" y="20" on="1"/>
        <pt x="422" y="-13" on="0"/>
        <pt x="334" y="-13" on="1"/>
        <pt x="182" y="-13" on="0"/>
        <pt x="61" y="144" on="0"/>
        <pt x="61" y="546" on="0"/>
        <pt x="182" y="703" on="0"/>
        <pt x="334" y="703" on="1"/>
        <pt x="424" y="703" on="0"/>
        <pt x="502" y="671" on="1"/>
        <pt x="533" y="691" on="0"/>
        <pt x="573" y="691" on="1"/>
        <pt x="772" y="691" on="0"/>
        <pt x="862" y="685" on="1"/>
        <pt x="859" y="616" on="1"/>
        <pt x="602" y="616" on="1"/>
        <pt x="535" y="616" on="0"/>
        <pt x="535" y="550" on="1"/>
        <pt x="535" y="400" on="1"/>
        <pt x="819" y="400" on="1"/>
        <pt x="819" y="328" on="1"/>
        <pt x="535" y="328" on="1"/>
        <pt x="535" y="140" on="1"/>
        <pt x="535" y="105" on="0"/>
        <pt x="567" y="73" on="0"/>
        <pt x="602" y="73" on="1"/>
      </contour>
      <contour>
        <pt x="447" y="129" on="1"/>
        <pt x="447" y="561" on="1"/>
        <pt x="447" y="585" on="0"/>
        <pt x="455" y="609" on="1"/>
        <pt x="395" y="624" on="0"/>
        <pt x="334" y="624" on="1"/>
        <pt x="232" y="624" on="0"/>
        <pt x="154" y="504" on="0"/>
        <pt x="154" y="345" on="1"/>
        <pt x="154" y="187" on="0"/>
        <pt x="232" y="66" on="0"/>
        <pt x="334" y="66" on="1"/>
        <pt x="403" y="66" on="0"/>
        <pt x="454" y="82" on="1"/>
        <pt x="447" y="102" on="0"/>
      </contour>
    </TTGlyph>
    <TTGlyph name="Oacute" xMin="61" yMin="-13" xMax="606" yMax="914">
      <contour>
        <pt x="489" y="848" on="1"/>
        <pt x="297" y="728" on="1"/>
        <pt x="268" y="767" on="1"/>
        <pt x="440" y="914" on="1"/>
      </contour>
      <contour>
        <pt x="182" y="703" on="0"/>
        <pt x="486" y="703" on="0"/>
        <pt x="606" y="546" on="0"/>
        <pt x="606" y="144" on="0"/>
        <pt x="486" y="-13" on="0"/>
        <pt x="182" y="-13" on="0"/>
        <pt x="61" y="144" on="0"/>
        <pt x="61" y="546" on="0"/>
      </contour>
      <contour>
        <pt x="436" y="624" on="0"/>
        <pt x="232" y="624" on="0"/>
        <pt x="154" y="503" on="0"/>
        <pt x="154" y="187" on="0"/>
        <pt x="232" y="66" on="0"/>
        <pt x="436" y="66" on="0"/>
        <pt x="514" y="187" on="0"/>
        <pt x="514" y="503" on="0"/>
      </contour>
    </TTGlyph>
    <TTGlyph name="Ocircumflex" xMin="61" yMin="-13" xMax="606" yMax="896">
      <contour>
        <pt x="496" y="769" on="1"/>
        <pt x="466" y="732" on="1"/>
        <pt x="337" y="830" on="1"/>
        <pt x="329" y="830" on="1"/>
        <pt x="199" y="732" on="1"/>
        <pt x="171" y="769" on="1"/>
        <pt x="302" y="896" on="1"/>
        <pt x="364" y="896" on="1"/>
      </contour>
      <contour>
        <pt x="182" y="703" on="0"/>
        <pt x="486" y="703" on="0"/>
        <pt x="606" y="546" on="0"/>
        <pt x="606" y="144" on="0"/>
        <pt x="486" y="-13" on="0"/>
        <pt x="182" y="-13" on="0"/>
        <pt x="61" y="144" on="0"/>
        <pt x="61" y="546" on="0"/>
      </contour>
      <contour>
        <pt x="436" y="624" on="0"/>
        <pt x="232" y="624" on="0"/>
        <pt x="154" y="503" on="0"/>
        <pt x="154" y="187" on="0"/>
        <pt x="232" y="66" on="0"/>
        <pt x="436" y="66" on="0"/>
        <pt x="514" y="187" on="0"/>
        <pt x="514" y="503" on="0"/>
      </contour>
    </TTGlyph>
    <TTGlyph name="Odieresis" xMin="61" yMin="-13" xMax="606" yMax="870">
      <contour>
        <pt x="230" y="870" on="1"/>
        <pt x="259" y="870" on="1"/>
        <pt x="282" y="870" on="0"/>
        <pt x="282" y="846" on="1"/>
        <pt x="282" y="791" on="1"/>
        <pt x="282" y="767" on="0"/>
        <pt x="259" y="767" on="1"/>
        <pt x="230" y="767" on="1"/>
        <pt x="207" y="767" on="0"/>
        <pt x="207" y="791" on="1"/>
        <pt x="207" y="846" on="1"/>
        <pt x="207" y="870" on="0"/>
      </contour>
      <contour>
        <pt x="408" y="870" on="1"/>
        <pt x="436" y="870" on="1"/>
        <pt x="460" y="870" on="0"/>
        <pt x="460" y="846" on="1"/>
        <pt x="460" y="791" on="1"/>
        <pt x="460" y="767" on="0"/>
        <pt x="436" y="767" on="1"/>
        <pt x="408" y="767" on="1"/>
        <pt x="384" y="767" on="0"/>
        <pt x="384" y="791" on="1"/>
        <pt x="384" y="846" on="1"/>
        <pt x="384" y="870" on="0"/>
      </contour>
      <contour>
        <pt x="182" y="703" on="0"/>
        <pt x="486" y="703" on="0"/>
        <pt x="606" y="546" on="0"/>
        <pt x="606" y="144" on="0"/>
        <pt x="486" y="-13" on="0"/>
        <pt x="182" y="-13" on="0"/>
        <pt x="61" y="144" on="0"/>
        <pt x="61" y="546" on="0"/>
      </contour>
      <contour>
        <pt x="436" y="624" on="0"/>
        <pt x="232" y="624" on="0"/>
        <pt x="154" y="503" on="0"/>
        <pt x="154" y="187" on="0"/>
        <pt x="232" y="66" on="0"/>
        <pt x="436" y="66" on="0"/>
        <pt x="514" y="187" on="0"/>
        <pt x="514" y="503" on="0"/>
      </contour>
    </TTGlyph>
    <TTGlyph name="Ograve" xMin="61" yMin="-13" xMax="606" yMax="914">
      <contour>
        <pt x="383" y="767" on="1"/>
        <pt x="354" y="728" on="1"/>
        <pt x="162" y="848" on="1"/>
        <pt x="211" y="914" on="1"/>
      </contour>
      <contour>
        <pt x="182" y="703" on="0"/>
        <pt x="486" y="703" on="0"/>
        <pt x="606" y="546" on="0"/>
        <pt x="606" y="144" on="0"/>
        <pt x="486" y="-13" on="0"/>
        <pt x="182" y="-13" on="0"/>
        <pt x="61" y="144" on="0"/>
        <pt x="61" y="546" on="0"/>
      </contour>
      <contour>
        <pt x="436" y="624" on="0"/>
        <pt x="232" y="624" on="0"/>
        <pt x="154" y="503" on="0"/>
        <pt x="154" y="187" on="0"/>
        <pt x="232" y="66" on="0"/>
        <pt x="436" y="66" on="0"/>
        <pt x="514" y="187" on="0"/>
        <pt x="514" y="503" on="0"/>
      </contour>
    </TTGlyph>
    <TTGlyph name="Ohungarumlaut" xMin="61" yMin="-13" xMax="606" yMax="924">
      <contour>
        <pt x="538" y="882" on="1"/>
        <pt x="404" y="722" on="1"/>
        <pt x="366" y="750" on="1"/>
        <pt x="476" y="924" on="1"/>
      </contour>
      <contour>
        <pt x="374" y="882" on="1"/>
        <pt x="240" y="722" on="1"/>
        <pt x="202" y="750" on="1"/>
        <pt x="312" y="924" on="1"/>
      </contour>
      <contour>
        <pt x="182" y="703" on="0"/>
        <pt x="486" y="703" on="0"/>
        <pt x="606" y="546" on="0"/>
        <pt x="606" y="144" on="0"/>
        <pt x="486" y="-13" on="0"/>
        <pt x="182" y="-13" on="0"/>
        <pt x="61" y="144" on="0"/>
        <pt x="61" y="546" on="0"/>
      </contour>
      <contour>
        <pt x="436" y="624" on="0"/>
        <pt x="232" y="624" on="0"/>
        <pt x="154" y="503" on="0"/>
        <pt x="154" y="187" on="0"/>
        <pt x="232" y="66" on="0"/>
        <pt x="436" y="66" on="0"/>
        <pt x="514" y="187" on="0"/>
        <pt x="514" y="503" on="0"/>
      </contour>
    </TTGlyph>
    <TTGlyph name="Omacron" xMin="61" yMin="-13" xMax="606" yMax="849">
      <contour>
        <pt x="473" y="786" on="1"/>
        <pt x="194" y="786" on="1"/>
        <pt x="194" y="849" on="1"/>
        <pt x="473" y="849" on="1"/>
      </contour>
      <contour>
        <pt x="182" y="703" on="0"/>
        <pt x="486" y="703" on="0"/>
        <pt x="606" y="546" on="0"/>
        <pt x="606" y="144" on="0"/>
        <pt x="486" y="-13" on="0"/>
        <pt x="182" y="-13" on="0"/>
        <pt x="61" y="144" on="0"/>
        <pt x="61" y="546" on="0"/>
      </contour>
      <contour>
        <pt x="436" y="624" on="0"/>
        <pt x="232" y="624" on="0"/>
        <pt x="154" y="503" on="0"/>
        <pt x="154" y="187" on="0"/>
        <pt x="232" y="66" on="0"/>
        <pt x="436" y="66" on="0"/>
        <pt x="514" y="187" on="0"/>
        <pt x="514" y="503" on="0"/>
      </contour>
    </TTGlyph>
    <TTGlyph name="Omega" xMin="52" yMin="0" xMax="667" yMax="703">
      <contour>
        <pt x="52" y="77" on="1"/>
        <pt x="156" y="77" on="1"/>
        <pt x="194" y="77" on="0"/>
        <pt x="222" y="71" on="1"/>
        <pt x="144" y="128" on="0"/>
        <pt x="77" y="265" on="0"/>
        <pt x="78" y="372" on="1"/>
        <pt x="78" y="540" on="0"/>
        <pt x="210" y="703" on="0"/>
        <pt x="360" y="703" on="1"/>
        <pt x="507" y="703" on="0"/>
        <pt x="641" y="539" on="0"/>
        <pt x="641" y="372" on="1"/>
        <pt x="641" y="262" on="0"/>
        <pt x="574" y="128" on="0"/>
        <pt x="496" y="71" on="1"/>
        <pt x="532" y="77" on="0"/>
        <pt x="562" y="77" on="1"/>
        <pt x="667" y="77" on="1"/>
        <pt x="667" y="0" on="1"/>
        <pt x="415" y="0" on="1"/>
        <pt x="415" y="74" on="1"/>
        <pt x="490" y="126" on="0"/>
        <pt x="549" y="256" on="0"/>
        <pt x="550" y="361" on="1"/>
        <pt x="549" y="501" on="0"/>
        <pt x="461" y="625" on="0"/>
        <pt x="359" y="625" on="1"/>
        <pt x="255" y="625" on="0"/>
        <pt x="169" y="502" on="0"/>
        <pt x="169" y="359" on="1"/>
        <pt x="169" y="251" on="0"/>
        <pt x="229" y="130" on="0"/>
        <pt x="303" y="74" on="1"/>
        <pt x="303" y="0" on="1"/>
        <pt x="52" y="0" on="1"/>
      </contour>
    </TTGlyph>
    <TTGlyph name="Oslash" xMin="61" yMin="-58" xMax="606" yMax="750">
      <contour>
        <pt x="539" y="731" on="1"/>
        <pt x="506" y="662" on="1"/>
        <pt x="559" y="626" on="0"/>
        <pt x="606" y="474" on="0"/>
        <pt x="606" y="345" on="1"/>
        <pt x="606" y="144" on="0"/>
        <pt x="486" y="-13" on="0"/>
        <pt x="334" y="-13" on="1"/>
        <pt x="250" y="-13" on="0"/>
        <pt x="200" y="8" on="1"/>
        <pt x="169" y="-58" on="1"/>
        <pt x="124" y="-38" on="1"/>
        <pt x="156" y="32" on="1"/>
        <pt x="106" y="69" on="0"/>
        <pt x="61" y="219" on="0"/>
        <pt x="61" y="345" on="1"/>
        <pt x="61" y="546" on="0"/>
        <pt x="182" y="703" on="0"/>
        <pt x="334" y="703" on="1"/>
        <pt x="411" y="703" on="0"/>
        <pt x="462" y="684" on="1"/>
        <pt x="493" y="750" on="1"/>
      </contour>
      <contour>
        <pt x="198" y="120" on="1"/>
        <pt x="426" y="607" on="1"/>
        <pt x="392" y="624" on="0"/>
        <pt x="334" y="624" on="1"/>
        <pt x="232" y="624" on="0"/>
        <pt x="154" y="503" on="0"/>
        <pt x="154" y="345" on="1"/>
        <pt x="154" y="179" on="0"/>
      </contour>
      <contour>
        <pt x="466" y="576" on="1"/>
        <pt x="236" y="86" on="1"/>
        <pt x="273" y="66" on="0"/>
        <pt x="334" y="66" on="1"/>
        <pt x="436" y="66" on="0"/>
        <pt x="514" y="187" on="0"/>
        <pt x="514" y="345" on="1"/>
        <pt x="514" y="518" on="0"/>
      </contour>
    </TTGlyph>
    <TTGlyph name="Otilde" xMin="61" yMin="-13" xMax="606" yMax="880">
      <contour>
        <pt x="215" y="765" on="1"/>
        <pt x="175" y="765" on="1"/>
        <pt x="169" y="823" on="0"/>
        <pt x="214" y="883" on="0"/>
        <pt x="253" y="880" on="1"/>
        <pt x="285" y="877" on="0"/>
        <pt x="376" y="827" on="0"/>
        <pt x="430" y="821" on="0"/>
        <pt x="451" y="845" on="0"/>
        <pt x="451" y="875" on="1"/>
        <pt x="491" y="875" on="1"/>
        <pt x="497" y="819" on="0"/>
        <pt x="453" y="760" on="0"/>
        <pt x="413" y="763" on="1"/>
        <pt x="376" y="766" on="0"/>
        <pt x="283" y="817" on="0"/>
        <pt x="263" y="820" on="1"/>
        <pt x="235" y="823" on="0"/>
        <pt x="215" y="797" on="0"/>
      </contour>
      <contour>
        <pt x="182" y="703" on="0"/>
        <pt x="486" y="703" on="0"/>
        <pt x="606" y="546" on="0"/>
        <pt x="606" y="144" on="0"/>
        <pt x="486" y="-13" on="0"/>
        <pt x="182" y="-13" on="0"/>
        <pt x="61" y="144" on="0"/>
        <pt x="61" y="546" on="0"/>
      </contour>
      <contour>
        <pt x="436" y="624" on="0"/>
        <pt x="232" y="624" on="0"/>
        <pt x="154" y="503" on="0"/>
        <pt x="154" y="187" on="0"/>
        <pt x="232" y="66" on="0"/>
        <pt x="436" y="66" on="0"/>
        <pt x="514" y="187" on="0"/>
        <pt x="514" y="503" on="0"/>
      </contour>
    </TTGlyph>
    <TTGlyph name="P" xMin="87" yMin="0" xMax="546" yMax="699">
      <contour>
        <pt x="87" y="0" on="1"/>
        <pt x="87" y="690" on="1"/>
        <pt x="171" y="699" on="0"/>
        <pt x="324" y="699" on="1"/>
        <pt x="450" y="699" on="0"/>
        <pt x="546" y="608" on="0"/>
        <pt x="546" y="358" on="0"/>
        <pt x="453" y="267" on="0"/>
        <pt x="334" y="267" on="1"/>
        <pt x="252" y="267" on="0"/>
        <pt x="175" y="276" on="1"/>
        <pt x="175" y="0" on="1"/>
      </contour>
      <contour>
        <pt x="175" y="343" on="1"/>
        <pt x="323" y="343" on="1"/>
        <pt x="400" y="344" on="0"/>
        <pt x="457" y="401" on="0"/>
        <pt x="457" y="565" on="0"/>
        <pt x="399" y="623" on="0"/>
        <pt x="323" y="623" on="1"/>
        <pt x="214" y="623" on="0"/>
        <pt x="175" y="622" on="1"/>
      </contour>
    </TTGlyph>
    <TTGlyph name="Q" xMin="62" yMin="-201" xMax="607" yMax="703">
      <contour>
        <pt x="183" y="703" on="0"/>
        <pt x="487" y="703" on="0"/>
        <pt x="607" y="546" on="0"/>
        <pt x="607" y="144" on="0"/>
        <pt x="487" y="-13" on="0"/>
        <pt x="183" y="-13" on="0"/>
        <pt x="62" y="144" on="0"/>
        <pt x="62" y="546" on="0"/>
      </contour>
      <contour>
        <pt x="335" y="624" on="1"/>
        <pt x="233" y="624" on="0"/>
        <pt x="155" y="503" on="0"/>
        <pt x="155" y="187" on="0"/>
        <pt x="233" y="66" on="0"/>
        <pt x="335" y="66" on="1"/>
        <pt x="436" y="66" on="0"/>
        <pt x="515" y="187" on="0"/>
        <pt x="515" y="503" on="0"/>
        <pt x="436" y="624" on="0"/>
      </contour>
      <contour>
        <pt x="269" y="-96" on="1"/>
        <pt x="294" y="-43" on="1"/>
        <pt x="404" y="-91" on="0"/>
        <pt x="559" y="-113" on="1"/>
        <pt x="531" y="-201" on="1"/>
        <pt x="401" y="-175" on="0"/>
      </contour>
    </TTGlyph>
    <TTGlyph name="R" xMin="87" yMin="0" xMax="573" yMax="699">
      <contour>
        <pt x="573" y="0" on="1"/>
        <pt x="479" y="0" on="1"/>
        <pt x="418" y="216" on="1"/>
        <pt x="405" y="255" on="0"/>
        <pt x="361" y="288" on="0"/>
        <pt x="291" y="288" on="0"/>
        <pt x="190" y="289" on="0"/>
        <pt x="174" y="289" on="1"/>
        <pt x="174" y="0" on="1"/>
        <pt x="87" y="0" on="1"/>
        <pt x="87" y="690" on="1"/>
        <pt x="171" y="699" on="0"/>
        <pt x="325" y="699" on="1"/>
        <pt x="448" y="699" on="0"/>
        <pt x="548" y="614" on="0"/>
        <pt x="548" y="500" on="1"/>
        <pt x="548" y="415" on="0"/>
        <pt x="489" y="331" on="0"/>
        <pt x="421" y="322" on="1"/>
        <pt x="421" y="317" on="1"/>
        <pt x="449" y="310" on="0"/>
        <pt x="495" y="259" on="0"/>
        <pt x="506" y="218" on="1"/>
      </contour>
      <contour>
        <pt x="174" y="364" on="1"/>
        <pt x="323" y="364" on="1"/>
        <pt x="401" y="365" on="0"/>
        <pt x="459" y="419" on="0"/>
        <pt x="459" y="495" on="1"/>
        <pt x="459" y="570" on="0"/>
        <pt x="401" y="623" on="0"/>
        <pt x="323" y="623" on="1"/>
        <pt x="213" y="623" on="0"/>
        <pt x="174" y="622" on="1"/>
      </contour>
    </TTGlyph>
    <TTGlyph name="Racute" xMin="87" yMin="0" xMax="573" yMax="914">
      <contour>
        <pt x="267" y="728" on="1"/>
        <pt x="237" y="767" on="1"/>
        <pt x="410" y="914" on="1"/>
        <pt x="458" y="848" on="1"/>
      </contour>
      <contour>
        <pt x="573" y="0" on="1"/>
        <pt x="479" y="0" on="1"/>
        <pt x="418" y="216" on="1"/>
        <pt x="405" y="255" on="0"/>
        <pt x="361" y="288" on="0"/>
        <pt x="291" y="288" on="0"/>
        <pt x="190" y="289" on="0"/>
        <pt x="174" y="289" on="1"/>
        <pt x="174" y="0" on="1"/>
        <pt x="87" y="0" on="1"/>
        <pt x="87" y="690" on="1"/>
        <pt x="171" y="699" on="0"/>
        <pt x="325" y="699" on="1"/>
        <pt x="448" y="699" on="0"/>
        <pt x="548" y="614" on="0"/>
        <pt x="548" y="500" on="1"/>
        <pt x="548" y="415" on="0"/>
        <pt x="489" y="331" on="0"/>
        <pt x="421" y="322" on="1"/>
        <pt x="421" y="317" on="1"/>
        <pt x="449" y="310" on="0"/>
        <pt x="495" y="259" on="0"/>
        <pt x="506" y="218" on="1"/>
      </contour>
      <contour>
        <pt x="174" y="364" on="1"/>
        <pt x="323" y="364" on="1"/>
        <pt x="401" y="365" on="0"/>
        <pt x="459" y="419" on="0"/>
        <pt x="459" y="495" on="1"/>
        <pt x="459" y="570" on="0"/>
        <pt x="401" y="623" on="0"/>
        <pt x="323" y="623" on="1"/>
        <pt x="213" y="623" on="0"/>
        <pt x="174" y="622" on="1"/>
      </contour>
    </TTGlyph>
    <TTGlyph name="Rcaron" xMin="87" yMin="0" xMax="573" yMax="908">
      <contour>
        <pt x="284" y="744" on="1"/>
        <pt x="141" y="871" on="1"/>
        <pt x="170" y="908" on="1"/>
        <pt x="300" y="821" on="1"/>
        <pt x="308" y="821" on="1"/>
        <pt x="437" y="908" on="1"/>
        <pt x="467" y="871" on="1"/>
        <pt x="324" y="744" on="1"/>
      </contour>
      <contour>
        <pt x="573" y="0" on="1"/>
        <pt x="479" y="0" on="1"/>
        <pt x="418" y="216" on="1"/>
        <pt x="405" y="255" on="0"/>
        <pt x="361" y="288" on="0"/>
        <pt x="291" y="288" on="0"/>
        <pt x="190" y="289" on="0"/>
        <pt x="174" y="289" on="1"/>
        <pt x="174" y="0" on="1"/>
        <pt x="87" y="0" on="1"/>
        <pt x="87" y="690" on="1"/>
        <pt x="171" y="699" on="0"/>
        <pt x="325" y="699" on="1"/>
        <pt x="448" y="699" on="0"/>
        <pt x="548" y="614" on="0"/>
        <pt x="548" y="500" on="1"/>
        <pt x="548" y="415" on="0"/>
        <pt x="489" y="331" on="0"/>
        <pt x="421" y="322" on="1"/>
        <pt x="421" y="317" on="1"/>
        <pt x="449" y="310" on="0"/>
        <pt x="495" y="259" on="0"/>
        <pt x="506" y="218" on="1"/>
      </contour>
      <contour>
        <pt x="174" y="364" on="1"/>
        <pt x="323" y="364" on="1"/>
        <pt x="401" y="365" on="0"/>
        <pt x="459" y="419" on="0"/>
        <pt x="459" y="495" on="1"/>
        <pt x="459" y="570" on="0"/>
        <pt x="401" y="623" on="0"/>
        <pt x="323" y="623" on="1"/>
        <pt x="213" y="623" on="0"/>
        <pt x="174" y="622" on="1"/>
      </contour>
    </TTGlyph>
    <TTGlyph name="Rcommaaccent" xMin="87" yMin="-273" xMax="573" yMax="699">
      <contour>
        <pt x="573" y="0" on="1"/>
        <pt x="479" y="0" on="1"/>
        <pt x="418" y="216" on="1"/>
        <pt x="405" y="255" on="0"/>
        <pt x="361" y="288" on="0"/>
        <pt x="291" y="288" on="0"/>
        <pt x="190" y="289" on="0"/>
        <pt x="174" y="289" on="1"/>
        <pt x="174" y="0" on="1"/>
        <pt x="87" y="0" on="1"/>
        <pt x="87" y="690" on="1"/>
        <pt x="171" y="699" on="0"/>
        <pt x="325" y="699" on="1"/>
        <pt x="448" y="699" on="0"/>
        <pt x="548" y="614" on="0"/>
        <pt x="548" y="500" on="1"/>
        <pt x="548" y="415" on="0"/>
        <pt x="489" y="331" on="0"/>
        <pt x="421" y="322" on="1"/>
        <pt x="421" y="317" on="1"/>
        <pt x="449" y="310" on="0"/>
        <pt x="495" y="259" on="0"/>
        <pt x="506" y="218" on="1"/>
      </contour>
      <contour>
        <pt x="174" y="364" on="1"/>
        <pt x="323" y="364" on="1"/>
        <pt x="401" y="365" on="0"/>
        <pt x="459" y="419" on="0"/>
        <pt x="459" y="495" on="1"/>
        <pt x="459" y="570" on="0"/>
        <pt x="401" y="623" on="0"/>
        <pt x="323" y="623" on="1"/>
        <pt x="213" y="623" on="0"/>
        <pt x="174" y="622" on="1"/>
      </contour>
      <contour>
        <pt x="317" y="-58" on="1"/>
        <pt x="340" y="-58" on="1"/>
        <pt x="356" y="-58" on="0"/>
        <pt x="368" y="-71" on="0"/>
        <pt x="368" y="-86" on="1"/>
        <pt x="368" y="-141" on="1"/>
        <pt x="367" y="-213" on="0"/>
        <pt x="336" y="-273" on="1"/>
        <pt x="300" y="-263" on="1"/>
        <pt x="309" y="-211" on="0"/>
        <pt x="309" y="-160" on="1"/>
        <pt x="287" y="-160" on="0"/>
        <pt x="287" y="-136" on="1"/>
        <pt x="287" y="-86" on="1"/>
        <pt x="288" y="-58" on="0"/>
      </contour>
    </TTGlyph>
    <TTGlyph name="S" xMin="55" yMin="-12" xMax="510" yMax="702">
      <contour>
        <pt x="334" y="292" on="1"/>
        <pt x="191" y="328" on="1"/>
        <pt x="118" y="346" on="0"/>
        <pt x="55" y="439" on="0"/>
        <pt x="55" y="520" on="1"/>
        <pt x="55" y="580" on="0"/>
        <pt x="80" y="653" on="0"/>
        <pt x="141" y="690" on="0"/>
        <pt x="216" y="702" on="0"/>
        <pt x="279" y="702" on="1"/>
        <pt x="401" y="700" on="0"/>
        <pt x="484" y="682" on="1"/>
        <pt x="478" y="618" on="1"/>
        <pt x="381" y="623" on="0"/>
        <pt x="283" y="623" on="1"/>
        <pt x="239" y="623" on="0"/>
        <pt x="197" y="619" on="0"/>
        <pt x="157" y="599" on="0"/>
        <pt x="144" y="556" on="0"/>
        <pt x="144" y="518" on="1"/>
        <pt x="144" y="463" on="0"/>
        <pt x="183" y="417" on="0"/>
        <pt x="231" y="405" on="1"/>
        <pt x="371" y="370" on="1"/>
        <pt x="448" y="351" on="0"/>
        <pt x="510" y="259" on="0"/>
        <pt x="510" y="176" on="1"/>
        <pt x="510" y="62" on="0"/>
        <pt x="407" y="-12" on="0"/>
        <pt x="279" y="-12" on="1"/>
        <pt x="170" y="-12" on="0"/>
        <pt x="65" y="7" on="1"/>
        <pt x="71" y="72" on="1"/>
        <pt x="239" y="66" on="0"/>
        <pt x="282" y="67" on="1"/>
        <pt x="364" y="67" on="0"/>
        <pt x="421" y="109" on="0"/>
        <pt x="421" y="178" on="1"/>
        <pt x="421" y="235" on="0"/>
        <pt x="382" y="280" on="0"/>
      </contour>
    </TTGlyph>
    <TTGlyph name="Sacute" xMin="55" yMin="-12" xMax="510" yMax="914">
      <contour>
        <pt x="434" y="848" on="1"/>
        <pt x="242" y="728" on="1"/>
        <pt x="213" y="767" on="1"/>
        <pt x="385" y="914" on="1"/>
      </contour>
      <contour>
        <pt x="334" y="292" on="1"/>
        <pt x="191" y="328" on="1"/>
        <pt x="118" y="346" on="0"/>
        <pt x="55" y="439" on="0"/>
        <pt x="55" y="520" on="1"/>
        <pt x="55" y="580" on="0"/>
        <pt x="80" y="653" on="0"/>
        <pt x="141" y="690" on="0"/>
        <pt x="216" y="702" on="0"/>
        <pt x="279" y="702" on="1"/>
        <pt x="401" y="700" on="0"/>
        <pt x="484" y="682" on="1"/>
        <pt x="478" y="618" on="1"/>
        <pt x="381" y="623" on="0"/>
        <pt x="283" y="623" on="1"/>
        <pt x="239" y="623" on="0"/>
        <pt x="197" y="619" on="0"/>
        <pt x="157" y="599" on="0"/>
        <pt x="144" y="556" on="0"/>
        <pt x="144" y="518" on="1"/>
        <pt x="144" y="463" on="0"/>
        <pt x="183" y="417" on="0"/>
        <pt x="231" y="405" on="1"/>
        <pt x="371" y="370" on="1"/>
        <pt x="448" y="351" on="0"/>
        <pt x="510" y="259" on="0"/>
        <pt x="510" y="176" on="1"/>
        <pt x="510" y="62" on="0"/>
        <pt x="407" y="-12" on="0"/>
        <pt x="279" y="-12" on="1"/>
        <pt x="170" y="-12" on="0"/>
        <pt x="65" y="7" on="1"/>
        <pt x="71" y="72" on="1"/>
        <pt x="239" y="66" on="0"/>
        <pt x="282" y="67" on="1"/>
        <pt x="364" y="67" on="0"/>
        <pt x="421" y="109" on="0"/>
        <pt x="421" y="178" on="1"/>
        <pt x="421" y="235" on="0"/>
        <pt x="382" y="280" on="0"/>
      </contour>
    </TTGlyph>
    <TTGlyph name="Scaron" xMin="55" yMin="-12" xMax="510" yMax="908">
      <contour>
        <pt x="443" y="871" on="1"/>
        <pt x="299" y="744" on="1"/>
        <pt x="260" y="744" on="1"/>
        <pt x="117" y="871" on="1"/>
        <pt x="146" y="908" on="1"/>
        <pt x="275" y="821" on="1"/>
        <pt x="283" y="821" on="1"/>
        <pt x="413" y="908" on="1"/>
      </contour>
      <contour>
        <pt x="334" y="292" on="1"/>
        <pt x="191" y="328" on="1"/>
        <pt x="118" y="346" on="0"/>
        <pt x="55" y="439" on="0"/>
        <pt x="55" y="520" on="1"/>
        <pt x="55" y="580" on="0"/>
        <pt x="80" y="653" on="0"/>
        <pt x="141" y="690" on="0"/>
        <pt x="216" y="702" on="0"/>
        <pt x="279" y="702" on="1"/>
        <pt x="401" y="700" on="0"/>
        <pt x="484" y="682" on="1"/>
        <pt x="478" y="618" on="1"/>
        <pt x="381" y="623" on="0"/>
        <pt x="283" y="623" on="1"/>
        <pt x="239" y="623" on="0"/>
        <pt x="197" y="619" on="0"/>
        <pt x="157" y="599" on="0"/>
        <pt x="144" y="556" on="0"/>
        <pt x="144" y="518" on="1"/>
        <pt x="144" y="463" on="0"/>
        <pt x="183" y="417" on="0"/>
        <pt x="231" y="405" on="1"/>
        <pt x="371" y="370" on="1"/>
        <pt x="448" y="351" on="0"/>
        <pt x="510" y="259" on="0"/>
        <pt x="510" y="176" on="1"/>
        <pt x="510" y="62" on="0"/>
        <pt x="407" y="-12" on="0"/>
        <pt x="279" y="-12" on="1"/>
        <pt x="170" y="-12" on="0"/>
        <pt x="65" y="7" on="1"/>
        <pt x="71" y="72" on="1"/>
        <pt x="239" y="66" on="0"/>
        <pt x="282" y="67" on="1"/>
        <pt x="364" y="67" on="0"/>
        <pt x="421" y="109" on="0"/>
        <pt x="421" y="178" on="1"/>
        <pt x="421" y="235" on="0"/>
        <pt x="382" y="280" on="0"/>
      </contour>
    </TTGlyph>
    <TTGlyph name="Scedilla" xMin="55" yMin="-241" xMax="510" yMax="702">
      <contour>
        <pt x="334" y="292" on="1"/>
        <pt x="191" y="328" on="1"/>
        <pt x="118" y="346" on="0"/>
        <pt x="55" y="439" on="0"/>
        <pt x="55" y="520" on="1"/>
        <pt x="55" y="580" on="0"/>
        <pt x="80" y="653" on="0"/>
        <pt x="141" y="690" on="0"/>
        <pt x="216" y="702" on="0"/>
        <pt x="279" y="702" on="1"/>
        <pt x="401" y="700" on="0"/>
        <pt x="484" y="682" on="1"/>
        <pt x="478" y="618" on="1"/>
        <pt x="381" y="623" on="0"/>
        <pt x="283" y="623" on="1"/>
        <pt x="239" y="623" on="0"/>
        <pt x="197" y="619" on="0"/>
        <pt x="157" y="599" on="0"/>
        <pt x="144" y="556" on="0"/>
        <pt x="144" y="518" on="1"/>
        <pt x="144" y="463" on="0"/>
        <pt x="183" y="417" on="0"/>
        <pt x="231" y="405" on="1"/>
        <pt x="371" y="370" on="1"/>
        <pt x="448" y="351" on="0"/>
        <pt x="510" y="259" on="0"/>
        <pt x="510" y="176" on="1"/>
        <pt x="510" y="62" on="0"/>
        <pt x="407" y="-12" on="0"/>
        <pt x="279" y="-12" on="1"/>
        <pt x="170" y="-12" on="0"/>
        <pt x="65" y="7" on="1"/>
        <pt x="71" y="72" on="1"/>
        <pt x="239" y="66" on="0"/>
        <pt x="282" y="67" on="1"/>
        <pt x="364" y="67" on="0"/>
        <pt x="421" y="109" on="0"/>
        <pt x="421" y="178" on="1"/>
        <pt x="421" y="235" on="0"/>
        <pt x="382" y="280" on="0"/>
      </contour>
      <contour>
        <pt x="232" y="-95" on="1"/>
        <pt x="241" y="-55" on="1"/>
        <pt x="302" y="-49" on="0"/>
        <pt x="353" y="-76" on="0"/>
        <pt x="352" y="-120" on="1"/>
        <pt x="351" y="-183" on="0"/>
        <pt x="257" y="-250" on="0"/>
        <pt x="185" y="-241" on="1"/>
        <pt x="198" y="-196" on="1"/>
        <pt x="238" y="-197" on="0"/>
        <pt x="289" y="-158" on="0"/>
        <pt x="291" y="-126" on="1"/>
        <pt x="291" y="-108" on="0"/>
        <pt x="267" y="-95" on="0"/>
      </contour>
    </TTGlyph>
    <TTGlyph name="Scommaaccent" xMin="55" yMin="-273" xMax="510" yMax="702">
      <contour>
        <pt x="334" y="292" on="1"/>
        <pt x="191" y="328" on="1"/>
        <pt x="118" y="346" on="0"/>
        <pt x="55" y="439" on="0"/>
        <pt x="55" y="520" on="1"/>
        <pt x="55" y="580" on="0"/>
        <pt x="80" y="653" on="0"/>
        <pt x="141" y="690" on="0"/>
        <pt x="216" y="702" on="0"/>
        <pt x="279" y="702" on="1"/>
        <pt x="401" y="700" on="0"/>
        <pt x="484" y="682" on="1"/>
        <pt x="478" y="618" on="1"/>
        <pt x="381" y="623" on="0"/>
        <pt x="283" y="623" on="1"/>
        <pt x="239" y="623" on="0"/>
        <pt x="197" y="619" on="0"/>
        <pt x="157" y="599" on="0"/>
        <pt x="144" y="556" on="0"/>
        <pt x="144" y="518" on="1"/>
        <pt x="144" y="463" on="0"/>
        <pt x="183" y="417" on="0"/>
        <pt x="231" y="405" on="1"/>
        <pt x="371" y="370" on="1"/>
        <pt x="448" y="351" on="0"/>
        <pt x="510" y="259" on="0"/>
        <pt x="510" y="176" on="1"/>
        <pt x="510" y="62" on="0"/>
        <pt x="407" y="-12" on="0"/>
        <pt x="279" y="-12" on="1"/>
        <pt x="170" y="-12" on="0"/>
        <pt x="65" y="7" on="1"/>
        <pt x="71" y="72" on="1"/>
        <pt x="239" y="66" on="0"/>
        <pt x="282" y="67" on="1"/>
        <pt x="364" y="67" on="0"/>
        <pt x="421" y="109" on="0"/>
        <pt x="421" y="178" on="1"/>
        <pt x="421" y="235" on="0"/>
        <pt x="382" y="280" on="0"/>
      </contour>
      <contour>
        <pt x="275" y="-58" on="1"/>
        <pt x="297" y="-58" on="1"/>
        <pt x="313" y="-58" on="0"/>
        <pt x="326" y="-71" on="0"/>
        <pt x="326" y="-86" on="1"/>
        <pt x="326" y="-141" on="1"/>
        <pt x="325" y="-210" on="0"/>
        <pt x="294" y="-273" on="1"/>
        <pt x="257" y="-263" on="1"/>
        <pt x="266" y="-211" on="0"/>
        <pt x="266" y="-160" on="1"/>
        <pt x="243" y="-160" on="0"/>
        <pt x="245" y="-136" on="1"/>
        <pt x="245" y="-86" on="1"/>
        <pt x="246" y="-58" on="0"/>
      </contour>
    </TTGlyph>
    <TTGlyph name="T" xMin="24" yMin="0" xMax="557" yMax="690">
      <contour>
        <pt x="557" y="612" on="1"/>
        <pt x="334" y="612" on="1"/>
        <pt x="334" y="0" on="1"/>
        <pt x="246" y="0" on="1"/>
        <pt x="246" y="612" on="1"/>
        <pt x="24" y="612" on="1"/>
        <pt x="24" y="690" on="1"/>
        <pt x="557" y="690" on="1"/>
      </contour>
    </TTGlyph>
    <TTGlyph name="Tbar" xMin="24" yMin="0" xMax="557" yMax="690">
      <contour>
        <pt x="334" y="612" on="1"/>
        <pt x="334" y="421" on="1"/>
        <pt x="474" y="421" on="1"/>
        <pt x="474" y="371" on="1"/>
        <pt x="334" y="371" on="1"/>
        <pt x="334" y="0" on="1"/>
        <pt x="246" y="0" on="1"/>
        <pt x="246" y="371" on="1"/>
        <pt x="105" y="371" on="1"/>
        <pt x="105" y="421" on="1"/>
        <pt x="246" y="421" on="1"/>
        <pt x="246" y="612" on="1"/>
        <pt x="24" y="612" on="1"/>
        <pt x="24" y="690" on="1"/>
        <pt x="557" y="690" on="1"/>
        <pt x="557" y="612" on="1"/>
      </contour>
    </TTGlyph>
    <TTGlyph name="Tcaron" xMin="24" yMin="0" xMax="557" yMax="908">
      <contour>
        <pt x="271" y="744" on="1"/>
        <pt x="128" y="871" on="1"/>
        <pt x="157" y="908" on="1"/>
        <pt x="287" y="821" on="1"/>
        <pt x="295" y="821" on="1"/>
        <pt x="424" y="908" on="1"/>
        <pt x="455" y="871" on="1"/>
        <pt x="311" y="744" on="1"/>
      </contour>
      <contour>
        <pt x="557" y="612" on="1"/>
        <pt x="334" y="612" on="1"/>
        <pt x="334" y="0" on="1"/>
        <pt x="246" y="0" on="1"/>
        <pt x="246" y="612" on="1"/>
        <pt x="24" y="612" on="1"/>
        <pt x="24" y="690" on="1"/>
        <pt x="557" y="690" on="1"/>
      </contour>
    </TTGlyph>
    <TTGlyph name="Tcedilla" xMin="24" yMin="-229" xMax="557" yMax="690">
      <contour>
        <pt x="557" y="690" on="1"/>
        <pt x="557" y="612" on="1"/>
        <pt x="334" y="612" on="1"/>
        <pt x="334" y="0" on="1"/>
        <pt x="246" y="0" on="1"/>
        <pt x="246" y="612" on="1"/>
        <pt x="24" y="612" on="1"/>
        <pt x="24" y="690" on="1"/>
      </contour>
      <contour>
        <pt x="235" y="-83" on="1"/>
        <pt x="244" y="-43" on="1"/>
        <pt x="305" y="-38" on="0"/>
        <pt x="357" y="-65" on="0"/>
        <pt x="356" y="-108" on="1"/>
        <pt x="354" y="-172" on="0"/>
        <pt x="260" y="-239" on="0"/>
        <pt x="188" y="-229" on="1"/>
        <pt x="202" y="-184" on="1"/>
        <pt x="242" y="-185" on="0"/>
        <pt x="293" y="-146" on="0"/>
        <pt x="294" y="-115" on="1"/>
        <pt x="295" y="-97" on="0"/>
        <pt x="271" y="-84" on="0"/>
      </contour>
    </TTGlyph>
    <TTGlyph name="Thorn" xMin="87" yMin="0" xMax="546" yMax="690">
      <contour>
        <pt x="175" y="690" on="1"/>
        <pt x="175" y="565" on="1"/>
        <pt x="216" y="567" on="0"/>
        <pt x="325" y="567" on="1"/>
        <pt x="450" y="567" on="0"/>
        <pt x="546" y="476" on="0"/>
        <pt x="546" y="222" on="0"/>
        <pt x="453" y="131" on="0"/>
        <pt x="334" y="131" on="1"/>
        <pt x="252" y="131" on="0"/>
        <pt x="175" y="140" on="1"/>
        <pt x="175" y="0" on="1"/>
        <pt x="87" y="0" on="1"/>
        <pt x="87" y="559" on="1"/>
        <pt x="87" y="690" on="1"/>
      </contour>
      <contour>
        <pt x="175" y="207" on="1"/>
        <pt x="323" y="207" on="1"/>
        <pt x="400" y="208" on="0"/>
        <pt x="457" y="265" on="0"/>
        <pt x="457" y="349" on="1"/>
        <pt x="457" y="434" on="0"/>
        <pt x="400" y="492" on="0"/>
        <pt x="323" y="492" on="1"/>
        <pt x="214" y="492" on="0"/>
        <pt x="175" y="491" on="1"/>
      </contour>
    </TTGlyph>
    <TTGlyph name="U" xMin="82" yMin="-13" xMax="584" yMax="690">
      <contour>
        <pt x="584" y="690" on="1"/>
        <pt x="584" y="264" on="1"/>
        <pt x="584" y="113" on="0"/>
        <pt x="472" y="-13" on="0"/>
        <pt x="337" y="-13" on="1"/>
        <pt x="197" y="-13" on="0"/>
        <pt x="82" y="113" on="0"/>
        <pt x="82" y="264" on="1"/>
        <pt x="82" y="690" on="1"/>
        <pt x="170" y="690" on="1"/>
        <pt x="170" y="264" on="1"/>
        <pt x="170" y="153" on="0"/>
        <pt x="242" y="66" on="0"/>
        <pt x="333" y="66" on="1"/>
        <pt x="423" y="66" on="0"/>
        <pt x="496" y="153" on="0"/>
        <pt x="496" y="264" on="1"/>
        <pt x="496" y="690" on="1"/>
      </contour>
    </TTGlyph>
    <TTGlyph name="Uacute" xMin="82" yMin="-13" xMax="584" yMax="914">
      <contour>
        <pt x="490" y="848" on="1"/>
        <pt x="298" y="728" on="1"/>
        <pt x="269" y="767" on="1"/>
        <pt x="441" y="914" on="1"/>
      </contour>
      <contour>
        <pt x="584" y="690" on="1"/>
        <pt x="584" y="264" on="1"/>
        <pt x="584" y="113" on="0"/>
        <pt x="472" y="-13" on="0"/>
        <pt x="337" y="-13" on="1"/>
        <pt x="197" y="-13" on="0"/>
        <pt x="82" y="113" on="0"/>
        <pt x="82" y="264" on="1"/>
        <pt x="82" y="690" on="1"/>
        <pt x="170" y="690" on="1"/>
        <pt x="170" y="264" on="1"/>
        <pt x="170" y="153" on="0"/>
        <pt x="242" y="66" on="0"/>
        <pt x="333" y="66" on="1"/>
        <pt x="423" y="66" on="0"/>
        <pt x="496" y="153" on="0"/>
        <pt x="496" y="264" on="1"/>
        <pt x="496" y="690" on="1"/>
      </contour>
    </TTGlyph>
    <TTGlyph name="Ucircumflex" xMin="82" yMin="-13" xMax="584" yMax="896">
      <contour>
        <pt x="497" y="769" on="1"/>
        <pt x="467" y="732" on="1"/>
        <pt x="338" y="830" on="1"/>
        <pt x="330" y="830" on="1"/>
        <pt x="200" y="732" on="1"/>
        <pt x="171" y="769" on="1"/>
        <pt x="303" y="896" on="1"/>
        <pt x="365" y="896" on="1"/>
      </contour>
      <contour>
        <pt x="584" y="690" on="1"/>
        <pt x="584" y="264" on="1"/>
        <pt x="584" y="113" on="0"/>
        <pt x="472" y="-13" on="0"/>
        <pt x="337" y="-13" on="1"/>
        <pt x="197" y="-13" on="0"/>
        <pt x="82" y="113" on="0"/>
        <pt x="82" y="264" on="1"/>
        <pt x="82" y="690" on="1"/>
        <pt x="170" y="690" on="1"/>
        <pt x="170" y="264" on="1"/>
        <pt x="170" y="153" on="0"/>
        <pt x="242" y="66" on="0"/>
        <pt x="333" y="66" on="1"/>
        <pt x="423" y="66" on="0"/>
        <pt x="496" y="153" on="0"/>
        <pt x="496" y="264" on="1"/>
        <pt x="496" y="690" on="1"/>
      </contour>
    </TTGlyph>
    <TTGlyph name="Udieresis" xMin="82" yMin="-13" xMax="584" yMax="870">
      <contour>
        <pt x="231" y="870" on="1"/>
        <pt x="260" y="870" on="1"/>
        <pt x="283" y="870" on="0"/>
        <pt x="283" y="846" on="1"/>
        <pt x="283" y="791" on="1"/>
        <pt x="283" y="767" on="0"/>
        <pt x="260" y="767" on="1"/>
        <pt x="231" y="767" on="1"/>
        <pt x="208" y="767" on="0"/>
        <pt x="208" y="791" on="1"/>
        <pt x="208" y="846" on="1"/>
        <pt x="208" y="870" on="0"/>
      </contour>
      <contour>
        <pt x="409" y="870" on="1"/>
        <pt x="437" y="870" on="1"/>
        <pt x="461" y="870" on="0"/>
        <pt x="461" y="846" on="1"/>
        <pt x="461" y="791" on="1"/>
        <pt x="461" y="767" on="0"/>
        <pt x="437" y="767" on="1"/>
        <pt x="409" y="767" on="1"/>
        <pt x="385" y="767" on="0"/>
        <pt x="385" y="791" on="1"/>
        <pt x="385" y="846" on="1"/>
        <pt x="385" y="870" on="0"/>
      </contour>
      <contour>
        <pt x="584" y="690" on="1"/>
        <pt x="584" y="264" on="1"/>
        <pt x="584" y="113" on="0"/>
        <pt x="472" y="-13" on="0"/>
        <pt x="337" y="-13" on="1"/>
        <pt x="197" y="-13" on="0"/>
        <pt x="82" y="113" on="0"/>
        <pt x="82" y="264" on="1"/>
        <pt x="82" y="690" on="1"/>
        <pt x="170" y="690" on="1"/>
        <pt x="170" y="264" on="1"/>
        <pt x="170" y="153" on="0"/>
        <pt x="242" y="66" on="0"/>
        <pt x="333" y="66" on="1"/>
        <pt x="423" y="66" on="0"/>
        <pt x="496" y="153" on="0"/>
        <pt x="496" y="264" on="1"/>
        <pt x="496" y="690" on="1"/>
      </contour>
    </TTGlyph>
    <TTGlyph name="Ugrave" xMin="82" yMin="-13" xMax="584" yMax="914">
      <contour>
        <pt x="384" y="767" on="1"/>
        <pt x="355" y="728" on="1"/>
        <pt x="163" y="848" on="1"/>
        <pt x="212" y="914" on="1"/>
      </contour>
      <contour>
        <pt x="584" y="690" on="1"/>
        <pt x="584" y="264" on="1"/>
        <pt x="584" y="113" on="0"/>
        <pt x="472" y="-13" on="0"/>
        <pt x="337" y="-13" on="1"/>
        <pt x="197" y="-13" on="0"/>
        <pt x="82" y="113" on="0"/>
        <pt x="82" y="264" on="1"/>
        <pt x="82" y="690" on="1"/>
        <pt x="170" y="690" on="1"/>
        <pt x="170" y="264" on="1"/>
        <pt x="170" y="153" on="0"/>
        <pt x="242" y="66" on="0"/>
        <pt x="333" y="66" on="1"/>
        <pt x="423" y="66" on="0"/>
        <pt x="496" y="153" on="0"/>
        <pt x="496" y="264" on="1"/>
        <pt x="496" y="690" on="1"/>
      </contour>
    </TTGlyph>
    <TTGlyph name="Uhungarumlaut" xMin="82" yMin="-13" xMax="584" yMax="924">
      <contour>
        <pt x="539" y="882" on="1"/>
        <pt x="404" y="722" on="1"/>
        <pt x="367" y="750" on="1"/>
        <pt x="477" y="924" on="1"/>
      </contour>
      <contour>
        <pt x="375" y="882" on="1"/>
        <pt x="240" y="722" on="1"/>
        <pt x="202" y="750" on="1"/>
        <pt x="313" y="924" on="1"/>
      </contour>
      <contour>
        <pt x="584" y="690" on="1"/>
        <pt x="584" y="264" on="1"/>
        <pt x="584" y="113" on="0"/>
        <pt x="472" y="-13" on="0"/>
        <pt x="337" y="-13" on="1"/>
        <pt x="197" y="-13" on="0"/>
        <pt x="82" y="113" on="0"/>
        <pt x="82" y="264" on="1"/>
        <pt x="82" y="690" on="1"/>
        <pt x="170" y="690" on="1"/>
        <pt x="170" y="264" on="1"/>
        <pt x="170" y="153" on="0"/>
        <pt x="242" y="66" on="0"/>
        <pt x="333" y="66" on="1"/>
        <pt x="423" y="66" on="0"/>
        <pt x="496" y="153" on="0"/>
        <pt x="496" y="264" on="1"/>
        <pt x="496" y="690" on="1"/>
      </contour>
    </TTGlyph>
    <TTGlyph name="Umacron" xMin="82" yMin="-13" xMax="584" yMax="849">
      <contour>
        <pt x="474" y="786" on="1"/>
        <pt x="195" y="786" on="1"/>
        <pt x="195" y="849" on="1"/>
        <pt x="474" y="849" on="1"/>
      </contour>
      <contour>
        <pt x="584" y="690" on="1"/>
        <pt x="584" y="264" on="1"/>
        <pt x="584" y="113" on="0"/>
        <pt x="472" y="-13" on="0"/>
        <pt x="337" y="-13" on="1"/>
        <pt x="197" y="-13" on="0"/>
        <pt x="82" y="113" on="0"/>
        <pt x="82" y="264" on="1"/>
        <pt x="82" y="690" on="1"/>
        <pt x="170" y="690" on="1"/>
        <pt x="170" y="264" on="1"/>
        <pt x="170" y="153" on="0"/>
        <pt x="242" y="66" on="0"/>
        <pt x="333" y="66" on="1"/>
        <pt x="423" y="66" on="0"/>
        <pt x="496" y="153" on="0"/>
        <pt x="496" y="264" on="1"/>
        <pt x="496" y="690" on="1"/>
      </contour>
    </TTGlyph>
    <TTGlyph name="Uogonek" xMin="82" yMin="-211" xMax="584" yMax="690">
      <contour>
        <pt x="584" y="690" on="1"/>
        <pt x="584" y="264" on="1"/>
        <pt x="584" y="123" on="0"/>
        <pt x="487" y="-5" on="0"/>
        <pt x="372" y="-12" on="1"/>
        <pt x="320" y="-71" on="0"/>
        <pt x="300" y="-123" on="1"/>
        <pt x="285" y="-159" on="0"/>
        <pt x="330" y="-183" on="0"/>
        <pt x="378" y="-167" on="1"/>
        <pt x="388" y="-202" on="1"/>
        <pt x="296" y="-237" on="0"/>
        <pt x="219" y="-184" on="0"/>
        <pt x="240" y="-126" on="1"/>
        <pt x="260" y="-69" on="0"/>
        <pt x="329" y="-13" on="1"/>
        <pt x="194" y="-11" on="0"/>
        <pt x="82" y="116" on="0"/>
        <pt x="82" y="264" on="1"/>
        <pt x="82" y="690" on="1"/>
        <pt x="170" y="690" on="1"/>
        <pt x="170" y="264" on="1"/>
        <pt x="170" y="153" on="0"/>
        <pt x="242" y="66" on="0"/>
        <pt x="333" y="66" on="1"/>
        <pt x="423" y="66" on="0"/>
        <pt x="496" y="153" on="0"/>
        <pt x="496" y="264" on="1"/>
        <pt x="496" y="690" on="1"/>
      </contour>
    </TTGlyph>
    <TTGlyph name="Uring" xMin="82" yMin="-13" xMax="584" yMax="924">
      <contour>
        <pt x="290" y="924" on="0"/>
        <pt x="378" y="924" on="0"/>
        <pt x="441" y="863" on="0"/>
        <pt x="441" y="775" on="0"/>
        <pt x="379" y="715" on="0"/>
        <pt x="289" y="715" on="0"/>
        <pt x="227" y="775" on="0"/>
        <pt x="227" y="863" on="0"/>
      </contour>
      <contour>
        <pt x="360" y="881" on="0"/>
        <pt x="308" y="881" on="0"/>
        <pt x="275" y="847" on="0"/>
        <pt x="275" y="819" on="1"/>
        <pt x="275" y="792" on="0"/>
        <pt x="309" y="758" on="0"/>
        <pt x="334" y="758" on="1"/>
        <pt x="360" y="758" on="0"/>
        <pt x="394" y="792" on="0"/>
        <pt x="394" y="846" on="0"/>
      </contour>
      <contour>
        <pt x="584" y="690" on="1"/>
        <pt x="584" y="264" on="1"/>
        <pt x="584" y="113" on="0"/>
        <pt x="472" y="-13" on="0"/>
        <pt x="337" y="-13" on="1"/>
        <pt x="197" y="-13" on="0"/>
        <pt x="82" y="113" on="0"/>
        <pt x="82" y="264" on="1"/>
        <pt x="82" y="690" on="1"/>
        <pt x="170" y="690" on="1"/>
        <pt x="170" y="264" on="1"/>
        <pt x="170" y="153" on="0"/>
        <pt x="242" y="66" on="0"/>
        <pt x="333" y="66" on="1"/>
        <pt x="423" y="66" on="0"/>
        <pt x="496" y="153" on="0"/>
        <pt x="496" y="264" on="1"/>
        <pt x="496" y="690" on="1"/>
      </contour>
    </TTGlyph>
    <TTGlyph name="V" xMin="17" yMin="0" xMax="592" yMax="690">
      <contour>
        <pt x="592" y="690" on="1"/>
        <pt x="383" y="25" on="1"/>
        <pt x="374" y="0" on="0"/>
        <pt x="349" y="0" on="1"/>
        <pt x="260" y="0" on="1"/>
        <pt x="233" y="0" on="0"/>
        <pt x="226" y="25" on="1"/>
        <pt x="17" y="690" on="1"/>
        <pt x="108" y="690" on="1"/>
        <pt x="271" y="143" on="1"/>
        <pt x="285" y="93" on="0"/>
        <pt x="291" y="68" on="1"/>
        <pt x="318" y="68" on="1"/>
        <pt x="328" y="109" on="0"/>
        <pt x="339" y="144" on="1"/>
        <pt x="501" y="690" on="1"/>
      </contour>
    </TTGlyph>
    <TTGlyph name="W" xMin="31" yMin="0" xMax="917" yMax="690">
      <contour>
        <pt x="917" y="690" on="1"/>
        <pt x="777" y="26" on="1"/>
        <pt x="770" y="0" on="0"/>
        <pt x="742" y="0" on="1"/>
        <pt x="642" y="0" on="1"/>
        <pt x="613" y="0" on="0"/>
        <pt x="608" y="27" on="1"/>
        <pt x="500" y="546" on="1"/>
        <pt x="494" y="572" on="0"/>
        <pt x="484" y="624" on="1"/>
        <pt x="463" y="624" on="1"/>
        <pt x="448" y="546" on="1"/>
        <pt x="341" y="27" on="1"/>
        <pt x="334" y="0" on="0"/>
        <pt x="306" y="0" on="1"/>
        <pt x="205" y="0" on="1"/>
        <pt x="192" y="0" on="0"/>
        <pt x="173" y="15" on="0"/>
        <pt x="171" y="26" on="1"/>
        <pt x="31" y="690" on="1"/>
        <pt x="124" y="690" on="1"/>
        <pt x="232" y="152" on="1"/>
        <pt x="234" y="143" on="0"/>
        <pt x="246" y="67" on="1"/>
        <pt x="269" y="67" on="1"/>
        <pt x="277" y="114" on="0"/>
        <pt x="285" y="152" on="1"/>
        <pt x="392" y="661" on="1"/>
        <pt x="397" y="690" on="0"/>
        <pt x="426" y="690" on="1"/>
        <pt x="522" y="690" on="1"/>
        <pt x="549" y="690" on="0"/>
        <pt x="556" y="661" on="1"/>
        <pt x="663" y="152" on="1"/>
        <pt x="673" y="103" on="0"/>
        <pt x="677" y="67" on="1"/>
        <pt x="702" y="67" on="1"/>
        <pt x="711" y="127" on="0"/>
        <pt x="715" y="151" on="1"/>
        <pt x="824" y="690" on="1"/>
      </contour>
    </TTGlyph>
    <TTGlyph name="Wacute" xMin="31" yMin="0" xMax="917" yMax="913">
      <contour>
        <pt x="630" y="848" on="1"/>
        <pt x="439" y="727" on="1"/>
        <pt x="409" y="766" on="1"/>
        <pt x="582" y="913" on="1"/>
      </contour>
      <contour>
        <pt x="917" y="690" on="1"/>
        <pt x="777" y="26" on="1"/>
        <pt x="770" y="0" on="0"/>
        <pt x="742" y="0" on="1"/>
        <pt x="642" y="0" on="1"/>
        <pt x="613" y="0" on="0"/>
        <pt x="608" y="27" on="1"/>
        <pt x="500" y="546" on="1"/>
        <pt x="494" y="572" on="0"/>
        <pt x="484" y="624" on="1"/>
        <pt x="463" y="624" on="1"/>
        <pt x="448" y="546" on="1"/>
        <pt x="341" y="27" on="1"/>
        <pt x="334" y="0" on="0"/>
        <pt x="306" y="0" on="1"/>
        <pt x="205" y="0" on="1"/>
        <pt x="192" y="0" on="0"/>
        <pt x="173" y="15" on="0"/>
        <pt x="171" y="26" on="1"/>
        <pt x="31" y="690" on="1"/>
        <pt x="124" y="690" on="1"/>
        <pt x="232" y="152" on="1"/>
        <pt x="234" y="143" on="0"/>
        <pt x="246" y="67" on="1"/>
        <pt x="269" y="67" on="1"/>
        <pt x="277" y="114" on="0"/>
        <pt x="285" y="152" on="1"/>
        <pt x="392" y="661" on="1"/>
        <pt x="397" y="690" on="0"/>
        <pt x="426" y="690" on="1"/>
        <pt x="522" y="690" on="1"/>
        <pt x="549" y="690" on="0"/>
        <pt x="556" y="661" on="1"/>
        <pt x="663" y="152" on="1"/>
        <pt x="673" y="103" on="0"/>
        <pt x="677" y="67" on="1"/>
        <pt x="702" y="67" on="1"/>
        <pt x="711" y="127" on="0"/>
        <pt x="715" y="151" on="1"/>
        <pt x="824" y="690" on="1"/>
      </contour>
    </TTGlyph>
    <TTGlyph name="Wcircumflex" xMin="31" yMin="0" xMax="917" yMax="896">
      <contour>
        <pt x="638" y="768" on="1"/>
        <pt x="608" y="732" on="1"/>
        <pt x="478" y="829" on="1"/>
        <pt x="470" y="829" on="1"/>
        <pt x="341" y="732" on="1"/>
        <pt x="312" y="768" on="1"/>
        <pt x="443" y="896" on="1"/>
        <pt x="505" y="896" on="1"/>
      </contour>
      <contour>
        <pt x="917" y="690" on="1"/>
        <pt x="777" y="26" on="1"/>
        <pt x="770" y="0" on="0"/>
        <pt x="742" y="0" on="1"/>
        <pt x="642" y="0" on="1"/>
        <pt x="613" y="0" on="0"/>
        <pt x="608" y="27" on="1"/>
        <pt x="500" y="546" on="1"/>
        <pt x="494" y="572" on="0"/>
        <pt x="484" y="624" on="1"/>
        <pt x="463" y="624" on="1"/>
        <pt x="448" y="546" on="1"/>
        <pt x="341" y="27" on="1"/>
        <pt x="334" y="0" on="0"/>
        <pt x="306" y="0" on="1"/>
        <pt x="205" y="0" on="1"/>
        <pt x="192" y="0" on="0"/>
        <pt x="173" y="15" on="0"/>
        <pt x="171" y="26" on="1"/>
        <pt x="31" y="690" on="1"/>
        <pt x="124" y="690" on="1"/>
        <pt x="232" y="152" on="1"/>
        <pt x="234" y="143" on="0"/>
        <pt x="246" y="67" on="1"/>
        <pt x="269" y="67" on="1"/>
        <pt x="277" y="114" on="0"/>
        <pt x="285" y="152" on="1"/>
        <pt x="392" y="661" on="1"/>
        <pt x="397" y="690" on="0"/>
        <pt x="426" y="690" on="1"/>
        <pt x="522" y="690" on="1"/>
        <pt x="549" y="690" on="0"/>
        <pt x="556" y="661" on="1"/>
        <pt x="663" y="152" on="1"/>
        <pt x="673" y="103" on="0"/>
        <pt x="677" y="67" on="1"/>
        <pt x="702" y="67" on="1"/>
        <pt x="711" y="127" on="0"/>
        <pt x="715" y="151" on="1"/>
        <pt x="824" y="690" on="1"/>
      </contour>
    </TTGlyph>
    <TTGlyph name="Wdieresis" xMin="31" yMin="0" xMax="917" yMax="869">
      <contour>
        <pt x="371" y="869" on="1"/>
        <pt x="400" y="869" on="1"/>
        <pt x="423" y="869" on="0"/>
        <pt x="423" y="845" on="1"/>
        <pt x="423" y="790" on="1"/>
        <pt x="423" y="766" on="0"/>
        <pt x="400" y="766" on="1"/>
        <pt x="371" y="766" on="1"/>
        <pt x="348" y="766" on="0"/>
        <pt x="348" y="790" on="1"/>
        <pt x="348" y="845" on="1"/>
        <pt x="348" y="869" on="0"/>
      </contour>
      <contour>
        <pt x="549" y="869" on="1"/>
        <pt x="577" y="869" on="1"/>
        <pt x="601" y="869" on="0"/>
        <pt x="601" y="845" on="1"/>
        <pt x="601" y="790" on="1"/>
        <pt x="601" y="766" on="0"/>
        <pt x="577" y="766" on="1"/>
        <pt x="549" y="766" on="1"/>
        <pt x="525" y="766" on="0"/>
        <pt x="525" y="790" on="1"/>
        <pt x="525" y="845" on="1"/>
        <pt x="525" y="869" on="0"/>
      </contour>
      <contour>
        <pt x="917" y="690" on="1"/>
        <pt x="777" y="26" on="1"/>
        <pt x="770" y="0" on="0"/>
        <pt x="742" y="0" on="1"/>
        <pt x="642" y="0" on="1"/>
        <pt x="613" y="0" on="0"/>
        <pt x="608" y="27" on="1"/>
        <pt x="500" y="546" on="1"/>
        <pt x="494" y="572" on="0"/>
        <pt x="484" y="624" on="1"/>
        <pt x="463" y="624" on="1"/>
        <pt x="448" y="546" on="1"/>
        <pt x="341" y="27" on="1"/>
        <pt x="334" y="0" on="0"/>
        <pt x="306" y="0" on="1"/>
        <pt x="205" y="0" on="1"/>
        <pt x="192" y="0" on="0"/>
        <pt x="173" y="15" on="0"/>
        <pt x="171" y="26" on="1"/>
        <pt x="31" y="690" on="1"/>
        <pt x="124" y="690" on="1"/>
        <pt x="232" y="152" on="1"/>
        <pt x="234" y="143" on="0"/>
        <pt x="246" y="67" on="1"/>
        <pt x="269" y="67" on="1"/>
        <pt x="277" y="114" on="0"/>
        <pt x="285" y="152" on="1"/>
        <pt x="392" y="661" on="1"/>
        <pt x="397" y="690" on="0"/>
        <pt x="426" y="690" on="1"/>
        <pt x="522" y="690" on="1"/>
        <pt x="549" y="690" on="0"/>
        <pt x="556" y="661" on="1"/>
        <pt x="663" y="152" on="1"/>
        <pt x="673" y="103" on="0"/>
        <pt x="677" y="67" on="1"/>
        <pt x="702" y="67" on="1"/>
        <pt x="711" y="127" on="0"/>
        <pt x="715" y="151" on="1"/>
        <pt x="824" y="690" on="1"/>
      </contour>
    </TTGlyph>
    <TTGlyph name="Wgrave" xMin="31" yMin="0" xMax="917" yMax="913">
      <contour>
        <pt x="524" y="766" on="1"/>
        <pt x="495" y="727" on="1"/>
        <pt x="303" y="848" on="1"/>
        <pt x="352" y="913" on="1"/>
      </contour>
      <contour>
        <pt x="917" y="690" on="1"/>
        <pt x="777" y="26" on="1"/>
        <pt x="770" y="0" on="0"/>
        <pt x="742" y="0" on="1"/>
        <pt x="642" y="0" on="1"/>
        <pt x="613" y="0" on="0"/>
        <pt x="608" y="27" on="1"/>
        <pt x="500" y="546" on="1"/>
        <pt x="494" y="572" on="0"/>
        <pt x="484" y="624" on="1"/>
        <pt x="463" y="624" on="1"/>
        <pt x="448" y="546" on="1"/>
        <pt x="341" y="27" on="1"/>
        <pt x="334" y="0" on="0"/>
        <pt x="306" y="0" on="1"/>
        <pt x="205" y="0" on="1"/>
        <pt x="192" y="0" on="0"/>
        <pt x="173" y="15" on="0"/>
        <pt x="171" y="26" on="1"/>
        <pt x="31" y="690" on="1"/>
        <pt x="124" y="690" on="1"/>
        <pt x="232" y="152" on="1"/>
        <pt x="234" y="143" on="0"/>
        <pt x="246" y="67" on="1"/>
        <pt x="269" y="67" on="1"/>
        <pt x="277" y="114" on="0"/>
        <pt x="285" y="152" on="1"/>
        <pt x="392" y="661" on="1"/>
        <pt x="397" y="690" on="0"/>
        <pt x="426" y="690" on="1"/>
        <pt x="522" y="690" on="1"/>
        <pt x="549" y="690" on="0"/>
        <pt x="556" y="661" on="1"/>
        <pt x="663" y="152" on="1"/>
        <pt x="673" y="103" on="0"/>
        <pt x="677" y="67" on="1"/>
        <pt x="702" y="67" on="1"/>
        <pt x="711" y="127" on="0"/>
        <pt x="715" y="151" on="1"/>
        <pt x="824" y="690" on="1"/>
      </contour>
    </TTGlyph>
    <TTGlyph name="X" xMin="25" yMin="0" xMax="586" yMax="690">
      <contour>
        <pt x="318" y="324" on="1"/>
        <pt x="292" y="324" on="1"/>
        <pt x="121" y="0" on="1"/>
        <pt x="25" y="0" on="1"/>
        <pt x="219" y="357" on="1"/>
        <pt x="38" y="690" on="1"/>
        <pt x="133" y="690" on="1"/>
        <pt x="291" y="392" on="1"/>
        <pt x="320" y="392" on="1"/>
        <pt x="478" y="690" on="1"/>
        <pt x="573" y="690" on="1"/>
        <pt x="391" y="357" on="1"/>
        <pt x="586" y="0" on="1"/>
        <pt x="490" y="0" on="1"/>
      </contour>
    </TTGlyph>
    <TTGlyph name="Y" xMin="11" yMin="0" xMax="557" yMax="690">
      <contour>
        <pt x="328" y="242" on="1"/>
        <pt x="328" y="0" on="1"/>
        <pt x="240" y="0" on="1"/>
        <pt x="240" y="243" on="1"/>
        <pt x="11" y="690" on="1"/>
        <pt x="105" y="690" on="1"/>
        <pt x="250" y="399" on="1"/>
        <pt x="262" y="375" on="0"/>
        <pt x="281" y="321" on="1"/>
        <pt x="288" y="321" on="1"/>
        <pt x="304" y="365" on="0"/>
        <pt x="319" y="398" on="1"/>
        <pt x="464" y="690" on="1"/>
        <pt x="557" y="690" on="1"/>
      </contour>
    </TTGlyph>
    <TTGlyph name="Yacute" xMin="11" yMin="0" xMax="557" yMax="914">
      <contour>
        <pt x="248" y="728" on="1"/>
        <pt x="219" y="767" on="1"/>
        <pt x="391" y="914" on="1"/>
        <pt x="440" y="848" on="1"/>
      </contour>
      <contour>
        <pt x="328" y="242" on="1"/>
        <pt x="328" y="0" on="1"/>
        <pt x="240" y="0" on="1"/>
        <pt x="240" y="243" on="1"/>
        <pt x="11" y="690" on="1"/>
        <pt x="105" y="690" on="1"/>
        <pt x="250" y="399" on="1"/>
        <pt x="262" y="375" on="0"/>
        <pt x="281" y="321" on="1"/>
        <pt x="288" y="321" on="1"/>
        <pt x="304" y="365" on="0"/>
        <pt x="319" y="398" on="1"/>
        <pt x="464" y="690" on="1"/>
        <pt x="557" y="690" on="1"/>
      </contour>
    </TTGlyph>
    <TTGlyph name="Ycircumflex" xMin="11" yMin="0" xMax="557" yMax="896">
      <contour>
        <pt x="150" y="732" on="1"/>
        <pt x="121" y="769" on="1"/>
        <pt x="253" y="896" on="1"/>
        <pt x="315" y="896" on="1"/>
        <pt x="447" y="769" on="1"/>
        <pt x="417" y="732" on="1"/>
        <pt x="288" y="830" on="1"/>
        <pt x="280" y="830" on="1"/>
      </contour>
      <contour>
        <pt x="328" y="242" on="1"/>
        <pt x="328" y="0" on="1"/>
        <pt x="240" y="0" on="1"/>
        <pt x="240" y="243" on="1"/>
        <pt x="11" y="690" on="1"/>
        <pt x="105" y="690" on="1"/>
        <pt x="250" y="399" on="1"/>
        <pt x="262" y="375" on="0"/>
        <pt x="281" y="321" on="1"/>
        <pt x="288" y="321" on="1"/>
        <pt x="304" y="365" on="0"/>
        <pt x="319" y="398" on="1"/>
        <pt x="464" y="690" on="1"/>
        <pt x="557" y="690" on="1"/>
      </contour>
    </TTGlyph>
    <TTGlyph name="Ydieresis" xMin="11" yMin="0" xMax="557" yMax="870">
      <contour>
        <pt x="210" y="767" on="1"/>
        <pt x="181" y="767" on="1"/>
        <pt x="158" y="767" on="0"/>
        <pt x="158" y="791" on="1"/>
        <pt x="158" y="846" on="1"/>
        <pt x="158" y="870" on="0"/>
        <pt x="181" y="870" on="1"/>
        <pt x="210" y="870" on="1"/>
        <pt x="233" y="870" on="0"/>
        <pt x="233" y="846" on="1"/>
        <pt x="233" y="791" on="1"/>
        <pt x="233" y="767" on="0"/>
      </contour>
      <contour>
        <pt x="387" y="767" on="1"/>
        <pt x="358" y="767" on="1"/>
        <pt x="335" y="767" on="0"/>
        <pt x="335" y="791" on="1"/>
        <pt x="335" y="846" on="1"/>
        <pt x="335" y="870" on="0"/>
        <pt x="358" y="870" on="1"/>
        <pt x="387" y="870" on="1"/>
        <pt x="411" y="870" on="0"/>
        <pt x="411" y="846" on="1"/>
        <pt x="411" y="791" on="1"/>
        <pt x="411" y="767" on="0"/>
      </contour>
      <contour>
        <pt x="328" y="242" on="1"/>
        <pt x="328" y="0" on="1"/>
        <pt x="240" y="0" on="1"/>
        <pt x="240" y="243" on="1"/>
        <pt x="11" y="690" on="1"/>
        <pt x="105" y="690" on="1"/>
        <pt x="250" y="399" on="1"/>
        <pt x="262" y="375" on="0"/>
        <pt x="281" y="321" on="1"/>
        <pt x="288" y="321" on="1"/>
        <pt x="304" y="365" on="0"/>
        <pt x="319" y="398" on="1"/>
        <pt x="464" y="690" on="1"/>
        <pt x="557" y="690" on="1"/>
      </contour>
    </TTGlyph>
    <TTGlyph name="Ygrave" xMin="11" yMin="0" xMax="557" yMax="914">
      <contour>
        <pt x="304" y="728" on="1"/>
        <pt x="113" y="848" on="1"/>
        <pt x="161" y="914" on="1"/>
        <pt x="334" y="767" on="1"/>
      </contour>
      <contour>
        <pt x="328" y="242" on="1"/>
        <pt x="328" y="0" on="1"/>
        <pt x="240" y="0" on="1"/>
        <pt x="240" y="243" on="1"/>
        <pt x="11" y="690" on="1"/>
        <pt x="105" y="690" on="1"/>
        <pt x="250" y="399" on="1"/>
        <pt x="262" y="375" on="0"/>
        <pt x="281" y="321" on="1"/>
        <pt x="288" y="321" on="1"/>
        <pt x="304" y="365" on="0"/>
        <pt x="319" y="398" on="1"/>
        <pt x="464" y="690" on="1"/>
        <pt x="557" y="690" on="1"/>
      </contour>
    </TTGlyph>
    <TTGlyph name="Z" xMin="48" yMin="0" xMax="519" yMax="690">
      <contour>
        <pt x="519" y="75" on="1"/>
        <pt x="519" y="0" on="1"/>
        <pt x="48" y="0" on="1"/>
        <pt x="48" y="75" on="1"/>
        <pt x="416" y="615" on="1"/>
        <pt x="54" y="615" on="1"/>
        <pt x="54" y="690" on="1"/>
        <pt x="512" y="690" on="1"/>
        <pt x="512" y="615" on="1"/>
        <pt x="146" y="75" on="1"/>
      </contour>
    </TTGlyph>
    <TTGlyph name="Zacute" xMin="48" yMin="0" xMax="519" yMax="914">
      <contour>
        <pt x="249" y="728" on="1"/>
        <pt x="220" y="767" on="1"/>
        <pt x="392" y="914" on="1"/>
        <pt x="441" y="848" on="1"/>
      </contour>
      <contour>
        <pt x="519" y="75" on="1"/>
        <pt x="519" y="0" on="1"/>
        <pt x="48" y="0" on="1"/>
        <pt x="48" y="75" on="1"/>
        <pt x="416" y="615" on="1"/>
        <pt x="54" y="615" on="1"/>
        <pt x="54" y="690" on="1"/>
        <pt x="512" y="690" on="1"/>
        <pt x="512" y="615" on="1"/>
        <pt x="146" y="75" on="1"/>
      </contour>
    </TTGlyph>
    <TTGlyph name="Zcaron" xMin="48" yMin="0" xMax="519" yMax="908">
      <contour>
        <pt x="267" y="744" on="1"/>
        <pt x="124" y="871" on="1"/>
        <pt x="153" y="908" on="1"/>
        <pt x="282" y="821" on="1"/>
        <pt x="290" y="821" on="1"/>
        <pt x="420" y="908" on="1"/>
        <pt x="450" y="871" on="1"/>
        <pt x="306" y="744" on="1"/>
      </contour>
      <contour>
        <pt x="519" y="75" on="1"/>
        <pt x="519" y="0" on="1"/>
        <pt x="48" y="0" on="1"/>
        <pt x="48" y="75" on="1"/>
        <pt x="416" y="615" on="1"/>
        <pt x="54" y="615" on="1"/>
        <pt x="54" y="690" on="1"/>
        <pt x="512" y="690" on="1"/>
        <pt x="512" y="615" on="1"/>
        <pt x="146" y="75" on="1"/>
      </contour>
    </TTGlyph>
    <TTGlyph name="Zdotaccent" xMin="48" yMin="0" xMax="519" yMax="867">
      <contour>
        <pt x="299" y="759" on="1"/>
        <pt x="272" y="759" on="1"/>
        <pt x="246" y="759" on="0"/>
        <pt x="246" y="785" on="1"/>
        <pt x="246" y="841" on="1"/>
        <pt x="246" y="867" on="0"/>
        <pt x="272" y="867" on="1"/>
        <pt x="299" y="867" on="1"/>
        <pt x="325" y="867" on="0"/>
        <pt x="325" y="841" on="1"/>
        <pt x="325" y="785" on="1"/>
        <pt x="325" y="759" on="0"/>
      </contour>
      <contour>
        <pt x="519" y="75" on="1"/>
        <pt x="519" y="0" on="1"/>
        <pt x="48" y="0" on="1"/>
        <pt x="48" y="75" on="1"/>
        <pt x="416" y="615" on="1"/>
        <pt x="54" y="615" on="1"/>
        <pt x="54" y="690" on="1"/>
        <pt x="512" y="690" on="1"/>
        <pt x="512" y="615" on="1"/>
        <pt x="146" y="75" on="1"/>
      </contour>
    </TTGlyph>
    <TTGlyph name="a" xMin="51" yMin="-9" xMax="475" yMax="499">
      <contour>
        <pt x="81" y="414" on="1"/>
        <pt x="73" y="477" on="1"/>
        <pt x="207" y="499" on="0"/>
        <pt x="308" y="499" on="1"/>
        <pt x="393" y="499" on="0"/>
        <pt x="475" y="428" on="0"/>
        <pt x="475" y="343" on="1"/>
        <pt x="475" y="0" on="1"/>
        <pt x="408" y="0" on="1"/>
        <pt x="398" y="80" on="1"/>
        <pt x="363" y="45" on="0"/>
        <pt x="258" y="-9" on="0"/>
        <pt x="197" y="-9" on="1"/>
        <pt x="130" y="-9" on="0"/>
        <pt x="51" y="62" on="0"/>
        <pt x="51" y="127" on="1"/>
        <pt x="51" y="180" on="1"/>
        <pt x="51" y="237" on="0"/>
        <pt x="122" y="300" on="0"/>
        <pt x="186" y="300" on="1"/>
        <pt x="389" y="300" on="1"/>
        <pt x="389" y="343" on="1"/>
        <pt x="389" y="389" on="0"/>
        <pt x="347" y="427" on="0"/>
        <pt x="290" y="427" on="1"/>
        <pt x="218" y="427" on="0"/>
      </contour>
      <contour>
        <pt x="138" y="168" on="1"/>
        <pt x="138" y="137" on="1"/>
        <pt x="138" y="99" on="0"/>
        <pt x="174" y="64" on="0"/>
        <pt x="214" y="64" on="1"/>
        <pt x="252" y="63" on="0"/>
        <pt x="349" y="101" on="0"/>
        <pt x="389" y="137" on="1"/>
        <pt x="389" y="235" on="1"/>
        <pt x="201" y="235" on="1"/>
        <pt x="167" y="234" on="0"/>
        <pt x="138" y="200" on="0"/>
      </contour>
    </TTGlyph>
    <TTGlyph name="aacute" xMin="51" yMin="-9" xMax="475" yMax="734">
      <contour>
        <pt x="233" y="548" on="1"/>
        <pt x="204" y="587" on="1"/>
        <pt x="376" y="734" on="1"/>
        <pt x="425" y="669" on="1"/>
      </contour>
      <contour>
        <pt x="81" y="414" on="1"/>
        <pt x="73" y="477" on="1"/>
        <pt x="207" y="499" on="0"/>
        <pt x="308" y="499" on="1"/>
        <pt x="393" y="499" on="0"/>
        <pt x="475" y="428" on="0"/>
        <pt x="475" y="343" on="1"/>
        <pt x="475" y="0" on="1"/>
        <pt x="408" y="0" on="1"/>
        <pt x="398" y="80" on="1"/>
        <pt x="363" y="45" on="0"/>
        <pt x="258" y="-9" on="0"/>
        <pt x="197" y="-9" on="1"/>
        <pt x="130" y="-9" on="0"/>
        <pt x="51" y="62" on="0"/>
        <pt x="51" y="127" on="1"/>
        <pt x="51" y="180" on="1"/>
        <pt x="51" y="237" on="0"/>
        <pt x="122" y="300" on="0"/>
        <pt x="186" y="300" on="1"/>
        <pt x="389" y="300" on="1"/>
        <pt x="389" y="343" on="1"/>
        <pt x="389" y="389" on="0"/>
        <pt x="347" y="427" on="0"/>
        <pt x="290" y="427" on="1"/>
        <pt x="218" y="427" on="0"/>
      </contour>
      <contour>
        <pt x="138" y="168" on="1"/>
        <pt x="138" y="137" on="1"/>
        <pt x="138" y="99" on="0"/>
        <pt x="174" y="64" on="0"/>
        <pt x="214" y="64" on="1"/>
        <pt x="252" y="63" on="0"/>
        <pt x="349" y="101" on="0"/>
        <pt x="389" y="137" on="1"/>
        <pt x="389" y="235" on="1"/>
        <pt x="201" y="235" on="1"/>
        <pt x="167" y="234" on="0"/>
        <pt x="138" y="200" on="0"/>
      </contour>
    </TTGlyph>
    <TTGlyph name="abreve" xMin="51" yMin="-9" xMax="475" yMax="704">
      <contour>
        <pt x="374" y="704" on="1"/>
        <pt x="418" y="697" on="1"/>
        <pt x="422" y="639" on="0"/>
        <pt x="340" y="566" on="0"/>
        <pt x="269" y="566" on="1"/>
        <pt x="197" y="566" on="0"/>
        <pt x="114" y="639" on="0"/>
        <pt x="119" y="697" on="1"/>
        <pt x="162" y="704" on="1"/>
        <pt x="162" y="668" on="0"/>
        <pt x="217" y="629" on="0"/>
        <pt x="269" y="629" on="1"/>
        <pt x="319" y="629" on="0"/>
        <pt x="375" y="668" on="0"/>
      </contour>
      <contour>
        <pt x="81" y="414" on="1"/>
        <pt x="73" y="477" on="1"/>
        <pt x="207" y="499" on="0"/>
        <pt x="308" y="499" on="1"/>
        <pt x="393" y="499" on="0"/>
        <pt x="475" y="428" on="0"/>
        <pt x="475" y="343" on="1"/>
        <pt x="475" y="0" on="1"/>
        <pt x="408" y="0" on="1"/>
        <pt x="398" y="80" on="1"/>
        <pt x="363" y="45" on="0"/>
        <pt x="258" y="-9" on="0"/>
        <pt x="197" y="-9" on="1"/>
        <pt x="130" y="-9" on="0"/>
        <pt x="51" y="62" on="0"/>
        <pt x="51" y="127" on="1"/>
        <pt x="51" y="180" on="1"/>
        <pt x="51" y="237" on="0"/>
        <pt x="122" y="300" on="0"/>
        <pt x="186" y="300" on="1"/>
        <pt x="389" y="300" on="1"/>
        <pt x="389" y="343" on="1"/>
        <pt x="389" y="389" on="0"/>
        <pt x="347" y="427" on="0"/>
        <pt x="290" y="427" on="1"/>
        <pt x="218" y="427" on="0"/>
      </contour>
      <contour>
        <pt x="138" y="168" on="1"/>
        <pt x="138" y="137" on="1"/>
        <pt x="138" y="99" on="0"/>
        <pt x="174" y="64" on="0"/>
        <pt x="214" y="64" on="1"/>
        <pt x="252" y="63" on="0"/>
        <pt x="349" y="101" on="0"/>
        <pt x="389" y="137" on="1"/>
        <pt x="389" y="235" on="1"/>
        <pt x="201" y="235" on="1"/>
        <pt x="167" y="234" on="0"/>
        <pt x="138" y="200" on="0"/>
      </contour>
    </TTGlyph>
    <TTGlyph name="acircumflex" xMin="51" yMin="-9" xMax="475" yMax="716">
      <contour>
        <pt x="135" y="552" on="1"/>
        <pt x="106" y="589" on="1"/>
        <pt x="238" y="716" on="1"/>
        <pt x="300" y="716" on="1"/>
        <pt x="432" y="589" on="1"/>
        <pt x="402" y="552" on="1"/>
        <pt x="273" y="650" on="1"/>
        <pt x="265" y="650" on="1"/>
      </contour>
      <contour>
        <pt x="81" y="414" on="1"/>
        <pt x="73" y="477" on="1"/>
        <pt x="207" y="499" on="0"/>
        <pt x="308" y="499" on="1"/>
        <pt x="393" y="499" on="0"/>
        <pt x="475" y="428" on="0"/>
        <pt x="475" y="343" on="1"/>
        <pt x="475" y="0" on="1"/>
        <pt x="408" y="0" on="1"/>
        <pt x="398" y="80" on="1"/>
        <pt x="363" y="45" on="0"/>
        <pt x="258" y="-9" on="0"/>
        <pt x="197" y="-9" on="1"/>
        <pt x="130" y="-9" on="0"/>
        <pt x="51" y="62" on="0"/>
        <pt x="51" y="127" on="1"/>
        <pt x="51" y="180" on="1"/>
        <pt x="51" y="237" on="0"/>
        <pt x="122" y="300" on="0"/>
        <pt x="186" y="300" on="1"/>
        <pt x="389" y="300" on="1"/>
        <pt x="389" y="343" on="1"/>
        <pt x="389" y="389" on="0"/>
        <pt x="347" y="427" on="0"/>
        <pt x="290" y="427" on="1"/>
        <pt x="218" y="427" on="0"/>
      </contour>
      <contour>
        <pt x="138" y="168" on="1"/>
        <pt x="138" y="137" on="1"/>
        <pt x="138" y="99" on="0"/>
        <pt x="174" y="64" on="0"/>
        <pt x="214" y="64" on="1"/>
        <pt x="252" y="63" on="0"/>
        <pt x="349" y="101" on="0"/>
        <pt x="389" y="137" on="1"/>
        <pt x="389" y="235" on="1"/>
        <pt x="201" y="235" on="1"/>
        <pt x="167" y="234" on="0"/>
        <pt x="138" y="200" on="0"/>
      </contour>
    </TTGlyph>
    <TTGlyph name="acute" xMin="55" yMin="538" xMax="276" yMax="723">
      <contour>
        <pt x="276" y="658" on="1"/>
        <pt x="84" y="538" on="1"/>
        <pt x="55" y="577" on="1"/>
        <pt x="227" y="723" on="1"/>
      </contour>
    </TTGlyph>
    <TTGlyph name="adieresis" xMin="51" yMin="-9" xMax="475" yMax="690">
      <contour>
        <pt x="195" y="587" on="1"/>
        <pt x="166" y="587" on="1"/>
        <pt x="143" y="587" on="0"/>
        <pt x="143" y="611" on="1"/>
        <pt x="143" y="666" on="1"/>
        <pt x="143" y="690" on="0"/>
        <pt x="166" y="690" on="1"/>
        <pt x="195" y="690" on="1"/>
        <pt x="218" y="690" on="0"/>
        <pt x="218" y="666" on="1"/>
        <pt x="218" y="611" on="1"/>
        <pt x="218" y="587" on="0"/>
      </contour>
      <contour>
        <pt x="372" y="587" on="1"/>
        <pt x="343" y="587" on="1"/>
        <pt x="320" y="587" on="0"/>
        <pt x="320" y="611" on="1"/>
        <pt x="320" y="666" on="1"/>
        <pt x="320" y="690" on="0"/>
        <pt x="343" y="690" on="1"/>
        <pt x="372" y="690" on="1"/>
        <pt x="396" y="690" on="0"/>
        <pt x="396" y="666" on="1"/>
        <pt x="396" y="611" on="1"/>
        <pt x="396" y="587" on="0"/>
      </contour>
      <contour>
        <pt x="81" y="414" on="1"/>
        <pt x="73" y="477" on="1"/>
        <pt x="207" y="499" on="0"/>
        <pt x="308" y="499" on="1"/>
        <pt x="393" y="499" on="0"/>
        <pt x="475" y="428" on="0"/>
        <pt x="475" y="343" on="1"/>
        <pt x="475" y="0" on="1"/>
        <pt x="408" y="0" on="1"/>
        <pt x="398" y="80" on="1"/>
        <pt x="363" y="45" on="0"/>
        <pt x="258" y="-9" on="0"/>
        <pt x="197" y="-9" on="1"/>
        <pt x="130" y="-9" on="0"/>
        <pt x="51" y="62" on="0"/>
        <pt x="51" y="127" on="1"/>
        <pt x="51" y="180" on="1"/>
        <pt x="51" y="237" on="0"/>
        <pt x="122" y="300" on="0"/>
        <pt x="186" y="300" on="1"/>
        <pt x="389" y="300" on="1"/>
        <pt x="389" y="343" on="1"/>
        <pt x="389" y="389" on="0"/>
        <pt x="347" y="427" on="0"/>
        <pt x="290" y="427" on="1"/>
        <pt x="218" y="427" on="0"/>
      </contour>
      <contour>
        <pt x="138" y="168" on="1"/>
        <pt x="138" y="137" on="1"/>
        <pt x="138" y="99" on="0"/>
        <pt x="174" y="64" on="0"/>
        <pt x="214" y="64" on="1"/>
        <pt x="252" y="63" on="0"/>
        <pt x="349" y="101" on="0"/>
        <pt x="389" y="137" on="1"/>
        <pt x="389" y="235" on="1"/>
        <pt x="201" y="235" on="1"/>
        <pt x="167" y="234" on="0"/>
        <pt x="138" y="200" on="0"/>
      </contour>
    </TTGlyph>
    <TTGlyph name="ae" xMin="51" yMin="-12" xMax="822" yMax="499">
      <contour>
        <pt x="695" y="202" on="1"/>
        <pt x="479" y="202" on="1"/>
        <pt x="485" y="118" on="0"/>
        <pt x="553" y="60" on="0"/>
        <pt x="632" y="60" on="1"/>
        <pt x="715" y="60" on="0"/>
        <pt x="802" y="72" on="1"/>
        <pt x="810" y="15" on="1"/>
        <pt x="746" y="-12" on="0"/>
        <pt x="621" y="-12" on="1"/>
        <pt x="537" y="-12" on="0"/>
        <pt x="437" y="37" on="0"/>
        <pt x="413" y="93" on="1"/>
        <pt x="378" y="54" on="0"/>
        <pt x="264" y="-9" on="0"/>
        <pt x="130" y="-9" on="0"/>
        <pt x="51" y="62" on="0"/>
        <pt x="51" y="127" on="1"/>
        <pt x="51" y="180" on="1"/>
        <pt x="51" y="237" on="0"/>
        <pt x="122" y="300" on="0"/>
        <pt x="186" y="300" on="1"/>
        <pt x="389" y="300" on="1"/>
        <pt x="389" y="343" on="1"/>
        <pt x="389" y="389" on="0"/>
        <pt x="347" y="427" on="0"/>
        <pt x="290" y="427" on="1"/>
        <pt x="218" y="427" on="0"/>
        <pt x="81" y="414" on="1"/>
        <pt x="73" y="477" on="1"/>
        <pt x="207" y="499" on="0"/>
        <pt x="308" y="499" on="1"/>
        <pt x="411" y="499" on="0"/>
        <pt x="447" y="449" on="1"/>
        <pt x="497" y="499" on="0"/>
        <pt x="612" y="499" on="1"/>
        <pt x="721" y="499" on="0"/>
        <pt x="821" y="420" on="0"/>
        <pt x="822" y="340" on="1"/>
        <pt x="822" y="202" on="0"/>
      </contour>
      <contour>
        <pt x="477" y="268" on="1"/>
        <pt x="673" y="268" on="1"/>
        <pt x="738" y="268" on="0"/>
        <pt x="736" y="340" on="1"/>
        <pt x="736" y="386" on="0"/>
        <pt x="681" y="427" on="0"/>
        <pt x="616" y="427" on="1"/>
        <pt x="540" y="427" on="0"/>
        <pt x="479" y="359" on="0"/>
      </contour>
      <contour>
        <pt x="138" y="168" on="1"/>
        <pt x="138" y="137" on="1"/>
        <pt x="138" y="99" on="0"/>
        <pt x="174" y="64" on="0"/>
        <pt x="214" y="64" on="1"/>
        <pt x="255" y="63" on="0"/>
        <pt x="356" y="104" on="0"/>
        <pt x="398" y="142" on="1"/>
        <pt x="389" y="182" on="0"/>
        <pt x="389" y="235" on="1"/>
        <pt x="201" y="235" on="1"/>
        <pt x="167" y="234" on="0"/>
        <pt x="138" y="200" on="0"/>
      </contour>
    </TTGlyph>
    <TTGlyph name="agrave" xMin="51" yMin="-9" xMax="475" yMax="734">
      <contour>
        <pt x="290" y="548" on="1"/>
        <pt x="98" y="669" on="1"/>
        <pt x="146" y="734" on="1"/>
        <pt x="319" y="587" on="1"/>
      </contour>
      <contour>
        <pt x="81" y="414" on="1"/>
        <pt x="73" y="477" on="1"/>
        <pt x="207" y="499" on="0"/>
        <pt x="308" y="499" on="1"/>
        <pt x="393" y="499" on="0"/>
        <pt x="475" y="428" on="0"/>
        <pt x="475" y="343" on="1"/>
        <pt x="475" y="0" on="1"/>
        <pt x="408" y="0" on="1"/>
        <pt x="398" y="80" on="1"/>
        <pt x="363" y="45" on="0"/>
        <pt x="258" y="-9" on="0"/>
        <pt x="197" y="-9" on="1"/>
        <pt x="130" y="-9" on="0"/>
        <pt x="51" y="62" on="0"/>
        <pt x="51" y="127" on="1"/>
        <pt x="51" y="180" on="1"/>
        <pt x="51" y="237" on="0"/>
        <pt x="122" y="300" on="0"/>
        <pt x="186" y="300" on="1"/>
        <pt x="389" y="300" on="1"/>
        <pt x="389" y="343" on="1"/>
        <pt x="389" y="389" on="0"/>
        <pt x="347" y="427" on="0"/>
        <pt x="290" y="427" on="1"/>
        <pt x="218" y="427" on="0"/>
      </contour>
      <contour>
        <pt x="138" y="168" on="1"/>
        <pt x="138" y="137" on="1"/>
        <pt x="138" y="99" on="0"/>
        <pt x="174" y="64" on="0"/>
        <pt x="214" y="64" on="1"/>
        <pt x="252" y="63" on="0"/>
        <pt x="349" y="101" on="0"/>
        <pt x="389" y="137" on="1"/>
        <pt x="389" y="235" on="1"/>
        <pt x="201" y="235" on="1"/>
        <pt x="167" y="234" on="0"/>
        <pt x="138" y="200" on="0"/>
      </contour>
    </TTGlyph>
    <TTGlyph name="amacron" xMin="51" yMin="-9" xMax="475" yMax="669">
      <contour>
        <pt x="409" y="606" on="1"/>
        <pt x="130" y="606" on="1"/>
        <pt x="130" y="669" on="1"/>
        <pt x="409" y="669" on="1"/>
      </contour>
      <contour>
        <pt x="81" y="414" on="1"/>
        <pt x="73" y="477" on="1"/>
        <pt x="207" y="499" on="0"/>
        <pt x="308" y="499" on="1"/>
        <pt x="393" y="499" on="0"/>
        <pt x="475" y="428" on="0"/>
        <pt x="475" y="343" on="1"/>
        <pt x="475" y="0" on="1"/>
        <pt x="408" y="0" on="1"/>
        <pt x="398" y="80" on="1"/>
        <pt x="363" y="45" on="0"/>
        <pt x="258" y="-9" on="0"/>
        <pt x="197" y="-9" on="1"/>
        <pt x="130" y="-9" on="0"/>
        <pt x="51" y="62" on="0"/>
        <pt x="51" y="127" on="1"/>
        <pt x="51" y="180" on="1"/>
        <pt x="51" y="237" on="0"/>
        <pt x="122" y="300" on="0"/>
        <pt x="186" y="300" on="1"/>
        <pt x="389" y="300" on="1"/>
        <pt x="389" y="343" on="1"/>
        <pt x="389" y="389" on="0"/>
        <pt x="347" y="427" on="0"/>
        <pt x="290" y="427" on="1"/>
        <pt x="218" y="427" on="0"/>
      </contour>
      <contour>
        <pt x="138" y="168" on="1"/>
        <pt x="138" y="137" on="1"/>
        <pt x="138" y="99" on="0"/>
        <pt x="174" y="64" on="0"/>
        <pt x="214" y="64" on="1"/>
        <pt x="252" y="63" on="0"/>
        <pt x="349" y="101" on="0"/>
        <pt x="389" y="137" on="1"/>
        <pt x="389" y="235" on="1"/>
        <pt x="201" y="235" on="1"/>
        <pt x="167" y="234" on="0"/>
        <pt x="138" y="200" on="0"/>
      </contour>
    </TTGlyph>
    <TTGlyph name="ampersand" xMin="67" yMin="-10" xMax="725" yMax="700">
      <contour>
        <pt x="715" y="66" on="1"/>
        <pt x="725" y="4" on="1"/>
        <pt x="680" y="-9" on="0"/>
        <pt x="619" y="-9" on="1"/>
        <pt x="515" y="-9" on="0"/>
        <pt x="499" y="77" on="1"/>
        <pt x="455" y="30" on="0"/>
        <pt x="349" y="-10" on="0"/>
        <pt x="269" y="-10" on="1"/>
        <pt x="159" y="-10" on="0"/>
        <pt x="67" y="72" on="0"/>
        <pt x="67" y="175" on="1"/>
        <pt x="67" y="258" on="0"/>
        <pt x="129" y="350" on="0"/>
        <pt x="202" y="356" on="1"/>
        <pt x="202" y="360" on="1"/>
        <pt x="141" y="366" on="0"/>
        <pt x="87" y="445" on="0"/>
        <pt x="87" y="521" on="1"/>
        <pt x="87" y="581" on="0"/>
        <pt x="115" y="652" on="0"/>
        <pt x="185" y="689" on="0"/>
        <pt x="272" y="700" on="0"/>
        <pt x="348" y="700" on="1"/>
        <pt x="440" y="700" on="0"/>
        <pt x="507" y="690" on="1"/>
        <pt x="497" y="625" on="1"/>
        <pt x="457" y="628" on="0"/>
        <pt x="345" y="628" on="1"/>
        <pt x="246" y="628" on="0"/>
        <pt x="176" y="584" on="0"/>
        <pt x="176" y="509" on="1"/>
        <pt x="176" y="440" on="0"/>
        <pt x="234" y="391" on="0"/>
        <pt x="310" y="391" on="1"/>
        <pt x="498" y="391" on="1"/>
        <pt x="506" y="519" on="1"/>
        <pt x="577" y="519" on="1"/>
        <pt x="577" y="391" on="1"/>
        <pt x="702" y="391" on="1"/>
        <pt x="702" y="324" on="1"/>
        <pt x="577" y="324" on="1"/>
        <pt x="577" y="131" on="1"/>
        <pt x="577" y="96" on="0"/>
        <pt x="606" y="66" on="0"/>
        <pt x="641" y="66" on="1"/>
      </contour>
      <contour>
        <pt x="497" y="324" on="1"/>
        <pt x="306" y="324" on="1"/>
        <pt x="223" y="324" on="0"/>
        <pt x="159" y="267" on="0"/>
        <pt x="159" y="189" on="1"/>
        <pt x="159" y="119" on="0"/>
        <pt x="215" y="66" on="0"/>
        <pt x="289" y="66" on="1"/>
        <pt x="421" y="67" on="0"/>
        <pt x="497" y="145" on="1"/>
      </contour>
    </TTGlyph>
    <TTGlyph name="aogonek" xMin="51" yMin="-214" xMax="489" yMax="499">
      <contour>
        <pt x="479" y="-158" on="1"/>
        <pt x="489" y="-193" on="1"/>
        <pt x="444" y="-212" on="0"/>
        <pt x="375" y="-215" on="0"/>
        <pt x="342" y="-188" on="0"/>
        <pt x="330" y="-144" on="0"/>
        <pt x="341" y="-117" on="1"/>
        <pt x="360" y="-59" on="0"/>
        <pt x="434" y="0" on="1"/>
        <pt x="408" y="0" on="1"/>
        <pt x="398" y="80" on="1"/>
        <pt x="363" y="45" on="0"/>
        <pt x="258" y="-9" on="0"/>
        <pt x="197" y="-9" on="1"/>
        <pt x="130" y="-9" on="0"/>
        <pt x="51" y="62" on="0"/>
        <pt x="51" y="127" on="1"/>
        <pt x="51" y="180" on="1"/>
        <pt x="51" y="237" on="0"/>
        <pt x="122" y="300" on="0"/>
        <pt x="186" y="300" on="1"/>
        <pt x="389" y="300" on="1"/>
        <pt x="389" y="343" on="1"/>
        <pt x="389" y="389" on="0"/>
        <pt x="347" y="427" on="0"/>
        <pt x="290" y="427" on="1"/>
        <pt x="218" y="427" on="0"/>
        <pt x="81" y="414" on="1"/>
        <pt x="73" y="477" on="1"/>
        <pt x="207" y="499" on="0"/>
        <pt x="308" y="499" on="1"/>
        <pt x="393" y="499" on="0"/>
        <pt x="475" y="428" on="0"/>
        <pt x="475" y="343" on="1"/>
        <pt x="475" y="0" on="1"/>
        <pt x="421" y="-61" on="0"/>
        <pt x="401" y="-114" on="1"/>
        <pt x="386" y="-150" on="0"/>
        <pt x="431" y="-174" on="0"/>
      </contour>
      <contour>
        <pt x="138" y="168" on="1"/>
        <pt x="138" y="137" on="1"/>
        <pt x="138" y="99" on="0"/>
        <pt x="174" y="64" on="0"/>
        <pt x="214" y="64" on="1"/>
        <pt x="252" y="63" on="0"/>
        <pt x="349" y="101" on="0"/>
        <pt x="389" y="137" on="1"/>
        <pt x="389" y="235" on="1"/>
        <pt x="201" y="235" on="1"/>
        <pt x="167" y="234" on="0"/>
        <pt x="138" y="200" on="0"/>
      </contour>
    </TTGlyph>
    <TTGlyph name="approxequal" xMin="77" yMin="133" xMax="511" yMax="447">
      <contour>
        <pt x="134" y="327" on="1"/>
        <pt x="77" y="327" on="1"/>
        <pt x="68" y="390" on="0"/>
        <pt x="122" y="449" on="0"/>
        <pt x="173" y="447" on="1"/>
        <pt x="208" y="446" on="0"/>
        <pt x="373" y="390" on="0"/>
        <pt x="410" y="389" on="1"/>
        <pt x="435" y="388" on="0"/>
        <pt x="453" y="409" on="0"/>
        <pt x="453" y="442" on="1"/>
        <pt x="511" y="442" on="1"/>
        <pt x="519" y="382" on="0"/>
        <pt x="471" y="323" on="0"/>
        <pt x="413" y="324" on="1"/>
        <pt x="374" y="325" on="0"/>
        <pt x="210" y="382" on="0"/>
        <pt x="177" y="383" on="1"/>
        <pt x="153" y="384" on="0"/>
        <pt x="134" y="360" on="0"/>
      </contour>
      <contour>
        <pt x="134" y="136" on="1"/>
        <pt x="77" y="136" on="1"/>
        <pt x="68" y="199" on="0"/>
        <pt x="122" y="258" on="0"/>
        <pt x="173" y="256" on="1"/>
        <pt x="208" y="255" on="0"/>
        <pt x="373" y="199" on="0"/>
        <pt x="410" y="197" on="1"/>
        <pt x="434" y="196" on="0"/>
        <pt x="453" y="218" on="0"/>
        <pt x="453" y="250" on="1"/>
        <pt x="511" y="250" on="1"/>
        <pt x="519" y="191" on="0"/>
        <pt x="471" y="132" on="0"/>
        <pt x="413" y="133" on="1"/>
        <pt x="374" y="134" on="0"/>
        <pt x="210" y="191" on="0"/>
        <pt x="177" y="192" on="1"/>
        <pt x="153" y="192" on="0"/>
        <pt x="134" y="169" on="0"/>
      </contour>
    </TTGlyph>
    <TTGlyph name="aring" xMin="51" yMin="-9" xMax="475" yMax="745">
      <contour>
        <pt x="314" y="535" on="0"/>
        <pt x="224" y="535" on="0"/>
        <pt x="162" y="595" on="0"/>
        <pt x="162" y="639" on="1"/>
        <pt x="162" y="684" on="0"/>
        <pt x="224" y="745" on="0"/>
        <pt x="269" y="745" on="1"/>
        <pt x="313" y="745" on="0"/>
        <pt x="376" y="684" on="0"/>
        <pt x="376" y="639" on="1"/>
        <pt x="376" y="595" on="0"/>
      </contour>
      <contour>
        <pt x="295" y="701" on="0"/>
        <pt x="243" y="701" on="0"/>
        <pt x="210" y="667" on="0"/>
        <pt x="210" y="639" on="1"/>
        <pt x="210" y="612" on="0"/>
        <pt x="244" y="579" on="0"/>
        <pt x="269" y="579" on="1"/>
        <pt x="295" y="579" on="0"/>
        <pt x="329" y="612" on="0"/>
        <pt x="329" y="666" on="0"/>
      </contour>
      <contour>
        <pt x="81" y="414" on="1"/>
        <pt x="73" y="477" on="1"/>
        <pt x="207" y="499" on="0"/>
        <pt x="308" y="499" on="1"/>
        <pt x="393" y="499" on="0"/>
        <pt x="475" y="428" on="0"/>
        <pt x="475" y="343" on="1"/>
        <pt x="475" y="0" on="1"/>
        <pt x="408" y="0" on="1"/>
        <pt x="398" y="80" on="1"/>
        <pt x="363" y="45" on="0"/>
        <pt x="258" y="-9" on="0"/>
        <pt x="197" y="-9" on="1"/>
        <pt x="130" y="-9" on="0"/>
        <pt x="51" y="62" on="0"/>
        <pt x="51" y="127" on="1"/>
        <pt x="51" y="180" on="1"/>
        <pt x="51" y="237" on="0"/>
        <pt x="122" y="300" on="0"/>
        <pt x="186" y="300" on="1"/>
        <pt x="389" y="300" on="1"/>
        <pt x="389" y="343" on="1"/>
        <pt x="389" y="389" on="0"/>
        <pt x="347" y="427" on="0"/>
        <pt x="290" y="427" on="1"/>
        <pt x="218" y="427" on="0"/>
      </contour>
      <contour>
        <pt x="138" y="168" on="1"/>
        <pt x="138" y="137" on="1"/>
        <pt x="138" y="99" on="0"/>
        <pt x="174" y="64" on="0"/>
        <pt x="214" y="64" on="1"/>
        <pt x="252" y="63" on="0"/>
        <pt x="349" y="101" on="0"/>
        <pt x="389" y="137" on="1"/>
        <pt x="389" y="235" on="1"/>
        <pt x="201" y="235" on="1"/>
        <pt x="167" y="234" on="0"/>
        <pt x="138" y="200" on="0"/>
      </contour>
    </TTGlyph>
    <TTGlyph name="asciicircum" xMin="30" yMin="368" xMax="396" yMax="600">
      <contour>
        <pt x="396" y="390" on="1"/>
        <pt x="362" y="368" on="1"/>
        <pt x="218" y="542" on="1"/>
        <pt x="210" y="542" on="1"/>
        <pt x="65" y="368" on="1"/>
        <pt x="30" y="390" on="1"/>
        <pt x="183" y="600" on="1"/>
        <pt x="244" y="600" on="1"/>
      </contour>
    </TTGlyph>
    <TTGlyph name="asciitilde" xMin="77" yMin="225" xMax="449" yMax="348">
      <contour>
        <pt x="121" y="228" on="1"/>
        <pt x="77" y="228" on="1"/>
        <pt x="70" y="288" on="0"/>
        <pt x="114" y="350" on="0"/>
        <pt x="154" y="348" on="1"/>
        <pt x="191" y="346" on="0"/>
        <pt x="331" y="292" on="0"/>
        <pt x="360" y="289" on="1"/>
        <pt x="386" y="286" on="0"/>
        <pt x="405" y="311" on="0"/>
        <pt x="405" y="343" on="1"/>
        <pt x="449" y="343" on="1"/>
        <pt x="456" y="285" on="0"/>
        <pt x="412" y="223" on="0"/>
        <pt x="372" y="225" on="1"/>
        <pt x="329" y="227" on="0"/>
        <pt x="191" y="281" on="0"/>
        <pt x="166" y="284" on="1"/>
        <pt x="140" y="287" on="0"/>
        <pt x="121" y="261" on="0"/>
      </contour>
    </TTGlyph>
    <TTGlyph name="asterisk" xMin="54" yMin="371" xMax="397" yMax="691">
      <contour>
        <pt x="243" y="530" on="1"/>
        <pt x="343" y="401" on="1"/>
        <pt x="302" y="371" on="1"/>
        <pt x="225" y="494" on="1"/>
        <pt x="148" y="372" on="1"/>
        <pt x="106" y="402" on="1"/>
        <pt x="206" y="530" on="1"/>
        <pt x="199" y="691" on="1"/>
        <pt x="251" y="691" on="1"/>
      </contour>
      <contour>
        <pt x="189" y="555" on="1"/>
        <pt x="189" y="533" on="1"/>
        <pt x="178" y="519" on="1"/>
        <pt x="54" y="552" on="1"/>
        <pt x="71" y="601" on="1"/>
      </contour>
      <contour>
        <pt x="397" y="551" on="1"/>
        <pt x="272" y="519" on="1"/>
        <pt x="260" y="533" on="1"/>
        <pt x="260" y="555" on="1"/>
        <pt x="380" y="601" on="1"/>
      </contour>
    </TTGlyph>
    <TTGlyph name="at" xMin="75" yMin="-58" xMax="646" yMax="585">
      <contour>
        <pt x="352" y="585" on="1"/>
        <pt x="495" y="585" on="1"/>
        <pt x="570" y="585" on="0"/>
        <pt x="646" y="518" on="0"/>
        <pt x="646" y="443" on="1"/>
        <pt x="646" y="132" on="1"/>
        <pt x="582" y="132" on="1"/>
        <pt x="574" y="207" on="1"/>
        <pt x="543" y="175" on="0"/>
        <pt x="432" y="124" on="0"/>
        <pt x="375" y="124" on="1"/>
        <pt x="315" y="124" on="0"/>
        <pt x="244" y="185" on="0"/>
        <pt x="244" y="243" on="1"/>
        <pt x="244" y="294" on="1"/>
        <pt x="244" y="343" on="0"/>
        <pt x="303" y="397" on="0"/>
        <pt x="359" y="397" on="1"/>
        <pt x="566" y="397" on="1"/>
        <pt x="566" y="440" on="1"/>
        <pt x="566" y="481" on="0"/>
        <pt x="529" y="514" on="0"/>
        <pt x="480" y="514" on="1"/>
        <pt x="352" y="514" on="1"/>
        <pt x="303" y="514" on="0"/>
        <pt x="251" y="511" on="0"/>
        <pt x="199" y="493" on="0"/>
        <pt x="178" y="466" on="0"/>
        <pt x="160" y="405" on="0"/>
        <pt x="156" y="329" on="0"/>
        <pt x="156" y="266" on="1"/>
        <pt x="156" y="217" on="0"/>
        <pt x="158" y="152" on="0"/>
        <pt x="169" y="95" on="0"/>
        <pt x="179" y="62" on="0"/>
        <pt x="209" y="35" on="0"/>
        <pt x="235" y="23" on="0"/>
        <pt x="292" y="15" on="0"/>
        <pt x="340" y="14" on="0"/>
        <pt x="385" y="14" on="1"/>
        <pt x="643" y="14" on="1"/>
        <pt x="643" y="-50" on="1"/>
        <pt x="507" y="-58" on="0"/>
        <pt x="386" y="-58" on="1"/>
        <pt x="311" y="-59" on="0"/>
        <pt x="219" y="-52" on="0"/>
        <pt x="143" y="-25" on="0"/>
        <pt x="107" y="14" on="0"/>
        <pt x="81" y="95" on="0"/>
        <pt x="75" y="188" on="0"/>
        <pt x="75" y="266" on="1"/>
        <pt x="75" y="342" on="0"/>
        <pt x="81" y="433" on="0"/>
        <pt x="103" y="511" on="0"/>
        <pt x="136" y="549" on="0"/>
        <pt x="204" y="577" on="0"/>
        <pt x="285" y="584" on="0"/>
      </contour>
      <contour>
        <pt x="566" y="345" on="1"/>
        <pt x="388" y="341" on="1"/>
        <pt x="353" y="340" on="0"/>
        <pt x="324" y="313" on="0"/>
        <pt x="324" y="284" on="1"/>
        <pt x="324" y="258" on="1"/>
        <pt x="324" y="192" on="0"/>
        <pt x="390" y="192" on="1"/>
        <pt x="434" y="192" on="0"/>
        <pt x="533" y="227" on="0"/>
        <pt x="566" y="258" on="1"/>
      </contour>
    </TTGlyph>
    <TTGlyph name="atilde" xMin="51" yMin="-9" xMax="475" yMax="700">
      <contour>
        <pt x="151" y="586" on="1"/>
        <pt x="111" y="586" on="1"/>
        <pt x="105" y="643" on="0"/>
        <pt x="150" y="703" on="0"/>
        <pt x="189" y="700" on="1"/>
        <pt x="221" y="697" on="0"/>
        <pt x="312" y="647" on="0"/>
        <pt x="338" y="644" on="1"/>
        <pt x="366" y="641" on="0"/>
        <pt x="387" y="665" on="0"/>
        <pt x="387" y="695" on="1"/>
        <pt x="427" y="695" on="1"/>
        <pt x="433" y="640" on="0"/>
        <pt x="389" y="580" on="0"/>
        <pt x="349" y="583" on="1"/>
        <pt x="312" y="586" on="0"/>
        <pt x="219" y="637" on="0"/>
        <pt x="198" y="640" on="1"/>
        <pt x="171" y="643" on="0"/>
        <pt x="151" y="617" on="0"/>
      </contour>
      <contour>
        <pt x="81" y="414" on="1"/>
        <pt x="73" y="477" on="1"/>
        <pt x="207" y="499" on="0"/>
        <pt x="308" y="499" on="1"/>
        <pt x="393" y="499" on="0"/>
        <pt x="475" y="428" on="0"/>
        <pt x="475" y="343" on="1"/>
        <pt x="475" y="0" on="1"/>
        <pt x="408" y="0" on="1"/>
        <pt x="398" y="80" on="1"/>
        <pt x="363" y="45" on="0"/>
        <pt x="258" y="-9" on="0"/>
        <pt x="197" y="-9" on="1"/>
        <pt x="130" y="-9" on="0"/>
        <pt x="51" y="62" on="0"/>
        <pt x="51" y="127" on="1"/>
        <pt x="51" y="180" on="1"/>
        <pt x="51" y="237" on="0"/>
        <pt x="122" y="300" on="0"/>
        <pt x="186" y="300" on="1"/>
        <pt x="389" y="300" on="1"/>
        <pt x="389" y="343" on="1"/>
        <pt x="389" y="389" on="0"/>
        <pt x="347" y="427" on="0"/>
        <pt x="290" y="427" on="1"/>
        <pt x="218" y="427" on="0"/>
      </contour>
      <contour>
        <pt x="138" y="168" on="1"/>
        <pt x="138" y="137" on="1"/>
        <pt x="138" y="99" on="0"/>
        <pt x="174" y="64" on="0"/>
        <pt x="214" y="64" on="1"/>
        <pt x="252" y="63" on="0"/>
        <pt x="349" y="101" on="0"/>
        <pt x="389" y="137" on="1"/>
        <pt x="389" y="235" on="1"/>
        <pt x="201" y="235" on="1"/>
        <pt x="167" y="234" on="0"/>
        <pt x="138" y="200" on="0"/>
      </contour>
    </TTGlyph>
    <TTGlyph name="b" xMin="76" yMin="-12" xMax="516" yMax="700">
      <contour>
        <pt x="161" y="700" on="1"/>
        <pt x="161" y="518" on="1"/>
        <pt x="161" y="448" on="0"/>
        <pt x="152" y="410" on="1"/>
        <pt x="239" y="499" on="0"/>
        <pt x="340" y="499" on="1"/>
        <pt x="431" y="499" on="0"/>
        <pt x="516" y="380" on="0"/>
        <pt x="516" y="245" on="1"/>
        <pt x="516" y="113" on="0"/>
        <pt x="420" y="-12" on="0"/>
        <pt x="300" y="-12" on="1"/>
        <pt x="175" y="-12" on="0"/>
        <pt x="76" y="23" on="1"/>
        <pt x="76" y="700" on="1"/>
      </contour>
      <contour>
        <pt x="161" y="353" on="1"/>
        <pt x="161" y="77" on="1"/>
        <pt x="228" y="58" on="0"/>
        <pt x="298" y="60" on="1"/>
        <pt x="369" y="61" on="0"/>
        <pt x="427" y="142" on="0"/>
        <pt x="428" y="245" on="1"/>
        <pt x="427" y="348" on="0"/>
        <pt x="379" y="425" on="0"/>
        <pt x="310" y="425" on="1"/>
        <pt x="275" y="425" on="0"/>
        <pt x="210" y="391" on="0"/>
      </contour>
    </TTGlyph>
    <TTGlyph name="backslash" xMin="27" yMin="-66" xMax="491" yMax="690">
      <contour>
        <pt x="491" y="-66" on="1"/>
        <pt x="420" y="-66" on="1"/>
        <pt x="27" y="690" on="1"/>
        <pt x="98" y="690" on="1"/>
      </contour>
    </TTGlyph>
    <TTGlyph name="bar" xMin="92" yMin="-169" xMax="154" yMax="781">
      <contour>
        <pt x="154" y="-169" on="1"/>
        <pt x="92" y="-169" on="1"/>
        <pt x="92" y="781" on="1"/>
        <pt x="154" y="781" on="1"/>
      </contour>
    </TTGlyph>
    <TTGlyph name="braceleft" xMin="46" yMin="-165" xMax="280" yMax="768">
      <contour>
        <pt x="276" y="768" on="1"/>
        <pt x="276" y="714" on="1"/>
        <pt x="225" y="714" on="0"/>
        <pt x="186" y="676" on="0"/>
        <pt x="186" y="629" on="1"/>
        <pt x="186" y="450" on="1"/>
        <pt x="187" y="389" on="0"/>
        <pt x="150" y="339" on="0"/>
        <pt x="97" y="328" on="1"/>
        <pt x="152" y="311" on="0"/>
        <pt x="189" y="263" on="0"/>
        <pt x="190" y="210" on="1"/>
        <pt x="190" y="-27" on="1"/>
        <pt x="190" y="-73" on="0"/>
        <pt x="229" y="-111" on="0"/>
        <pt x="280" y="-111" on="1"/>
        <pt x="280" y="-165" on="1"/>
        <pt x="190" y="-172" on="0"/>
        <pt x="108" y="-104" on="0"/>
        <pt x="108" y="-32" on="1"/>
        <pt x="108" y="224" on="1"/>
        <pt x="108" y="243" on="0"/>
        <pt x="103" y="265" on="0"/>
        <pt x="82" y="282" on="0"/>
        <pt x="68" y="289" on="0"/>
        <pt x="46" y="297" on="1"/>
        <pt x="46" y="359" on="1"/>
        <pt x="85" y="371" on="0"/>
        <pt x="104" y="392" on="0"/>
        <pt x="104" y="436" on="1"/>
        <pt x="104" y="635" on="1"/>
        <pt x="104" y="707" on="0"/>
        <pt x="186" y="775" on="0"/>
      </contour>
    </TTGlyph>
    <TTGlyph name="braceright" xMin="40" yMin="-165" xMax="274" yMax="768">
      <contour>
        <pt x="44" y="714" on="1"/>
        <pt x="44" y="768" on="1"/>
        <pt x="134" y="775" on="0"/>
        <pt x="216" y="707" on="0"/>
        <pt x="216" y="635" on="1"/>
        <pt x="216" y="436" on="1"/>
        <pt x="216" y="392" on="0"/>
        <pt x="235" y="371" on="0"/>
        <pt x="274" y="359" on="1"/>
        <pt x="274" y="297" on="1"/>
        <pt x="246" y="287" on="0"/>
        <pt x="227" y="276" on="0"/>
        <pt x="212" y="249" on="0"/>
        <pt x="212" y="224" on="1"/>
        <pt x="212" y="-32" on="1"/>
        <pt x="212" y="-104" on="0"/>
        <pt x="130" y="-172" on="0"/>
        <pt x="40" y="-165" on="1"/>
        <pt x="40" y="-111" on="1"/>
        <pt x="91" y="-111" on="0"/>
        <pt x="130" y="-73" on="0"/>
        <pt x="130" y="-27" on="1"/>
        <pt x="130" y="210" on="1"/>
        <pt x="131" y="263" on="0"/>
        <pt x="168" y="311" on="0"/>
        <pt x="223" y="328" on="1"/>
        <pt x="170" y="339" on="0"/>
        <pt x="133" y="389" on="0"/>
        <pt x="134" y="450" on="1"/>
        <pt x="134" y="629" on="1"/>
        <pt x="134" y="676" on="0"/>
        <pt x="95" y="714" on="0"/>
      </contour>
    </TTGlyph>
    <TTGlyph name="bracketleft" xMin="91" yMin="-165" xMax="288" yMax="768">
      <contour>
        <pt x="288" y="712" on="1"/>
        <pt x="186" y="712" on="1"/>
        <pt x="172" y="712" on="0"/>
        <pt x="172" y="696" on="1"/>
        <pt x="172" y="-93" on="1"/>
        <pt x="172" y="-109" on="0"/>
        <pt x="186" y="-109" on="1"/>
        <pt x="288" y="-109" on="1"/>
        <pt x="288" y="-165" on="1"/>
        <pt x="145" y="-165" on="1"/>
        <pt x="91" y="-165" on="0"/>
        <pt x="91" y="-111" on="1"/>
        <pt x="91" y="714" on="1"/>
        <pt x="91" y="738" on="0"/>
        <pt x="122" y="768" on="0"/>
        <pt x="145" y="768" on="1"/>
        <pt x="288" y="768" on="1"/>
      </contour>
    </TTGlyph>
    <TTGlyph name="bracketright" xMin="41" yMin="-165" xMax="237" yMax="768">
      <contour>
        <pt x="41" y="768" on="1"/>
        <pt x="183" y="768" on="1"/>
        <pt x="207" y="768" on="0"/>
        <pt x="237" y="738" on="0"/>
        <pt x="237" y="714" on="1"/>
        <pt x="237" y="-111" on="1"/>
        <pt x="237" y="-135" on="0"/>
        <pt x="207" y="-165" on="0"/>
        <pt x="183" y="-165" on="1"/>
        <pt x="41" y="-165" on="1"/>
        <pt x="41" y="-109" on="1"/>
        <pt x="142" y="-109" on="1"/>
        <pt x="157" y="-109" on="0"/>
        <pt x="157" y="-93" on="1"/>
        <pt x="157" y="696" on="1"/>
        <pt x="157" y="712" on="0"/>
        <pt x="142" y="712" on="1"/>
        <pt x="41" y="712" on="1"/>
      </contour>
    </TTGlyph>
    <TTGlyph name="breve" xMin="38" yMin="558" xMax="338" yMax="696">
      <contour>
        <pt x="294" y="696" on="1"/>
        <pt x="338" y="690" on="1"/>
        <pt x="342" y="631" on="0"/>
        <pt x="260" y="558" on="0"/>
        <pt x="116" y="558" on="0"/>
        <pt x="34" y="631" on="0"/>
        <pt x="38" y="690" on="1"/>
        <pt x="82" y="696" on="1"/>
        <pt x="81" y="661" on="0"/>
        <pt x="137" y="621" on="0"/>
        <pt x="189" y="621" on="1"/>
        <pt x="238" y="621" on="0"/>
        <pt x="294" y="661" on="0"/>
      </contour>
    </TTGlyph>
    <TTGlyph name="brevecy" xMin="38" yMin="558" xMax="338" yMax="695">
      <contour>
        <pt x="273" y="695" on="1"/>
        <pt x="338" y="695" on="1"/>
        <pt x="342" y="636" on="0"/>
        <pt x="260" y="558" on="0"/>
        <pt x="189" y="558" on="1"/>
        <pt x="117" y="558" on="0"/>
        <pt x="34" y="636" on="0"/>
        <pt x="38" y="695" on="1"/>
        <pt x="103" y="695" on="1"/>
        <pt x="103" y="652" on="0"/>
        <pt x="148" y="605" on="0"/>
        <pt x="189" y="605" on="1"/>
        <pt x="229" y="605" on="0"/>
        <pt x="273" y="652" on="0"/>
      </contour>
    </TTGlyph>
    <TTGlyph name="brokenbar" xMin="93" yMin="-169" xMax="155" yMax="781">
      <contour>
        <pt x="155" y="381" on="1"/>
        <pt x="93" y="381" on="1"/>
        <pt x="93" y="781" on="1"/>
        <pt x="155" y="781" on="1"/>
      </contour>
      <contour>
        <pt x="155" y="-169" on="1"/>
        <pt x="93" y="-169" on="1"/>
        <pt x="93" y="231" on="1"/>
        <pt x="155" y="231" on="1"/>
      </contour>
    </TTGlyph>
    <TTGlyph name="bullet" xMin="91" yMin="177" xMax="272" yMax="358">
      <contour>
        <pt x="177" y="358" on="1"/>
        <pt x="189" y="358" on="1"/>
        <pt x="236" y="358" on="0"/>
        <pt x="272" y="322" on="0"/>
        <pt x="272" y="275" on="1"/>
        <pt x="272" y="263" on="1"/>
        <pt x="272" y="214" on="0"/>
        <pt x="236" y="177" on="0"/>
        <pt x="189" y="177" on="1"/>
        <pt x="177" y="177" on="1"/>
        <pt x="128" y="177" on="0"/>
        <pt x="91" y="214" on="0"/>
        <pt x="91" y="263" on="1"/>
        <pt x="91" y="275" on="1"/>
        <pt x="91" y="322" on="0"/>
        <pt x="128" y="358" on="0"/>
      </contour>
    </TTGlyph>
    <TTGlyph name="c" xMin="54" yMin="-12" xMax="452" yMax="499">
      <contour>
        <pt x="443" y="70" on="1"/>
        <pt x="452" y="13" on="1"/>
        <pt x="380" y="-12" on="0"/>
        <pt x="285" y="-12" on="1"/>
        <pt x="159" y="-12" on="0"/>
        <pt x="54" y="103" on="0"/>
        <pt x="54" y="385" on="0"/>
        <pt x="159" y="499" on="0"/>
        <pt x="286" y="499" on="1"/>
        <pt x="382" y="499" on="0"/>
        <pt x="443" y="476" on="1"/>
        <pt x="432" y="421" on="1"/>
        <pt x="366" y="427" on="0"/>
        <pt x="300" y="427" on="1"/>
        <pt x="212" y="427" on="0"/>
        <pt x="144" y="349" on="0"/>
        <pt x="144" y="244" on="1"/>
        <pt x="144" y="138" on="0"/>
        <pt x="212" y="60" on="0"/>
        <pt x="300" y="60" on="1"/>
        <pt x="380" y="60" on="0"/>
      </contour>
    </TTGlyph>
    <TTGlyph name="cacute" xMin="54" yMin="-12" xMax="452" yMax="734">
      <contour>
        <pt x="423" y="669" on="1"/>
        <pt x="232" y="548" on="1"/>
        <pt x="202" y="587" on="1"/>
        <pt x="375" y="734" on="1"/>
      </contour>
      <contour>
        <pt x="443" y="70" on="1"/>
        <pt x="452" y="13" on="1"/>
        <pt x="380" y="-12" on="0"/>
        <pt x="285" y="-12" on="1"/>
        <pt x="159" y="-12" on="0"/>
        <pt x="54" y="103" on="0"/>
        <pt x="54" y="385" on="0"/>
        <pt x="159" y="499" on="0"/>
        <pt x="286" y="499" on="1"/>
        <pt x="382" y="499" on="0"/>
        <pt x="443" y="476" on="1"/>
        <pt x="432" y="421" on="1"/>
        <pt x="366" y="427" on="0"/>
        <pt x="300" y="427" on="1"/>
        <pt x="212" y="427" on="0"/>
        <pt x="144" y="349" on="0"/>
        <pt x="144" y="244" on="1"/>
        <pt x="144" y="138" on="0"/>
        <pt x="212" y="60" on="0"/>
        <pt x="300" y="60" on="1"/>
        <pt x="380" y="60" on="0"/>
      </contour>
    </TTGlyph>
    <TTGlyph name="caron" xMin="48" yMin="560" xMax="374" yMax="724">
      <contour>
        <pt x="374" y="688" on="1"/>
        <pt x="231" y="560" on="1"/>
        <pt x="191" y="560" on="1"/>
        <pt x="48" y="688" on="1"/>
        <pt x="77" y="724" on="1"/>
        <pt x="207" y="637" on="1"/>
        <pt x="215" y="637" on="1"/>
        <pt x="344" y="724" on="1"/>
      </contour>
    </TTGlyph>
    <TTGlyph name="ccaron" xMin="54" yMin="-12" xMax="452" yMax="728">
      <contour>
        <pt x="432" y="691" on="1"/>
        <pt x="289" y="564" on="1"/>
        <pt x="249" y="564" on="1"/>
        <pt x="106" y="691" on="1"/>
        <pt x="135" y="728" on="1"/>
        <pt x="265" y="641" on="1"/>
        <pt x="273" y="641" on="1"/>
        <pt x="402" y="728" on="1"/>
      </contour>
      <contour>
        <pt x="443" y="70" on="1"/>
        <pt x="452" y="13" on="1"/>
        <pt x="380" y="-12" on="0"/>
        <pt x="285" y="-12" on="1"/>
        <pt x="159" y="-12" on="0"/>
        <pt x="54" y="103" on="0"/>
        <pt x="54" y="385" on="0"/>
        <pt x="159" y="499" on="0"/>
        <pt x="286" y="499" on="1"/>
        <pt x="382" y="499" on="0"/>
        <pt x="443" y="476" on="1"/>
        <pt x="432" y="421" on="1"/>
        <pt x="366" y="427" on="0"/>
        <pt x="300" y="427" on="1"/>
        <pt x="212" y="427" on="0"/>
        <pt x="144" y="349" on="0"/>
        <pt x="144" y="244" on="1"/>
        <pt x="144" y="138" on="0"/>
        <pt x="212" y="60" on="0"/>
        <pt x="300" y="60" on="1"/>
        <pt x="380" y="60" on="0"/>
      </contour>
    </TTGlyph>
    <TTGlyph name="ccedilla" xMin="54" yMin="-241" xMax="452" yMax="499">
      <contour>
        <pt x="443" y="70" on="1"/>
        <pt x="452" y="13" on="1"/>
        <pt x="380" y="-12" on="0"/>
        <pt x="285" y="-12" on="1"/>
        <pt x="159" y="-12" on="0"/>
        <pt x="54" y="103" on="0"/>
        <pt x="54" y="385" on="0"/>
        <pt x="159" y="499" on="0"/>
        <pt x="286" y="499" on="1"/>
        <pt x="382" y="499" on="0"/>
        <pt x="443" y="476" on="1"/>
        <pt x="432" y="421" on="1"/>
        <pt x="366" y="427" on="0"/>
        <pt x="300" y="427" on="1"/>
        <pt x="212" y="427" on="0"/>
        <pt x="144" y="349" on="0"/>
        <pt x="144" y="244" on="1"/>
        <pt x="144" y="138" on="0"/>
        <pt x="212" y="60" on="0"/>
        <pt x="300" y="60" on="1"/>
        <pt x="380" y="60" on="0"/>
      </contour>
      <contour>
        <pt x="226" y="-95" on="1"/>
        <pt x="235" y="-55" on="1"/>
        <pt x="296" y="-49" on="0"/>
        <pt x="348" y="-77" on="0"/>
        <pt x="347" y="-120" on="1"/>
        <pt x="345" y="-183" on="0"/>
        <pt x="251" y="-251" on="0"/>
        <pt x="179" y="-241" on="1"/>
        <pt x="193" y="-196" on="1"/>
        <pt x="233" y="-197" on="0"/>
        <pt x="284" y="-158" on="0"/>
        <pt x="285" y="-127" on="1"/>
        <pt x="286" y="-109" on="0"/>
        <pt x="262" y="-96" on="0"/>
      </contour>
    </TTGlyph>
    <TTGlyph name="cdotaccent" xMin="54" yMin="-12" xMax="452" yMax="687">
      <contour>
        <pt x="254" y="687" on="1"/>
        <pt x="282" y="687" on="1"/>
        <pt x="308" y="687" on="0"/>
        <pt x="308" y="662" on="1"/>
        <pt x="308" y="605" on="1"/>
        <pt x="308" y="579" on="0"/>
        <pt x="282" y="579" on="1"/>
        <pt x="254" y="579" on="1"/>
        <pt x="228" y="579" on="0"/>
        <pt x="228" y="605" on="1"/>
        <pt x="228" y="662" on="1"/>
        <pt x="228" y="687" on="0"/>
      </contour>
      <contour>
        <pt x="443" y="70" on="1"/>
        <pt x="452" y="13" on="1"/>
        <pt x="380" y="-12" on="0"/>
        <pt x="285" y="-12" on="1"/>
        <pt x="159" y="-12" on="0"/>
        <pt x="54" y="103" on="0"/>
        <pt x="54" y="385" on="0"/>
        <pt x="159" y="499" on="0"/>
        <pt x="286" y="499" on="1"/>
        <pt x="382" y="499" on="0"/>
        <pt x="443" y="476" on="1"/>
        <pt x="432" y="421" on="1"/>
        <pt x="366" y="427" on="0"/>
        <pt x="300" y="427" on="1"/>
        <pt x="212" y="427" on="0"/>
        <pt x="144" y="349" on="0"/>
        <pt x="144" y="244" on="1"/>
        <pt x="144" y="138" on="0"/>
        <pt x="212" y="60" on="0"/>
        <pt x="300" y="60" on="1"/>
        <pt x="380" y="60" on="0"/>
      </contour>
    </TTGlyph>
    <TTGlyph name="cedilla" xMin="34" yMin="-229" xMax="201" yMax="-43">
      <contour>
        <pt x="81" y="-83" on="1"/>
        <pt x="90" y="-43" on="1"/>
        <pt x="151" y="-37" on="0"/>
        <pt x="202" y="-65" on="0"/>
        <pt x="201" y="-108" on="1"/>
        <pt x="200" y="-171" on="0"/>
        <pt x="106" y="-239" on="0"/>
        <pt x="34" y="-229" on="1"/>
        <pt x="47" y="-184" on="1"/>
        <pt x="88" y="-185" on="0"/>
        <pt x="139" y="-146" on="0"/>
        <pt x="140" y="-115" on="1"/>
        <pt x="141" y="-97" on="0"/>
        <pt x="117" y="-84" on="0"/>
      </contour>
    </TTGlyph>
    <TTGlyph name="cent" xMin="54" yMin="0" xMax="451" yMax="690">
      <contour>
        <pt x="442" y="176" on="1"/>
        <pt x="451" y="119" on="1"/>
        <pt x="379" y="94" on="0"/>
        <pt x="292" y="94" on="1"/>
        <pt x="283" y="0" on="1"/>
        <pt x="238" y="0" on="1"/>
        <pt x="247" y="95" on="1"/>
        <pt x="142" y="102" on="0"/>
        <pt x="54" y="219" on="0"/>
        <pt x="54" y="349" on="1"/>
        <pt x="54" y="489" on="0"/>
        <pt x="159" y="605" on="0"/>
        <pt x="285" y="605" on="1"/>
        <pt x="291" y="605" on="1"/>
        <pt x="299" y="690" on="1"/>
        <pt x="345" y="690" on="1"/>
        <pt x="337" y="603" on="1"/>
        <pt x="399" y="598" on="0"/>
        <pt x="442" y="581" on="1"/>
        <pt x="431" y="524" on="1"/>
        <pt x="378" y="530" on="0"/>
        <pt x="330" y="532" on="1"/>
        <pt x="299" y="165" on="1"/>
        <pt x="375" y="165" on="0"/>
      </contour>
      <contour>
        <pt x="254" y="168" on="1"/>
        <pt x="284" y="532" on="1"/>
        <pt x="202" y="529" on="0"/>
        <pt x="138" y="450" on="0"/>
        <pt x="138" y="349" on="1"/>
        <pt x="138" y="257" on="0"/>
        <pt x="190" y="176" on="0"/>
      </contour>
    </TTGlyph>
    <TTGlyph name="circumflex" xMin="48" yMin="549" xMax="374" yMax="713">
      <contour>
        <pt x="374" y="586" on="1"/>
        <pt x="344" y="549" on="1"/>
        <pt x="215" y="646" on="1"/>
        <pt x="207" y="646" on="1"/>
        <pt x="77" y="549" on="1"/>
        <pt x="48" y="586" on="1"/>
        <pt x="180" y="713" on="1"/>
        <pt x="241" y="713" on="1"/>
      </contour>
    </TTGlyph>
    <TTGlyph name="colon" xMin="69" yMin="0" xMax="161" yMax="440">
      <contour>
        <pt x="101" y="440" on="1"/>
        <pt x="129" y="440" on="1"/>
        <pt x="146" y="440" on="0"/>
        <pt x="161" y="426" on="0"/>
        <pt x="161" y="409" on="1"/>
        <pt x="161" y="354" on="1"/>
        <pt x="161" y="336" on="0"/>
        <pt x="146" y="322" on="0"/>
        <pt x="129" y="322" on="1"/>
        <pt x="101" y="322" on="1"/>
        <pt x="84" y="322" on="0"/>
        <pt x="69" y="336" on="0"/>
        <pt x="69" y="354" on="1"/>
        <pt x="69" y="409" on="1"/>
        <pt x="69" y="426" on="0"/>
        <pt x="84" y="440" on="0"/>
      </contour>
      <contour>
        <pt x="101" y="118" on="1"/>
        <pt x="129" y="118" on="1"/>
        <pt x="146" y="118" on="0"/>
        <pt x="161" y="104" on="0"/>
        <pt x="161" y="86" on="1"/>
        <pt x="161" y="32" on="1"/>
        <pt x="161" y="14" on="0"/>
        <pt x="146" y="0" on="0"/>
        <pt x="129" y="0" on="1"/>
        <pt x="101" y="0" on="1"/>
        <pt x="84" y="0" on="0"/>
        <pt x="69" y="14" on="0"/>
        <pt x="69" y="32" on="1"/>
        <pt x="69" y="86" on="1"/>
        <pt x="69" y="104" on="0"/>
        <pt x="84" y="118" on="0"/>
      </contour>
    </TTGlyph>
    <TTGlyph name="comma" xMin="69" yMin="-132" xMax="158" yMax="118">
      <contour>
        <pt x="102" y="118" on="1"/>
        <pt x="127" y="118" on="1"/>
        <pt x="145" y="118" on="0"/>
        <pt x="158" y="104" on="0"/>
        <pt x="158" y="86" on="1"/>
        <pt x="158" y="22" on="1"/>
        <pt x="157" y="-63" on="0"/>
        <pt x="123" y="-132" on="1"/>
        <pt x="83" y="-120" on="1"/>
        <pt x="93" y="-61" on="0"/>
        <pt x="93" y="0" on="1"/>
        <pt x="69" y="0" on="0"/>
        <pt x="69" y="28" on="1"/>
        <pt x="69" y="86" on="1"/>
        <pt x="70" y="118" on="0"/>
      </contour>
    </TTGlyph>
    <TTGlyph name="copyright" xMin="59" yMin="-13" xMax="777" yMax="703">
      <contour>
        <pt x="418" y="703" on="1"/>
        <pt x="570" y="703" on="0"/>
        <pt x="777" y="500" on="0"/>
        <pt x="777" y="190" on="0"/>
        <pt x="570" y="-13" on="0"/>
        <pt x="418" y="-13" on="1"/>
        <pt x="267" y="-13" on="0"/>
        <pt x="59" y="191" on="0"/>
        <pt x="59" y="499" on="0"/>
        <pt x="267" y="703" on="0"/>
      </contour>
      <contour>
        <pt x="548" y="657" on="0"/>
        <pt x="288" y="657" on="0"/>
        <pt x="106" y="478" on="0"/>
        <pt x="106" y="212" on="0"/>
        <pt x="288" y="33" on="0"/>
        <pt x="548" y="33" on="0"/>
        <pt x="730" y="211" on="0"/>
        <pt x="730" y="479" on="0"/>
      </contour>
      <contour>
        <pt x="562" y="191" on="1"/>
        <pt x="568" y="142" on="1"/>
        <pt x="506" y="127" on="0"/>
        <pt x="423" y="127" on="1"/>
        <pt x="316" y="127" on="0"/>
        <pt x="228" y="226" on="0"/>
        <pt x="228" y="347" on="1"/>
        <pt x="228" y="469" on="0"/>
        <pt x="316" y="568" on="0"/>
        <pt x="423" y="568" on="1"/>
        <pt x="502" y="568" on="0"/>
        <pt x="558" y="554" on="1"/>
        <pt x="550" y="506" on="1"/>
        <pt x="486" y="509" on="0"/>
        <pt x="422" y="509" on="1"/>
        <pt x="350" y="509" on="0"/>
        <pt x="295" y="439" on="0"/>
        <pt x="295" y="255" on="0"/>
        <pt x="350" y="185" on="0"/>
        <pt x="422" y="185" on="1"/>
        <pt x="513" y="185" on="0"/>
      </contour>
    </TTGlyph>
    <TTGlyph name="currency" xMin="66" yMin="123" xMax="526" yMax="580">
      <contour>
        <pt x="488" y="123" on="1"/>
        <pt x="415" y="195" on="1"/>
        <pt x="362" y="155" on="0"/>
        <pt x="296" y="155" on="1"/>
        <pt x="231" y="155" on="0"/>
        <pt x="178" y="195" on="1"/>
        <pt x="106" y="123" on="1"/>
        <pt x="66" y="163" on="1"/>
        <pt x="138" y="235" on="1"/>
        <pt x="100" y="286" on="0"/>
        <pt x="100" y="351" on="1"/>
        <pt x="100" y="418" on="0"/>
        <pt x="140" y="471" on="1"/>
        <pt x="69" y="542" on="1"/>
        <pt x="106" y="580" on="1"/>
        <pt x="177" y="508" on="1"/>
        <pt x="230" y="548" on="0"/>
        <pt x="296" y="548" on="1"/>
        <pt x="364" y="548" on="0"/>
        <pt x="416" y="507" on="1"/>
        <pt x="488" y="580" on="1"/>
        <pt x="526" y="542" on="1"/>
        <pt x="453" y="470" on="1"/>
        <pt x="492" y="419" on="0"/>
        <pt x="492" y="351" on="1"/>
        <pt x="492" y="286" on="0"/>
        <pt x="452" y="233" on="1"/>
        <pt x="526" y="160" on="1"/>
      </contour>
      <contour>
        <pt x="296" y="208" on="1"/>
        <pt x="355" y="207" on="0"/>
        <pt x="439" y="292" on="0"/>
        <pt x="439" y="412" on="0"/>
        <pt x="355" y="497" on="0"/>
        <pt x="237" y="497" on="0"/>
        <pt x="152" y="412" on="0"/>
        <pt x="152" y="292" on="0"/>
        <pt x="237" y="207" on="0"/>
      </contour>
    </TTGlyph>
    <TTGlyph name="d" xMin="56" yMin="-12" xMax="494" yMax="700">
      <contour>
        <pt x="494" y="700" on="1"/>
        <pt x="494" y="0" on="1"/>
        <pt x="428" y="0" on="1"/>
        <pt x="420" y="70" on="1"/>
        <pt x="327" y="-12" on="0"/>
        <pt x="227" y="-12" on="1"/>
        <pt x="137" y="-12" on="0"/>
        <pt x="56" y="115" on="0"/>
        <pt x="56" y="245" on="1"/>
        <pt x="56" y="384" on="0"/>
        <pt x="144" y="499" on="0"/>
        <pt x="240" y="499" on="1"/>
        <pt x="335" y="499" on="0"/>
        <pt x="413" y="454" on="1"/>
        <pt x="409" y="498" on="0"/>
        <pt x="409" y="550" on="1"/>
        <pt x="409" y="700" on="1"/>
      </contour>
      <contour>
        <pt x="409" y="129" on="1"/>
        <pt x="409" y="398" on="1"/>
        <pt x="313" y="425" on="0"/>
        <pt x="260" y="425" on="1"/>
        <pt x="195" y="425" on="0"/>
        <pt x="143" y="351" on="0"/>
        <pt x="143" y="141" on="0"/>
        <pt x="194" y="62" on="0"/>
        <pt x="255" y="62" on="1"/>
        <pt x="293" y="62" on="0"/>
        <pt x="355" y="91" on="0"/>
      </contour>
    </TTGlyph>
    <TTGlyph name="dagger" xMin="43" yMin="-110" xMax="411" yMax="691">
      <contour>
        <pt x="262" y="-110" on="1"/>
        <pt x="192" y="-110" on="1"/>
        <pt x="192" y="482" on="1"/>
        <pt x="188" y="691" on="1"/>
        <pt x="265" y="691" on="1"/>
        <pt x="262" y="482" on="1"/>
      </contour>
      <contour>
        <pt x="411" y="487" on="1"/>
        <pt x="411" y="412" on="1"/>
        <pt x="280" y="422" on="1"/>
        <pt x="280" y="487" on="1"/>
      </contour>
      <contour>
        <pt x="43" y="412" on="1"/>
        <pt x="43" y="487" on="1"/>
        <pt x="173" y="487" on="1"/>
        <pt x="173" y="422" on="1"/>
      </contour>
    </TTGlyph>
    <TTGlyph name="daggerdbl" xMin="61" yMin="-110" xMax="429" yMax="691">
      <contour>
        <pt x="280" y="485" on="1"/>
        <pt x="280" y="95" on="1"/>
        <pt x="284" y="-110" on="1"/>
        <pt x="206" y="-110" on="1"/>
        <pt x="210" y="95" on="1"/>
        <pt x="210" y="485" on="1"/>
        <pt x="206" y="691" on="1"/>
        <pt x="284" y="691" on="1"/>
      </contour>
      <contour>
        <pt x="192" y="422" on="1"/>
        <pt x="61" y="412" on="1"/>
        <pt x="61" y="487" on="1"/>
        <pt x="192" y="487" on="1"/>
      </contour>
      <contour>
        <pt x="429" y="412" on="1"/>
        <pt x="299" y="422" on="1"/>
        <pt x="299" y="487" on="1"/>
        <pt x="429" y="487" on="1"/>
      </contour>
      <contour>
        <pt x="192" y="159" on="1"/>
        <pt x="192" y="94" on="1"/>
        <pt x="61" y="94" on="1"/>
        <pt x="61" y="169" on="1"/>
      </contour>
      <contour>
        <pt x="429" y="94" on="1"/>
        <pt x="299" y="94" on="1"/>
        <pt x="299" y="159" on="1"/>
        <pt x="429" y="169" on="1"/>
      </contour>
    </TTGlyph>
    <TTGlyph name="dcaron" xMin="56" yMin="-12" xMax="633" yMax="703">
      <contour>
        <pt x="633" y="678" on="1"/>
        <pt x="633" y="627" on="1"/>
        <pt x="632" y="560" on="0"/>
        <pt x="602" y="504" on="1"/>
        <pt x="565" y="514" on="1"/>
        <pt x="574" y="562" on="0"/>
        <pt x="574" y="609" on="1"/>
        <pt x="553" y="609" on="0"/>
        <pt x="553" y="631" on="1"/>
        <pt x="553" y="678" on="1"/>
        <pt x="554" y="703" on="0"/>
        <pt x="583" y="703" on="1"/>
        <pt x="605" y="703" on="1"/>
        <pt x="621" y="703" on="0"/>
        <pt x="633" y="692" on="0"/>
      </contour>
      <contour>
        <pt x="409" y="700" on="1"/>
        <pt x="494" y="700" on="1"/>
        <pt x="494" y="0" on="1"/>
        <pt x="428" y="0" on="1"/>
        <pt x="420" y="70" on="1"/>
        <pt x="327" y="-12" on="0"/>
        <pt x="227" y="-12" on="1"/>
        <pt x="137" y="-12" on="0"/>
        <pt x="56" y="115" on="0"/>
        <pt x="56" y="245" on="1"/>
        <pt x="56" y="384" on="0"/>
        <pt x="144" y="499" on="0"/>
        <pt x="240" y="499" on="1"/>
        <pt x="335" y="499" on="0"/>
        <pt x="413" y="454" on="1"/>
        <pt x="409" y="498" on="0"/>
        <pt x="409" y="550" on="1"/>
      </contour>
      <contour>
        <pt x="409" y="129" on="1"/>
        <pt x="409" y="398" on="1"/>
        <pt x="313" y="425" on="0"/>
        <pt x="260" y="425" on="1"/>
        <pt x="195" y="425" on="0"/>
        <pt x="143" y="351" on="0"/>
        <pt x="143" y="141" on="0"/>
        <pt x="194" y="62" on="0"/>
        <pt x="255" y="62" on="1"/>
        <pt x="293" y="62" on="0"/>
        <pt x="355" y="91" on="0"/>
      </contour>
    </TTGlyph>
    <TTGlyph name="dcroat" xMin="56" yMin="-12" xMax="562" yMax="700">
      <contour>
        <pt x="562" y="573" on="1"/>
        <pt x="494" y="573" on="1"/>
        <pt x="494" y="0" on="1"/>
        <pt x="428" y="0" on="1"/>
        <pt x="420" y="70" on="1"/>
        <pt x="327" y="-12" on="0"/>
        <pt x="227" y="-12" on="1"/>
        <pt x="137" y="-12" on="0"/>
        <pt x="56" y="115" on="0"/>
        <pt x="56" y="245" on="1"/>
        <pt x="56" y="384" on="0"/>
        <pt x="144" y="499" on="0"/>
        <pt x="240" y="499" on="1"/>
        <pt x="335" y="499" on="0"/>
        <pt x="413" y="454" on="1"/>
        <pt x="409" y="498" on="0"/>
        <pt x="409" y="550" on="1"/>
        <pt x="409" y="573" on="1"/>
        <pt x="256" y="573" on="1"/>
        <pt x="256" y="622" on="1"/>
        <pt x="409" y="622" on="1"/>
        <pt x="409" y="700" on="1"/>
        <pt x="494" y="700" on="1"/>
        <pt x="494" y="622" on="1"/>
        <pt x="562" y="622" on="1"/>
      </contour>
      <contour>
        <pt x="409" y="129" on="1"/>
        <pt x="409" y="398" on="1"/>
        <pt x="313" y="425" on="0"/>
        <pt x="260" y="425" on="1"/>
        <pt x="195" y="425" on="0"/>
        <pt x="143" y="351" on="0"/>
        <pt x="143" y="141" on="0"/>
        <pt x="194" y="62" on="0"/>
        <pt x="255" y="62" on="1"/>
        <pt x="293" y="62" on="0"/>
        <pt x="355" y="91" on="0"/>
      </contour>
    </TTGlyph>
    <TTGlyph name="degree" xMin="52" yMin="448" xMax="311" yMax="703">
      <contour>
        <pt x="182" y="703" on="1"/>
        <pt x="235" y="703" on="0"/>
        <pt x="311" y="628" on="0"/>
        <pt x="311" y="524" on="0"/>
        <pt x="235" y="448" on="0"/>
        <pt x="129" y="448" on="0"/>
        <pt x="52" y="524" on="0"/>
        <pt x="52" y="628" on="0"/>
        <pt x="128" y="703" on="0"/>
      </contour>
      <contour>
        <pt x="182" y="651" on="1"/>
        <pt x="150" y="651" on="0"/>
        <pt x="106" y="609" on="0"/>
        <pt x="106" y="576" on="1"/>
        <pt x="106" y="544" on="0"/>
        <pt x="150" y="500" on="0"/>
        <pt x="182" y="500" on="1"/>
        <pt x="213" y="500" on="0"/>
        <pt x="257" y="544" on="0"/>
        <pt x="257" y="608" on="0"/>
        <pt x="213" y="651" on="0"/>
      </contour>
    </TTGlyph>
    <TTGlyph name="dieresis" xMin="80" yMin="590" xMax="333" yMax="693">
      <contour>
        <pt x="103" y="693" on="1"/>
        <pt x="132" y="693" on="1"/>
        <pt x="155" y="693" on="0"/>
        <pt x="155" y="669" on="1"/>
        <pt x="155" y="614" on="1"/>
        <pt x="155" y="590" on="0"/>
        <pt x="132" y="590" on="1"/>
        <pt x="103" y="590" on="1"/>
        <pt x="80" y="590" on="0"/>
        <pt x="80" y="614" on="1"/>
        <pt x="80" y="669" on="1"/>
        <pt x="80" y="693" on="0"/>
      </contour>
      <contour>
        <pt x="281" y="693" on="1"/>
        <pt x="309" y="693" on="1"/>
        <pt x="333" y="693" on="0"/>
        <pt x="333" y="669" on="1"/>
        <pt x="333" y="614" on="1"/>
        <pt x="333" y="590" on="0"/>
        <pt x="309" y="590" on="1"/>
        <pt x="281" y="590" on="1"/>
        <pt x="257" y="590" on="0"/>
        <pt x="257" y="614" on="1"/>
        <pt x="257" y="669" on="1"/>
        <pt x="257" y="693" on="0"/>
      </contour>
    </TTGlyph>
</ttFont>
